<svg xmlns="http://www.w3.org/2000/svg" xmlns:xlink="http://www.w3.org/1999/xlink" viewBox="0 0 42.109 67.188">
  <defs>
    <style>
      .cls-1 {
        fill: url(#linear-gradient);
      }
    </style>
    <linearGradient id="linear-gradient" x1="0.5" x2="0.5" y2="1" gradientUnits="objectBoundingBox">
      <stop offset="0" stop-color="#f4627c"/>
      <stop offset="1" stop-color="#b539a8"/>
    </linearGradient>
  </defs>
  <g id="baby-boy" transform="translate(-95.555)">
    <g id="Group_54" data-name="Group 54" transform="translate(110.26 62.8)">
      <g id="Group_53" data-name="Group 53" transform="translate(0)">
        <path id="Path_286" data-name="Path 286" class="cls-1" d="M219.491,478.651a1.312,1.312,0,0,0-1.706.73,1.534,1.534,0,0,1-1.422.94h-4.794a1.534,1.534,0,0,1-1.422-.94,1.312,1.312,0,1,0-2.436.976,4.126,4.126,0,0,0,3.858,2.588h4.794a4.126,4.126,0,0,0,3.858-2.588A1.312,1.312,0,0,0,219.491,478.651Z" transform="translate(-207.616 -478.556)"/>
      </g>
    </g>
    <g id="Group_56" data-name="Group 56" transform="translate(95.555)">
      <g id="Group_55" data-name="Group 55" transform="translate(0)">
        <path id="Path_287" data-name="Path 287" class="cls-1" d="M137.546,56.134a6.474,6.474,0,0,0-3.107-4.368,6.521,6.521,0,0,0,2.332-6.035,16.544,16.544,0,0,0-9.176-12.444A15.052,15.052,0,0,0,120.717,8.5a5.677,5.677,0,0,0,1.329-3.665A4.844,4.844,0,0,0,117.208,0h0a4.4,4.4,0,0,0-2.84.986,3.581,3.581,0,0,0-1.293,2.78,1.312,1.312,0,0,0,2.625,0,.971.971,0,0,1,.36-.774,1.778,1.778,0,0,1,1.149-.368h0a2.217,2.217,0,0,1,2.214,2.214,3.1,3.1,0,0,1-3.1,3.1h0c-.032,0-.064,0-.1,0a15.052,15.052,0,0,0-10.607,25.347A16.545,16.545,0,0,0,96.449,45.73a6.521,6.521,0,0,0,2.332,6.036,6.477,6.477,0,0,0-1.849,9.593l2.81,3.591a5.85,5.85,0,0,0,4.609,2.231,5.789,5.789,0,0,0,2.9-.774,5.859,5.859,0,0,0,2.493-7.232l-1.7-4.229a6.464,6.464,0,0,0-.4-.814h9.625a1.312,1.312,0,1,0,0-2.625h-12.12V48.741a.647.647,0,0,1,.646-.646h21.635a.647.647,0,0,1,.646.646v2.948a6.474,6.474,0,0,0-2.894,3.257l-1.7,4.229a5.86,5.86,0,0,0,2.493,7.232,5.788,5.788,0,0,0,2.9.774,5.851,5.851,0,0,0,4.61-2.231l2.81-3.591A6.474,6.474,0,0,0,137.546,56.134ZM104.173,23A12.436,12.436,0,1,1,116.61,35.431,12.451,12.451,0,0,1,104.173,23Zm1.432,32.932,1.7,4.229a3.208,3.208,0,0,1-5.5,3.176L99,59.742a3.853,3.853,0,1,1,6.608-3.815Zm21.83-13.081a1.312,1.312,0,0,0-1.312,1.312V45.47H107.1V44.158a1.312,1.312,0,1,0-2.625,0v1.588a3.275,3.275,0,0,0-1.958,2.995v1.853a3.91,3.91,0,0,1-3.478-4.473A13.855,13.855,0,0,1,107.8,35.2a15.027,15.027,0,0,0,17.622,0,13.855,13.855,0,0,1,8.755,10.919,3.91,3.91,0,0,1-3.478,4.473V48.741a3.275,3.275,0,0,0-1.95-2.991V44.158A1.312,1.312,0,0,0,127.436,42.846Zm6.785,16.9-2.81,3.591a3.208,3.208,0,0,1-5.5-3.177l1.7-4.229a3.853,3.853,0,1,1,6.607,3.815Z" transform="translate(-95.555)"/>
      </g>
    </g>
    <g id="Group_58" data-name="Group 58" transform="translate(121.166 51.507)">
      <g id="Group_57" data-name="Group 57">
        <path id="Path_288" data-name="Path 288" class="cls-1" d="M292.96,392.884a1.311,1.311,0,1,0,.385.928A1.322,1.322,0,0,0,292.96,392.884Z" transform="translate(-290.72 -392.5)"/>
      </g>
    </g>
    <g id="Group_60" data-name="Group 60" transform="translate(112.506 27.184)">
      <g id="Group_59" data-name="Group 59" transform="translate(0)">
        <path id="Path_289" data-name="Path 289" class="cls-1" d="M232.448,207.443a1.312,1.312,0,0,0-1.846.193,2.278,2.278,0,0,1-3.544,0,1.312,1.312,0,0,0-2.039,1.653,4.9,4.9,0,0,0,7.622,0A1.312,1.312,0,0,0,232.448,207.443Z" transform="translate(-224.726 -207.151)"/>
      </g>
    </g>
    <g id="Group_62" data-name="Group 62" transform="translate(108.591 21.174)">
      <g id="Group_61" data-name="Group 61">
        <path id="Path_290" data-name="Path 290" class="cls-1" d="M199.6,162.25a3.057,3.057,0,0,0-4.318,0,1.312,1.312,0,0,0,1.856,1.856.429.429,0,0,1,.606,0,1.312,1.312,0,0,0,1.856-1.856Z" transform="translate(-194.898 -161.357)"/>
      </g>
    </g>
    <g id="Group_64" data-name="Group 64" transform="translate(119.541 21.174)">
      <g id="Group_63" data-name="Group 63" transform="translate(0)">
        <path id="Path_291" data-name="Path 291" class="cls-1" d="M283.043,162.249a3.057,3.057,0,0,0-4.318,0,1.312,1.312,0,1,0,1.856,1.856.429.429,0,0,1,.606,0,1.312,1.312,0,0,0,1.856-1.856Z" transform="translate(-278.34 -161.357)"/>
      </g>
    </g>
  </g>
</svg>
