<svg id="group" xmlns="http://www.w3.org/2000/svg" xmlns:xlink="http://www.w3.org/1999/xlink" viewBox="0 0 66 66">
  <defs>
    <style>
      .cls-1 {
        fill: url(#linear-gradient);
      }
    </style>
    <linearGradient id="linear-gradient" x1="0.5" x2="0.5" y2="1" gradientUnits="objectBoundingBox">
      <stop offset="0" stop-color="#f4627c"/>
      <stop offset="1" stop-color="#b539a8"/>
    </linearGradient>
  </defs>
  <g id="Group_20" data-name="Group 20" transform="translate(31.677 63.422)">
    <g id="Group_19" data-name="Group 19">
      <path id="Path_269" data-name="Path 269" class="cls-1" d="M247.94,492.378a1.288,1.288,0,1,0,.378.911A1.3,1.3,0,0,0,247.94,492.378Z" transform="translate(-245.74 -492)"/>
    </g>
  </g>
  <g id="Group_22" data-name="Group 22" transform="translate(0 13.591)">
    <g id="Group_21" data-name="Group 21">
      <path id="Path_270" data-name="Path 270" class="cls-1" d="M59.111,134.007l-4.3-1.027v-1.706a8.508,8.508,0,0,0,3.976-7.2v-4.8a8.5,8.5,0,0,0-14.873-5.636,11.364,11.364,0,0,0-10.9-8.2h0a11.364,11.364,0,0,0-10.908,8.224,8.5,8.5,0,0,0-14.893,5.614v4.8a8.507,8.507,0,0,0,3.976,7.2v1.706l-4.3,1.027A8.945,8.945,0,0,0,0,142.735V151.4a1.289,1.289,0,0,0,1.289,1.289H11.6v3.867a1.289,1.289,0,0,0,1.289,1.289H27.027a1.289,1.289,0,1,0,0-2.578H21.273v-5.673a1.289,1.289,0,1,0-2.578,0v5.673h-4.52v-5.816A9.385,9.385,0,0,1,21.4,140.3l6.34-1.519,4.079,9.281a1.289,1.289,0,0,0,1.18.77h0a1.289,1.289,0,0,0,1.18-.77l4.075-9.267,6.322,1.51a9.384,9.384,0,0,1,7.227,9.157V150.9a1.291,1.291,0,0,0,0,1.008v3.363H47.305v-5.673a1.289,1.289,0,1,0-2.578,0v5.673H38.414a1.289,1.289,0,0,0,0,2.578H53.088a1.289,1.289,0,0,0,1.289-1.289v-3.867H64.711A1.289,1.289,0,0,0,66,151.4v-8.665A8.945,8.945,0,0,0,59.111,134.007Zm-8.832-20.662a5.937,5.937,0,0,1,5.93,5.93v.449H52.522a15.927,15.927,0,0,1-7.934-2.117A5.941,5.941,0,0,1,50.279,113.345Zm-5.93,10.523c0-.132.008-3.466.008-3.466a18.506,18.506,0,0,0,8.165,1.9H56.21v1.777a5.93,5.93,0,0,1-11.86,0Zm-20.1-7.088a8.766,8.766,0,0,1,17.532,0v.168l-4.784-2.811a1.289,1.289,0,0,0-1.641.283,9.735,9.735,0,0,1-7.479,3.491H24.247ZM9.791,119.594v-.319a5.93,5.93,0,0,1,11.621-1.669,15.928,15.928,0,0,1-7.934,2.117H9.791Zm0,4.485V122.3h3.687a18.506,18.506,0,0,0,8.173-1.9v3.68a5.93,5.93,0,0,1-11.86,0ZM11.6,149.451v.66H7.734v-5.727a1.289,1.289,0,1,0-2.578,0v5.727H2.578v-7.376a6.375,6.375,0,0,1,4.91-6.22l4.086-.976,2.667,6.388A11.967,11.967,0,0,0,11.6,149.451Zm4.124-10.672-1.958-4.689c0-.031,0-.062,0-.093v-1.639a8.452,8.452,0,0,0,3.9,0v1.556c0,.024,0,.048,0,.073,0,.041,0,.081.008.121Zm5.074-.99a12.117,12.117,0,0,0-2.179.749l1.256-3.006,4.087.979a6.388,6.388,0,0,1,.925.3Zm6.4-2.687a8.951,8.951,0,0,0-2.635-1.1l-4.315-1.034V131.28a8.569,8.569,0,0,0,2.664-2.656,11.425,11.425,0,0,0,4.285,4.582Zm9.021,1.914L33,144.336,29.771,137v-2.659a11.353,11.353,0,0,0,6.443.012Zm-3.2-4.778a8.776,8.776,0,0,1-8.766-8.766V120.49h3.627a12.3,12.3,0,0,0,8.712-3.6l5.185,3.046v3.84A8.775,8.775,0,0,1,33.013,132.238Zm5.779.992h0a11.425,11.425,0,0,0,4.315-4.584,8.574,8.574,0,0,0,2.65,2.634v1.691L41.441,134a8.952,8.952,0,0,0-2.649,1.108V133.23Zm6.378,4.564-4.077-.974a6.4,6.4,0,0,1,.948-.308l4.077-.977,1.261,3.02A12.118,12.118,0,0,0,45.171,137.793Zm3.156-3.665a1.287,1.287,0,0,0,.009-.141c0-.012,0-.024,0-.036V132.36a8.45,8.45,0,0,0,3.9,0V134c0,.023,0,.047,0,.07l-1.968,4.713Zm15.1,15.982H60.844v-5.727a1.289,1.289,0,1,0-2.578,0v5.727H54.377v-.654a11.966,11.966,0,0,0-2.636-7.516l2.675-6.406,4.1.979a6.375,6.375,0,0,1,4.91,6.22Z" transform="translate(0 -105.437)"/>
    </g>
  </g>
  <g id="Group_24" data-name="Group 24" transform="translate(27.387 29.81)">
    <g id="Group_23" data-name="Group 23">
      <path id="Path_271" data-name="Path 271" class="cls-1" d="M214.66,231.628a1.288,1.288,0,1,0,.378.911A1.3,1.3,0,0,0,214.66,231.628Z" transform="translate(-212.46 -231.25)"/>
    </g>
  </g>
  <g id="Group_26" data-name="Group 26" transform="translate(36.007 29.81)">
    <g id="Group_25" data-name="Group 25">
      <path id="Path_272" data-name="Path 272" class="cls-1" d="M281.53,231.628a1.288,1.288,0,1,0,.378.911A1.3,1.3,0,0,0,281.53,231.628Z" transform="translate(-279.33 -231.25)"/>
    </g>
  </g>
  <g id="Group_28" data-name="Group 28" transform="translate(30.075 34.149)">
    <g id="Group_27" data-name="Group 27">
      <path id="Path_273" data-name="Path 273" class="cls-1" d="M238.714,265.291a1.289,1.289,0,0,0-1.823,0,.979.979,0,0,1-1.383,0,1.289,1.289,0,1,0-1.823,1.823,3.56,3.56,0,0,0,5.029,0A1.289,1.289,0,0,0,238.714,265.291Z" transform="translate(-233.307 -264.913)"/>
    </g>
  </g>
  <g id="Group_30" data-name="Group 30" transform="translate(51.127 6.961)">
    <g id="Group_29" data-name="Group 29">
      <path id="Path_274" data-name="Path 274" class="cls-1" d="M398.793,54h-.884a1.289,1.289,0,0,0,0,2.578h.884a1.289,1.289,0,1,0,0-2.578Z" transform="translate(-396.62 -54)"/>
    </g>
  </g>
  <g id="Group_32" data-name="Group 32" transform="translate(57.381 6.961)">
    <g id="Group_31" data-name="Group 31">
      <path id="Path_275" data-name="Path 275" class="cls-1" d="M447.314,54h-.884a1.289,1.289,0,0,0,0,2.578h.884a1.289,1.289,0,0,0,0-2.578Z" transform="translate(-445.141 -54)"/>
    </g>
  </g>
  <g id="Group_34" data-name="Group 34" transform="translate(54.696 9.646)">
    <g id="Group_33" data-name="Group 33">
      <path id="Path_276" data-name="Path 276" class="cls-1" d="M425.6,74.831a1.289,1.289,0,0,0-1.289,1.289V77a1.289,1.289,0,1,0,2.578,0V76.12A1.289,1.289,0,0,0,425.6,74.831Z" transform="translate(-424.311 -74.831)"/>
    </g>
  </g>
  <g id="Group_36" data-name="Group 36" transform="translate(54.696 3.392)">
    <g id="Group_35" data-name="Group 35">
      <path id="Path_277" data-name="Path 277" class="cls-1" d="M425.6,26.31a1.289,1.289,0,0,0-1.289,1.289v.884a1.289,1.289,0,1,0,2.578,0V27.6A1.289,1.289,0,0,0,425.6,26.31Z" transform="translate(-424.311 -26.31)"/>
    </g>
  </g>
  <g id="Group_38" data-name="Group 38" transform="translate(5.085 6.961)">
    <g id="Group_37" data-name="Group 37">
      <path id="Path_278" data-name="Path 278" class="cls-1" d="M41.617,54h-.884a1.289,1.289,0,0,0,0,2.578h.884a1.289,1.289,0,1,0,0-2.578Z" transform="translate(-39.444 -54)"/>
    </g>
  </g>
  <g id="Group_40" data-name="Group 40" transform="translate(11.339 6.961)">
    <g id="Group_39" data-name="Group 39">
      <path id="Path_279" data-name="Path 279" class="cls-1" d="M90.138,54h-.884a1.289,1.289,0,0,0,0,2.578h.884a1.289,1.289,0,1,0,0-2.578Z" transform="translate(-87.965 -54)"/>
    </g>
  </g>
  <g id="Group_42" data-name="Group 42" transform="translate(8.654 9.646)">
    <g id="Group_41" data-name="Group 41">
      <path id="Path_280" data-name="Path 280" class="cls-1" d="M68.423,74.831a1.289,1.289,0,0,0-1.289,1.289V77a1.289,1.289,0,1,0,2.578,0V76.12A1.289,1.289,0,0,0,68.423,74.831Z" transform="translate(-67.134 -74.831)"/>
    </g>
  </g>
  <g id="Group_44" data-name="Group 44" transform="translate(8.654 3.392)">
    <g id="Group_43" data-name="Group 43">
      <path id="Path_281" data-name="Path 281" class="cls-1" d="M68.423,26.31A1.289,1.289,0,0,0,67.134,27.6v.884a1.289,1.289,0,1,0,2.578,0V27.6A1.289,1.289,0,0,0,68.423,26.31Z" transform="translate(-67.134 -26.31)"/>
    </g>
  </g>
  <g id="Group_46" data-name="Group 46" transform="translate(31.711 4.91)">
    <g id="Group_45" data-name="Group 45">
      <path id="Path_282" data-name="Path 282" class="cls-1" d="M247.289,38.087A1.289,1.289,0,0,0,246,39.376v3.392a1.289,1.289,0,0,0,2.578,0V39.376A1.289,1.289,0,0,0,247.289,38.087Z" transform="translate(-246 -38.087)"/>
    </g>
  </g>
  <g id="Group_48" data-name="Group 48" transform="translate(31.711)">
    <g id="Group_47" data-name="Group 47">
      <path id="Path_283" data-name="Path 283" class="cls-1" d="M248.2.378a1.289,1.289,0,0,0-2.2.911,1.289,1.289,0,1,0,2.2-.911Z" transform="translate(-246)"/>
    </g>
  </g>
  <g id="Group_50" data-name="Group 50" transform="translate(24.395 2.908)">
    <g id="Group_49" data-name="Group 49">
      <path id="Path_284" data-name="Path 284" class="cls-1" d="M193.336,24.82l-1.886-1.886a1.289,1.289,0,1,0-1.823,1.823l1.887,1.886a1.289,1.289,0,0,0,1.823-1.823Z" transform="translate(-189.249 -22.556)"/>
    </g>
  </g>
  <g id="Group_52" data-name="Group 52" transform="translate(37.077 2.837)">
    <g id="Group_51" data-name="Group 51">
      <path id="Path_285" data-name="Path 285" class="cls-1" d="M291.775,22.384a1.289,1.289,0,0,0-1.823,0L288,24.333a1.289,1.289,0,0,0,1.823,1.823l1.949-1.949A1.289,1.289,0,0,0,291.775,22.384Z" transform="translate(-287.625 -22.006)"/>
    </g>
  </g>
</svg>
