<svg xmlns="http://www.w3.org/2000/svg" xmlns:xlink="http://www.w3.org/1999/xlink" viewBox="0 0 75.999 56.348">
  <defs>
    <style>
      .cls-1 {
        fill: url(#linear-gradient);
      }
    </style>
    <linearGradient id="linear-gradient" x1="-0.94" y1="1.368" x2="1" y2="0.311" gradientUnits="objectBoundingBox">
      <stop offset="0" stop-color="#f4627c"/>
      <stop offset="1" stop-color="#b539a8"/>
    </linearGradient>
  </defs>
  <g id="heart" transform="translate(0 -0.5)">
    <path id="Path_264" data-name="Path 264" class="cls-1" d="M270.935,35.836c-2.189,0-3.466-.795-5.4-2-.878-.547-2.233-1.419-3.7-2.464-5.8-4.134-7.6-6.888-8.46-8.6a16.6,16.6,0,0,1-1.406-10.886,14.628,14.628,0,0,1,5.971-9.1A13.11,13.11,0,0,1,265.353.5a13.882,13.882,0,0,1,3.181.375,11.971,11.971,0,0,1,2.4.839,11.952,11.952,0,0,1,2.4-.839A13.883,13.883,0,0,1,276.517.5a13.108,13.108,0,0,1,7.409,2.289,14.626,14.626,0,0,1,5.972,9.1,16.6,16.6,0,0,1-1.407,10.887c-.856,1.712-2.664,4.466-8.46,8.6-1.465,1.044-2.82,1.916-3.7,2.464-1.931,1.2-3.208,2-5.4,2ZM265.353,3.469a10.149,10.149,0,0,0-5.737,1.774,11.673,11.673,0,0,0-4.742,7.273,13.619,13.619,0,0,0,1.16,8.931c.714,1.429,2.272,3.761,7.528,7.51,1.4,1,2.7,1.836,3.544,2.361,1.76,1.1,2.488,1.55,3.828,1.55s2.068-.454,3.828-1.55c.842-.525,2.142-1.361,3.544-2.361,5.257-3.749,6.815-6.081,7.529-7.51A13.615,13.615,0,0,0,287,12.515a11.674,11.674,0,0,0-4.741-7.273,10.153,10.153,0,0,0-5.737-1.773,10.891,10.891,0,0,0-2.5.3,8.766,8.766,0,0,0-2.35.913,1.485,1.485,0,0,1-1.463,0,8.763,8.763,0,0,0-2.349-.913,10.894,10.894,0,0,0-2.5-.3Zm0,0" transform="translate(-214.262)"/>
    <path id="Path_265" data-name="Path 265" class="cls-1" d="M304.993,63.949c-.426,0-.491,0-2.258-1.1-.807-.5-2.05-1.3-3.391-2.258-3.492-2.491-5.712-4.651-6.6-6.421a10.637,10.637,0,0,1-.914-6.976,8.719,8.719,0,0,1,3.512-5.446,7.121,7.121,0,0,1,9.647,1.417,7.121,7.121,0,0,1,9.648-1.417,8.72,8.72,0,0,1,3.511,5.446,10.641,10.641,0,0,1-.913,6.976,15.2,15.2,0,0,1-4.02,4.454,1.484,1.484,0,0,1-1.889-2.29,12.339,12.339,0,0,0,3.253-3.492,7.659,7.659,0,0,0,.667-5.021,5.773,5.773,0,0,0-2.282-3.621,4.288,4.288,0,0,0-3.532-.605c-.956.226-1.462.732-2.616,1.958-.235.249-.487.517-.762.8a1.486,1.486,0,0,1-2.13,0c-.276-.285-.528-.552-.762-.8-1.154-1.226-1.66-1.733-2.616-1.958a4.289,4.289,0,0,0-3.533.605,5.774,5.774,0,0,0-2.282,3.62,7.661,7.661,0,0,0,.667,5.022c1.44,2.879,8.682,7.457,10.216,8.277a1.485,1.485,0,0,1-.626,2.831Zm0-2.969h0Zm0,0h0Zm0,0" transform="translate(-248.32 -34.05)"/>
    <path id="Path_266" data-name="Path 266" class="cls-1" d="M157.193,208.666a1.5,1.5,0,0,1-1.049-.434,1.5,1.5,0,0,1-.321-.482,1.531,1.531,0,0,1-.085-.277,1.527,1.527,0,0,1,0-.58,1.522,1.522,0,0,1,.085-.278,1.583,1.583,0,0,1,.137-.257,1.524,1.524,0,0,1,.184-.226,1.486,1.486,0,0,1,1.873-.184,1.442,1.442,0,0,1,.226.184,1.535,1.535,0,0,1,.186.226,1.583,1.583,0,0,1,.137.257,1.522,1.522,0,0,1,.085.278,1.527,1.527,0,0,1,0,.58,1.531,1.531,0,0,1-.085.277,1.469,1.469,0,0,1-.322.482,1.493,1.493,0,0,1-.481.321,1.469,1.469,0,0,1-.569.113Zm0,0" transform="translate(-132.598 -174.74)"/>
    <path id="Path_267" data-name="Path 267" class="cls-1" d="M11.429,136.976H1.484A1.484,1.484,0,0,1,0,135.492V111.816a1.484,1.484,0,0,1,1.484-1.484h9.945a1.484,1.484,0,0,1,1.484,1.484v23.675A1.484,1.484,0,0,1,11.429,136.976Zm-8.461-2.969H9.945V113.3H2.969Zm0,0" transform="translate(0 -93.529)"/>
    <path id="Path_268" data-name="Path 268" class="cls-1" d="M76,143.91a6.386,6.386,0,0,0-6.39-6.116H54.5a6.259,6.259,0,0,0-2.176-3.5L32.085,116.651c-4.3-3.91-13.312-3.917-19.171-3.43v-1.4a1.484,1.484,0,0,0-1.484-1.484H1.484A1.484,1.484,0,0,0,0,111.817v23.675a1.484,1.484,0,0,0,1.484,1.484h9.945a1.484,1.484,0,0,0,1.484-1.484v-3.584h2.161a28.436,28.436,0,0,1,1.17,5c1.492,8.676,6.767,13.454,14.852,13.454l38.611.01A6.291,6.291,0,0,0,76,143.91Zm-66.051-9.9H2.969V113.3H9.945ZM72.089,146.4a3.3,3.3,0,0,1-2.381,1.006L31.1,147.4c-8.294,0-11.064-5.976-11.926-10.989a40.7,40.7,0,0,0-1.055-4.783c-.289-.939-.826-2.686-2.334-2.686H12.914V116.2c4.187-.352,13.512-.7,17.183,2.652l.026.023L50.394,136.55l.048.04a3.323,3.323,0,0,1-4.145,5.2L29.335,128.029a1.484,1.484,0,1,0-1.87,2.306L44.434,144.1a6.241,6.241,0,0,0,3.919,1.381,6.42,6.42,0,0,0,.706-.039,6.29,6.29,0,0,0,5.4-4.675H69.607a3.4,3.4,0,0,1,3.422,3.229,3.3,3.3,0,0,1-.94,2.411Zm0,0" transform="translate(0 -93.529)"/>
  </g>
</svg>
