<svg xmlns="http://www.w3.org/2000/svg" viewBox="0 0 19.693 14">
  <g id="mail" transform="translate(0 -4.482)">
    <path id="Path_104" data-name="Path 104" d="M18.105,18.482H1.588A1.589,1.589,0,0,1,0,16.894V6.07A1.589,1.589,0,0,1,1.588,4.482H18.105A1.589,1.589,0,0,1,19.693,6.07V16.894A1.589,1.589,0,0,1,18.105,18.482ZM1.588,5.117a.954.954,0,0,0-.953.953V16.894a.954.954,0,0,0,.953.953H18.105a.954.954,0,0,0,.953-.953V6.07a.954.954,0,0,0-.953-.953Z"/>
    <path id="Path_105" data-name="Path 105" d="M10.109,13.391a1.776,1.776,0,0,1-1.166-.42L.828,5.9a.318.318,0,0,1,.418-.479L9.36,12.492a1.19,1.19,0,0,0,1.5,0L18.97,5.421a.318.318,0,0,1,.418.479L11.275,12.97A1.773,1.773,0,0,1,10.109,13.391Z" transform="translate(-0.263 -0.14)"/>
  </g>
</svg>
