<svg xmlns="http://www.w3.org/2000/svg" viewBox="0 0 121.85 121.85">
  <defs>
    <style>
      .cls-1, .cls-2, .cls-5 {
        fill: none;
      }

      .cls-1 {
        stroke: #ececec;
        stroke-width: 10px;
      }

      .cls-2 {
        stroke-linecap: round;
        stroke-dasharray: 200 200;
      }

      .cls-3 {
        fill: #4d4d4d;
        font-size: 28px;
        font-family: SegoeUI, Segoe UI;
      }

      .cls-4, .cls-6 {
        stroke: none;
      }

      .cls-6 {
        fill: #ec5c81;
      }
    </style>
  </defs>
  <g id="Rounded_Corner_Circle_Bar" data-name="Rounded Corner Circle Bar" transform="translate(0)">
    <g id="Ellipse_10" data-name="Ellipse 10" class="cls-1" transform="translate(0 0)">
      <ellipse class="cls-4" cx="60.925" cy="60.925" rx="60.925" ry="60.925"/>
      <ellipse class="cls-5" cx="60.925" cy="60.925" rx="55.925" ry="55.925"/>
    </g>
    <g id="Path_292" data-name="Path 292" class="cls-2" transform="translate(0 0)">
      <path class="cls-4" d="M60.925,0A60.925,60.925,0,1,1,0,60.925,60.925,60.925,0,0,1,60.925,0Z"/>
      <path class="cls-6" d="M 60.92514038085938 -1.52587890625e-05 C 94.57316589355469 -1.52587890625e-05 121.8502655029297 27.27713775634766 121.8502655029297 60.92518615722656 C 121.8502655029297 94.57323455810547 94.57316589355469 121.8503646850586 60.92514038085938 121.8503646850586 C 60.91504669189453 121.8503646850586 60.9048957824707 121.8503570556641 60.89480209350586 121.8503494262695 C 60.89274978637695 121.8503494262695 60.88798904418945 121.8503494262695 60.88593292236328 121.8503494262695 C 60.87832260131836 121.850341796875 60.87034225463867 121.8503341674805 60.86272811889648 121.8503265380859 C 60.86067581176758 121.8503265380859 60.85664749145508 121.8503189086914 60.85459518432617 121.8503189086914 C 60.84450149536133 121.8503112792969 60.83455276489258 121.8502960205078 60.824462890625 121.8502807617188 C 60.82241058349609 121.8502731323242 60.82091903686523 121.8502731323242 60.81886672973633 121.8502655029297 C 60.810546875 121.8502578735352 60.80218887329102 121.8502426147461 60.79386901855469 121.8502197265625 C 60.78976440429688 121.850212097168 60.78886413574219 121.850212097168 60.78475952148438 121.8502044677734 C 60.77608871459961 121.8501815795898 60.76737213134766 121.8501586914063 60.75869750976563 121.8501358032227 C 60.75664520263672 121.8501358032227 60.75631332397461 121.8501281738281 60.7542610168457 121.8501281738281 C 60.74417495727539 121.85009765625 60.73379135131836 121.8500671386719 60.72370529174805 121.8500366210938 C 60.72165298461914 121.8500289916992 60.7181396484375 121.8500137329102 60.71608734130859 121.8500061035156 C 60.70830154418945 121.849983215332 60.70041275024414 121.8499526977539 60.692626953125 121.8499221801758 C 60.69057846069336 121.8499145507813 60.68589782714844 121.8498992919922 60.68384552001953 121.8498916625977 C 60.67376327514648 121.849853515625 60.66398620605469 121.8498153686523 60.65390396118164 121.8497695922852 C 60.65185165405273 121.8497619628906 60.6522102355957 121.8497619628906 60.6501579284668 121.8497543334961 C 60.64131164550781 121.8497161865234 60.63215255737305 121.8496704101563 60.62330627441406 121.8496246337891 C 60.61920547485352 121.849609375 60.61819458007813 121.8496017456055 60.61409378051758 121.8495788574219 C 60.60630798339844 121.8495407104492 60.59858703613281 121.8495025634766 60.59080505371094 121.8494644165039 C 60.58670425415039 121.8494415283203 60.58732604980469 121.8494415283203 60.58322525024414 121.8494186401367 C 60.57332229614258 121.849365234375 60.56319046020508 121.8493118286133 60.55328750610352 121.849250793457 C 60.54918670654297 121.8492279052734 60.55039978027344 121.849235534668 60.54629516601563 121.8492050170898 C 60.53833770751953 121.8491592407227 60.53034973144531 121.8491058349609 60.52239227294922 121.8490600585938 C 60.51829147338867 121.8490295410156 60.51717758178711 121.8490219116211 60.51307678222656 121.8489990234375 C 60.50423812866211 121.8489379882813 60.49546432495117 121.848876953125 60.48662185668945 121.8488159179688 C 60.48457336425781 121.8488006591797 60.48485565185547 121.8488006591797 60.48280715942383 121.8487854003906 C 60.47290420532227 121.8487167358398 60.46290969848633 121.8486404418945 60.45301055908203 121.8485717773438 C 60.45096206665039 121.8485565185547 60.44581985473633 121.8485107421875 60.44377136230469 121.8484954833984 C 60.43634796142578 121.8484420776367 60.42877960205078 121.8483810424805 60.42135620117188 121.8483200073242 C 60.41930770874023 121.8483047485352 60.41428756713867 121.8482666015625 60.41223907470703 121.8482437133789 C 60.40251541137695 121.8481674194336 60.39272308349609 121.8480834960938 60.38300323486328 121.8479995727539 C 60.38095092773438 121.8479843139648 60.37822341918945 121.8479537963867 60.37617111206055 121.8479385375977 C 60.36822128295898 121.8478698730469 60.36028289794922 121.8477935791016 60.35233306884766 121.8477249145508 C 60.34823226928711 121.8476867675781 60.34686660766602 121.8476715087891 60.34276580810547 121.8476333618164 C 60.33481597900391 121.8475570678711 60.32724761962891 121.8474884033203 60.31929397583008 121.847412109375 C 60.3151969909668 121.8473663330078 60.31591415405273 121.8473815917969 60.31181716918945 121.8473358154297 C 60.30209732055664 121.8472442626953 60.29240417480469 121.8471450805664 60.28268814086914 121.8470458984375 C 60.27859115600586 121.8470001220703 60.27706527709961 121.8469848632813 60.27296829223633 121.8469390869141 C 60.26607894897461 121.8468704223633 60.25901412963867 121.846794128418 60.25212478637695 121.8467178344727 C 60.24802780151367 121.8466720581055 60.24569320678711 121.8466491699219 60.24159622192383 121.8466033935547 C 60.23258590698242 121.8465042114258 60.22367858886719 121.8464050292969 60.21467208862305 121.846305847168 C 60.21262359619141 121.8462829589844 60.2136344909668 121.8462905883789 60.21158599853516 121.8462677001953 C 60.20169830322266 121.8461532592773 60.19170761108398 121.8460388183594 60.18181610107422 121.8459167480469 C 60.17977142333984 121.8458938598633 60.17454528808594 121.845832824707 60.1724967956543 121.8458099365234 C 60.1649055480957 121.8457107543945 60.15728759765625 121.8456192016602 60.14969635009766 121.8455276489258 C 60.14764785766602 121.8454971313477 60.14371490478516 121.8454513549805 60.14166641235352 121.8454284667969 C 60.13178253173828 121.8452987670898 60.12182235717773 121.8451766967773 60.11193466186523 121.8450469970703 C 60.10988616943359 121.8450164794922 60.10689163208008 121.8449783325195 60.10484313964844 121.8449478149414 C 60.09689712524414 121.8448486328125 60.08927536010742 121.8447418212891 60.08133316040039 121.8446350097656 C 60.07723617553711 121.8445816040039 60.07547378540039 121.8445587158203 60.07138061523438 121.8444976806641 C 60.06361389160156 121.8443908691406 60.05583572387695 121.8442840576172 60.04806900024414 121.8441772460938 C 60.0460205078125 121.8441467285156 60.04305648803711 121.844108581543 60.04100799560547 121.8440780639648 C 60.03112411499023 121.8439331054688 60.02138900756836 121.8437957763672 60.01150512695313 121.8436508178711 C 60.00946044921875 121.843620300293 60.00473403930664 121.8435516357422 60.002685546875 121.8435211181641 C 59.99527359008789 121.8434066772461 59.98813247680664 121.8432998657227 59.98072052001953 121.8431854248047 C 59.97867202758789 121.8431549072266 59.97283554077148 121.8430709838867 59.97079086303711 121.8430404663086 C 59.95085144042969 121.8427276611328 59.93087387084961 121.842414855957 59.91093826293945 121.8420867919922 C 59.90889358520508 121.8420562744141 59.90365600585938 121.8419723510742 59.901611328125 121.8419342041016 C 59.89402389526367 121.8418121337891 59.88667297363281 121.8416900634766 59.87908554077148 121.8415603637695 C 59.87499618530273 121.8414916992188 59.87466049194336 121.8414840698242 59.87057113647461 121.8414154052734 C 59.86087036132813 121.8412551879883 59.85100936889648 121.8410797119141 59.84130859375 121.8409118652344 C 59.83721923828125 121.8408432006836 59.83739471435547 121.8408432006836 59.83330535888672 121.8407745361328 C 59.82572174072266 121.8406372070313 59.81811141967773 121.8405075073242 59.81052780151367 121.8403701782227 C 59.80643844604492 121.8402938842773 59.80511856079102 121.8402709960938 59.80102920532227 121.8401947021484 C 59.79238891601563 121.8400421142578 59.78391647338867 121.8398895263672 59.7752799987793 121.839729309082 C 59.77323532104492 121.8396911621094 59.77274703979492 121.8396835327148 59.77070236206055 121.8396453857422 C 59.76065063476563 121.8394546508789 59.7502326965332 121.8392562866211 59.74018478393555 121.8390655517578 C 59.73814010620117 121.8390274047852 59.73487854003906 121.8389663696289 59.73283767700195 121.8389282226563 C 59.72507858276367 121.8387756347656 59.7174072265625 121.8386306762695 59.70965194702148 121.8384780883789 C 59.70760726928711 121.8384399414063 59.7025260925293 121.8383407592773 59.70048141479492 121.8382949829102 C 59.69061279296875 121.8381042480469 59.68062973022461 121.8379058837891 59.67076110839844 121.8377075195313 C 59.66871643066406 121.8376617431641 59.66902542114258 121.8376693725586 59.6669807434082 121.8376235961914 C 59.65816879272461 121.8374481201172 59.64908599853516 121.8372650146484 59.64027404785156 121.8370819091797 C 59.63618469238281 121.8369979858398 59.63536071777344 121.8369750976563 59.63127517700195 121.8368911743164 C 59.6231689453125 121.8367233276367 59.61528015136719 121.836555480957 59.607177734375 121.8363876342773 C 59.60309219360352 121.8363037109375 59.60472106933594 121.8363342285156 59.60063552856445 121.8362503051758 C 59.59059143066406 121.8360366821289 59.5808219909668 121.835823059082 59.57078170776367 121.8356018066406 C 59.56669616699219 121.8355178833008 59.56719589233398 121.8355255126953 59.5631103515625 121.8354339599609 C 59.55518341064453 121.8352584838867 59.54734420776367 121.835090637207 59.5394172668457 121.8349151611328 C 59.53737640380859 121.8348693847656 59.5329475402832 121.8347702026367 59.53090667724609 121.8347244262695 C 59.52174758911133 121.8345184326172 59.51250839233398 121.8343048095703 59.50334930419922 121.834098815918 C 59.50130462646484 121.8340530395508 59.50248718261719 121.8340759277344 59.50044631958008 121.8340301513672 C 59.49040603637695 121.8338012695313 59.48023986816406 121.8335647583008 59.47019958496094 121.8333282470703 C 59.46815872192383 121.8332824707031 59.4642448425293 121.8331909179688 59.46220397949219 121.833137512207 C 59.45427703857422 121.8329544067383 59.44638442993164 121.832763671875 59.43846130371094 121.8325729370117 C 59.43642044067383 121.8325271606445 59.43252182006836 121.8324356079102 59.43048095703125 121.8323822021484 C 59.42026901245117 121.8321380615234 59.41020202636719 121.8318939208984 59.39999389648438 121.8316421508789 C 59.39794921875 121.8315963745117 59.39971923828125 121.8316345214844 59.39767837524414 121.8315887451172 C 59.38834762573242 121.8313598632813 59.37850952148438 121.8311157226563 59.36918258666992 121.8308792114258 C 59.36713790893555 121.8308258056641 59.3641357421875 121.8307495117188 59.36209487915039 121.8307037353516 C 59.35311508178711 121.8304748535156 59.34405517578125 121.8302459716797 59.33507919311523 121.8300170898438 C 59.33303833007813 121.829963684082 59.33284378051758 121.8299560546875 59.33080291748047 121.8299026489258 C 59.32059478759766 121.8296432495117 59.31060409545898 121.8293838500977 59.30039596557617 121.8291168212891 C 59.29835510253906 121.8290634155273 59.29494094848633 121.828971862793 59.29290008544922 121.8289184570313 C 59.28498077392578 121.8287124633789 59.27695846557617 121.828498840332 59.26903915405273 121.8282852172852 C 59.26699829101563 121.8282318115234 59.26303482055664 121.828125 59.26099395751953 121.8280715942383 C 59.25114059448242 121.8278045654297 59.24167251586914 121.8275527954102 59.2318229675293 121.8272857666016 C 59.2318229675293 121.8272857666016 59.23034286499023 121.8272399902344 59.23034286499023 121.8272399902344 C 59.22013854980469 121.8269653320313 59.21015548706055 121.8266906738281 59.199951171875 121.8264083862305 C 59.19791412353516 121.8263473510742 59.1939582824707 121.8262405395508 59.19192123413086 121.8261795043945 C 59.18383026123047 121.8259506225586 59.17604446411133 121.8257369995117 59.16795349121094 121.8255081176758 C 59.16591262817383 121.8254470825195 59.1628532409668 121.8253631591797 59.16081237792969 121.8253021240234 C 59.15043640136719 121.8250122070313 59.14037322998047 121.8247222900391 59.13000106811523 121.8244171142578 C 59.12796020507813 121.8243637084961 59.12885665893555 121.8243865966797 59.1268196105957 121.8243255615234 C 59.11767196655273 121.8240661621094 59.10840606689453 121.8237915039063 59.09926223754883 121.8235244750977 C 59.09518432617188 121.8234024047852 59.0957145690918 121.8234176635742 59.09163665771484 121.8232955932617 C 59.08249282836914 121.8230285644531 59.07371520996094 121.8227691650391 59.0645751953125 121.8224945068359 C 59.06253433227539 121.8224334716797 59.06298065185547 121.8224487304688 59.06093978881836 121.822380065918 C 59.05091857910156 121.8220825195313 59.04072189331055 121.8217697143555 59.03070068359375 121.8214645385742 C 59.02866363525391 121.821403503418 59.0246696472168 121.8212814331055 59.02262878417969 121.8212203979492 C 59.01454544067383 121.8209686279297 59.00678634643555 121.8207321166992 58.99869918823242 121.8204803466797 C 58.99666213989258 121.8204193115234 58.99337768554688 121.8203125 58.99134063720703 121.8202514648438 C 58.97095108032227 121.8196182250977 58.95058441162109 121.8189697265625 58.93020248413086 121.8183135986328 C 58.92816543579102 121.8182525634766 58.9241828918457 121.8181228637695 58.92214584350586 121.8180541992188 C 58.91423797607422 121.8178024291992 58.90604400634766 121.8175354003906 58.89813995361328 121.8172760009766 C 58.89610290527344 121.8172073364258 58.89284515380859 121.8171005249023 58.89080810546875 121.8170394897461 C 58.880615234375 121.8167037963867 58.87075805664063 121.8163757324219 58.86056900024414 121.8160400390625 C 58.8585319519043 121.8159713745117 58.85745239257813 121.8159332275391 58.85541534423828 121.8158645629883 C 58.84680557250977 121.8155746459961 58.83863067626953 121.815299987793 58.83002471923828 121.8150100708008 C 58.82595062255859 121.8148727416992 58.82574081420898 121.8148651123047 58.8216667175293 121.8147277832031 C 58.81235885620117 121.8144149780273 58.8033447265625 121.8141021728516 58.79403686523438 121.8137817382813 C 58.79199981689453 121.8137130737305 58.7933464050293 121.8137588500977 58.79130935668945 121.8136901855469 C 58.78112030029297 121.8133392333984 58.77095031738281 121.81298828125 58.76076507568359 121.812629699707 C 58.75873184204102 121.8125610351563 58.75530242919922 121.8124389648438 58.75326919555664 121.812370300293 C 58.74501419067383 121.8120803833008 58.73700714111328 121.8117980957031 58.72875595092773 121.8115081787109 C 58.72671890258789 121.8114318847656 58.72399520874023 121.8113403320313 58.72195816040039 121.8112640380859 C 58.71160125732422 121.8108978271484 58.70130157470703 121.8105316162109 58.69094467163086 121.8101577758789 C 58.69094467163086 121.8101577758789 58.68970108032227 121.8101119995117 58.68970108032227 121.8101119995117 C 58.67987060546875 121.8097534179688 58.66985702514648 121.8093948364258 58.66002655029297 121.8090362548828 C 58.65798950195313 121.8089599609375 58.65530014038086 121.8088607788086 58.65326690673828 121.8087844848633 C 58.64448928833008 121.808464050293 58.63592910766602 121.8081512451172 58.62715530395508 121.8078231811523 C 58.62511825561523 121.807746887207 58.62392807006836 121.8077011108398 58.62189102172852 121.8076248168945 C 58.61153793334961 121.807243347168 58.60088729858398 121.8068466186523 58.59053421020508 121.8064575195313 C 58.59053421020508 121.8064575195313 58.58739471435547 121.8063354492188 58.58739471435547 121.8063354492188 C 58.57791900634766 121.8059768676758 58.56858062744141 121.8056259155273 58.55910873413086 121.8052597045898 C 58.55707168579102 121.8051834106445 58.55530166625977 121.8051147460938 58.55326843261719 121.8050384521484 C 58.53256225585938 121.8042449951172 58.51174163818359 121.8034362792969 58.49104690551758 121.8026275634766 C 58.48900985717773 121.8025436401367 58.48676300048828 121.8024597167969 58.4847297668457 121.802375793457 C 58.47578430175781 121.8020248413086 58.46675109863281 121.8016662597656 58.45780563354492 121.8013076782227 C 58.45577239990234 121.8012313842773 58.45537567138672 121.8012161254883 58.45334243774414 121.8011322021484 C 58.44264221191406 121.8007049560547 58.43205261230469 121.8002777099609 58.42135620117188 121.7998504638672 C 58.42135620117188 121.7998504638672 58.42068862915039 121.7998199462891 58.42068862915039 121.7998199462891 C 58.41051864624023 121.7994079589844 58.4001579284668 121.7989883422852 58.38998794555664 121.7985687255859 C 58.38998794555664 121.7985687255859 58.38507080078125 121.7983703613281 58.38507080078125 121.7983703613281 C 58.37525177001953 121.797966003418 58.36511993408203 121.7975463867188 58.35530090332031 121.7971420288086 C 58.35326766967773 121.7970581054688 58.35543823242188 121.7971496582031 58.3534049987793 121.7970657348633 C 58.34271240234375 121.7966232299805 58.33198165893555 121.7961730957031 58.32129287719727 121.7957229614258 C 58.32129287719727 121.7957229614258 58.31782913208008 121.7955780029297 58.31782913208008 121.7955780029297 C 58.30836486816406 121.7951736450195 58.29888153076172 121.7947769165039 58.2894172668457 121.7943725585938 C 58.28738784790039 121.7942886352539 58.28667831420898 121.7942581176758 58.28464508056641 121.7941665649414 C 58.26361465454102 121.7932739257813 58.24248504638672 121.7923583984375 58.22145843505859 121.7914428710938 C 58.21942901611328 121.7913513183594 58.21826553344727 121.7913055419922 58.21623611450195 121.7912139892578 C 58.20624923706055 121.7907791137695 58.19637680053711 121.7903442382813 58.1863899230957 121.7899017333984 C 58.1863899230957 121.7899017333984 58.18535232543945 121.7898559570313 58.18535232543945 121.7898559570313 C 58.1638069152832 121.7889022827148 58.14190673828125 121.7879180908203 58.12036514282227 121.7869415283203 C 58.12036514282227 121.7869415283203 58.11645126342773 121.7867660522461 58.11645126342773 121.7867660522461 C 58.09491348266602 121.7857894897461 58.07324981689453 121.784797668457 58.05171585083008 121.7837982177734 C 58.05171585083008 121.7837982177734 58.05006790161133 121.7837219238281 58.05006790161133 121.7837219238281 C 58.03991317749023 121.7832489013672 58.02969741821289 121.7827682495117 58.0195426940918 121.7822952270508 C 58.01751327514648 121.7821960449219 58.01828765869141 121.7822341918945 58.01625823974609 121.7821426391602 C 57.99472427368164 121.7811279296875 57.97343826293945 121.7801132202148 57.95191192626953 121.7790832519531 C 57.94988250732422 121.7789840698242 57.95038986206055 121.7790069580078 57.94836044311523 121.7789077758789 C 57.91598510742188 121.7773513793945 57.88351440429688 121.775764465332 57.85115051269531 121.7741546630859 C 57.85115051269531 121.7741546630859 57.84821319580078 121.7740097045898 57.84821319580078 121.7740097045898 C 57.82634735107422 121.7729263305664 57.80448150634766 121.7718200683594 57.78261566162109 121.7707138061523 C 57.78261566162109 121.7707138061523 57.78195190429688 121.7706756591797 57.78195190429688 121.7706756591797 C 57.77111053466797 121.7701263427734 57.76003265380859 121.7695617675781 57.74919128417969 121.7690048217773 C 57.74919128417969 121.7690048217773 57.74860382080078 121.7689743041992 57.74860382080078 121.7689743041992 C 57.72657775878906 121.7678451538086 57.70485687255859 121.766716003418 57.68283081054688 121.7655639648438 C 57.68283081054688 121.7655639648438 57.68028259277344 121.7654266357422 57.68028259277344 121.7654266357422 C 57.64742279052734 121.7637023925781 57.61456298828125 121.7619552612305 57.58171081542969 121.7601776123047 C 57.58171081542969 121.7601776123047 57.58042907714844 121.7601089477539 57.58042907714844 121.7601089477539 C 57.55824279785156 121.758903503418 57.53628540039063 121.7577056884766 57.51409912109375 121.7564849853516 C 57.51409912109375 121.7564849853516 57.51364135742188 121.7564544677734 57.51364135742188 121.7564544677734 C 57.48045349121094 121.7546234130859 57.4471435546875 121.7527618408203 57.41397094726563 121.7508773803711 C 57.41397094726563 121.7508773803711 57.41268920898438 121.7508010864258 57.41268920898438 121.7508010864258 C 55.71428680419922 121.6542663574219 54.03460693359375 121.4881591796875 52.37624359130859 121.2552871704102 C 49.64163970947266 120.8713073730469 47.73611450195313 118.3431854248047 48.1201171875 115.6085891723633 C 48.47100067138672 113.1096572875977 50.61198425292969 111.3032608032227 53.06523895263672 111.3032608032227 C 53.29660034179688 111.3032608032227 53.53114318847656 111.3193664550781 53.76681518554688 111.3524627685547 C 56.10576629638672 111.6808853149414 58.49563980102539 111.8503570556641 60.92514038085938 111.8503570556641 C 89.00534057617188 111.8503570556641 111.8502655029297 89.00541687011719 111.8502655029297 60.92518615722656 C 111.8502655029297 32.84493255615234 89.00534057617188 9.999984741210938 60.92514038085938 9.999984741210938 C 58.16371536254883 9.999984741210938 55.92514038085938 7.76141357421875 55.92514038085938 4.999984741210938 C 55.92514038085938 2.238563537597656 58.16371536254883 -1.52587890625e-05 60.92514038085938 -1.52587890625e-05 C 60.92514038085938 -1.52587890625e-05 60.92514038085938 -1.52587890625e-05 60.92514038085938 -1.52587890625e-05 Z"/>
    </g>
    <text id="_30_" data-name="30%" class="cls-3" transform="translate(59.13 69.024)"><tspan x="-26.551" y="0">30%</tspan></text>
  </g>
</svg>
