<svg id="Image" xmlns="http://www.w3.org/2000/svg" xmlns:xlink="http://www.w3.org/1999/xlink" viewBox="0 0 630.147 454.267">
  <defs>
    <style>
      .cls-1, .cls-2 {
        fill: #f4627c;
      }

      .cls-1, .cls-16, .cls-3 {
        opacity: 0.1;
      }

      .cls-4 {
        fill: #ffd037;
      }

      .cls-5 {
        fill: #a8a8a8;
      }

      .cls-6 {
        opacity: 0.2;
      }

      .cls-7 {
        fill: none;
        stroke: #535461;
        stroke-miterlimit: 10;
        stroke-width: 2px;
      }

      .cls-8 {
        fill: url(#linear-gradient);
      }

      .cls-9 {
        fill: #f8bdc5;
      }

      .cls-10 {
        fill: #474463;
      }

      .cls-11 {
        fill: #575988;
      }

      .cls-12 {
        fill: #ffc1c8;
      }

      .cls-13 {
        fill: #fff;
        opacity: 0.3;
      }

      .cls-14 {
        fill: #dce6f2;
      }

      .cls-15 {
        fill: #794f6a;
      }
    </style>
    <linearGradient id="linear-gradient" x1="0.5" y1="1.001" x2="0.5" gradientUnits="objectBoundingBox">
      <stop offset="0" stop-color="gray" stop-opacity="0.251"/>
      <stop offset="0.54" stop-color="gray" stop-opacity="0.122"/>
      <stop offset="1" stop-color="gray" stop-opacity="0.102"/>
    </linearGradient>
  </defs>
  <g id="undraw_fatherhood_7i19_1_" data-name="undraw_fatherhood_7i19 (1)" transform="translate(0)">
    <path id="Path_1" data-name="Path 1" class="cls-1" d="M63.3,484.53c9.971,42.618,31.079,79.459,64.433,97.339,69.333,37.11,225.682,17.966,342.366-4.021a267.2,267.2,0,0,0,151.945-86.857Z" transform="translate(-56.488 -237.565)"/>
    <path id="Path_2" data-name="Path 2" class="cls-1" d="M687.151,100.916H623.125a5.531,5.531,0,0,1,0-11.062h11.068a5.537,5.537,0,0,1,0-11.068h-7.9a5.537,5.537,0,0,1,0-11.068h33.417a88.416,88.416,0,0,0-26.071-7.185c-91.118-11.7-123.651-3.957-135.127,4.021a127.6,127.6,0,0,1-46.834,20.528c-56.22,11.6-161.358,25.554-256.653-4.469C147.66,65.679,112.462,90.905,91.36,133.041h606.9c-.793-12.246-3.165-23.549-7.519-33.451A5.491,5.491,0,0,1,687.151,100.916Z" transform="translate(-68.431 -54.557)"/>
    <path id="Path_3" data-name="Path 3" class="cls-1" d="M52.819,329.66A282.079,282.079,0,0,0,55.3,404.013l562.127,20.562a264.128,264.128,0,0,0,39.057-59.568ZM275.147,382.7H264.079a5.531,5.531,0,0,1,0,11.062H200.053a5.531,5.531,0,0,1,0-11.062h11.068a5.537,5.537,0,0,1,0-11.068h-7.9a5.537,5.537,0,0,1,0-11.068h64.025a5.537,5.537,0,0,1,0,11.068h7.9a5.537,5.537,0,0,1,0,11.068Z" transform="translate(-51.44 -171.649)"/>
    <path id="Path_4" data-name="Path 4" class="cls-1" d="M682.392,191.84,68.687,206.774C61.22,225.963,56.3,247.646,54,270.144H671.64a262.538,262.538,0,0,0,8.92-40.4A191.392,191.392,0,0,0,682.392,191.84Zm-503.8,48.914H167.525a5.531,5.531,0,1,1,0,11.062H103.5a5.531,5.531,0,0,1,0-11.062h11.068a5.537,5.537,0,0,1,0-11.068h-7.9a5.537,5.537,0,0,1,0-11.068h64.025a5.537,5.537,0,0,1,0,11.068h7.9a5.537,5.537,0,0,1,0,11.068Z" transform="translate(-52.53 -112.989)"/>
    <ellipse id="Ellipse_1" data-name="Ellipse 1" class="cls-1" cx="200.358" cy="10.844" rx="200.358" ry="10.844" transform="translate(123.375 432.579)"/>
    <path id="Path_5" data-name="Path 5" class="cls-2" d="M898.219,687.74s3.153,4.13-1.459,10.339-8.415,11.488-6.892,15.376c0,0,6.956-11.574,12.636-11.734S904.445,694.7,898.219,687.74Z" transform="translate(-408.153 -324.057)"/>
    <path id="Path_6" data-name="Path 6" class="cls-3" d="M898.361,687.74a5.33,5.33,0,0,1,.643,1.292c5.526,6.5,8.466,12.556,3.159,12.705-4.951.144-10.884,8.989-12.3,11.223a4.438,4.438,0,0,0,.167.511s6.956-11.574,12.636-11.734S904.587,694.7,898.361,687.74Z" transform="translate(-408.295 -324.057)"/>
    <path id="Path_7" data-name="Path 7" class="cls-4" d="M914.329,696.211c0,1.453-.161,2.631-.362,2.631s-.368-1.177-.368-2.631.207-.77.408-.77S914.329,694.757,914.329,696.211Z" transform="translate(-418.399 -327.267)"/>
    <path id="Path_8" data-name="Path 8" class="cls-4" d="M916.526,699.18c-1.275.695-2.384,1.114-2.481.936s.862-.885,2.137-1.58.77-.19.867,0S917.8,698.485,916.526,699.18Z" transform="translate(-418.586 -328.501)"/>
    <path id="Path_9" data-name="Path 9" class="cls-2" d="M870.39,687.74s-3.153,4.13,1.459,10.339,8.409,11.488,6.892,15.376c0,0-6.961-11.574-12.636-11.734S864.158,694.7,870.39,687.74Z" transform="translate(-396.993 -324.057)"/>
    <path id="Path_10" data-name="Path 10" class="cls-3" d="M870.381,687.74a5.086,5.086,0,0,0-.643,1.292c-5.526,6.5-8.472,12.556-3.159,12.705,4.945.144,10.913,8.989,12.3,11.223-.046.172-.1.339-.167.511,0,0-6.961-11.574-12.636-11.734S864.149,694.7,870.381,687.74Z" transform="translate(-396.984 -324.057)"/>
    <path id="Path_11" data-name="Path 11" class="cls-4" d="M865.43,696.211c0,1.453.161,2.631.362,2.631s.368-1.177.368-2.631-.207-.77-.408-.77S865.43,694.757,865.43,696.211Z" transform="translate(-397.897 -327.267)"/>
    <path id="Path_12" data-name="Path 12" class="cls-4" d="M861.346,699.18c1.275.695,2.389,1.114,2.487.936s-.862-.885-2.137-1.58-.77-.19-.867,0S860.071,698.485,861.346,699.18Z" transform="translate(-395.829 -328.501)"/>
    <path id="Path_13" data-name="Path 13" class="cls-5" d="M867.18,728.06s8.822-.276,11.487-2.166,13.572-4.158,14.233-1.149,13.256,15.1,3.3,15.181-23.142-1.551-25.8-3.165S867.18,728.06,867.18,728.06Z" transform="translate(-398.642 -339.185)"/>
    <path id="Path_14" data-name="Path 14" class="cls-6" d="M896.374,742.43c-9.959.08-23.141-1.551-25.8-3.165-2.022-1.235-2.826-5.652-3.1-7.685h-.293s.574,7.111,3.211,8.731,15.835,3.245,25.8,3.165c2.872,0,3.871-1.045,3.814-2.562C899.608,741.844,898.51,742.413,896.374,742.43Z" transform="translate(-398.646 -342.717)"/>
    <path id="Path_15" data-name="Path 15" class="cls-2" d="M304.853,729.331a6.739,6.739,0,0,0,2.206-3.326,2.98,2.98,0,0,0-1.539-3.383c-1.413-.54-2.924.442-4.072,1.43s-2.453,2.12-3.952,1.907a6.014,6.014,0,0,0,1.861-5.635,2.366,2.366,0,0,0-.517-1.149c-.787-.839-2.206-.482-3.148.178-2.987,2.1-3.82,6.163-3.837,9.81a18.438,18.438,0,0,1-.052-4.021,4.154,4.154,0,0,0-1.516-3.578,4.6,4.6,0,0,0-2.3-.54,4.8,4.8,0,0,0-3.756,1.063c-1.149,1.224-.844,3.268.149,4.6a14.9,14.9,0,0,0,3.883,3.113,8.617,8.617,0,0,1,2.78,2.648,3.311,3.311,0,0,1,.207.477h8.415A23.42,23.42,0,0,0,304.853,729.331Z" transform="translate(-150.21 -337.229)"/>
    <path id="Path_16" data-name="Path 16" class="cls-7" d="M201.893,688.181s-8.076-27.4,1.511-47.57a43.284,43.284,0,0,0,3.515-27.162,72.5,72.5,0,0,0-3.843-12.74" transform="translate(-114.124 -287.015)"/>
    <path id="Path_17" data-name="Path 17" class="cls-2" d="M207.649,574.141c0,3.36-6.077,13.1-6.077,13.1s-6.083-9.764-6.083-13.1a6.083,6.083,0,0,1,12.159,0Z" transform="translate(-112.752 -273.197)"/>
    <path id="Path_18" data-name="Path 18" class="cls-2" d="M225.1,604.047c-1.821,2.82-12.223,7.691-12.223,7.691s.19-11.487,2.016-14.3a6.083,6.083,0,0,1,10.207,6.611Z" transform="translate(-120.154 -284.499)"/>
    <path id="Path_19" data-name="Path 19" class="cls-2" d="M222.7,657.717c-3,1.511-14.434.465-14.434.465s5.962-9.816,8.96-11.327a6.082,6.082,0,1,1,5.474,10.862Z" transform="translate(-118.191 -306.378)"/>
    <path id="Path_20" data-name="Path 20" class="cls-2" d="M212.907,699.713c-2.7,2-14.147,2.872-14.147,2.872s4.216-10.677,6.892-12.676a6.083,6.083,0,1,1,7.231,9.764Z" transform="translate(-114.144 -324.393)"/>
    <path id="Path_21" data-name="Path 21" class="cls-2" d="M189.2,617.6c2.407,2.338,13.63,4.767,13.63,4.767s-2.751-11.148-5.169-13.492a6.083,6.083,0,1,0-8.472,8.725Z" transform="translate(-109.236 -289.711)"/>
    <path id="Path_22" data-name="Path 22" class="cls-2" d="M177.09,665.858c3,1.51,14.434.465,14.434.465s-5.962-9.81-8.96-11.327a6.082,6.082,0,1,0-5.474,10.862Z" transform="translate(-103.496 -309.843)"/>
    <path id="Path_23" data-name="Path 23" class="cls-2" d="M173.692,715.446c2.7,1.993,14.141,2.872,14.141,2.872s-4.21-10.678-6.892-12.676a6.083,6.083,0,0,0-7.231,9.764Z" transform="translate(-102.534 -331.241)"/>
    <path id="Path_24" data-name="Path 24" class="cls-2" d="M207.649,574.141c0,3.36-6.077,13.1-6.077,13.1s-6.083-9.764-6.083-13.1a6.083,6.083,0,0,1,12.159,0Z" transform="translate(-112.752 -273.197)"/>
    <path id="Path_25" data-name="Path 25" class="cls-2" d="M225.1,604.047c-1.821,2.82-12.223,7.691-12.223,7.691s.19-11.487,2.016-14.3a6.083,6.083,0,0,1,10.207,6.611Z" transform="translate(-120.154 -284.499)"/>
    <path id="Path_26" data-name="Path 26" class="cls-2" d="M222.7,657.717c-3,1.511-14.434.465-14.434.465s5.962-9.816,8.96-11.327a6.082,6.082,0,1,1,5.474,10.862Z" transform="translate(-118.191 -306.378)"/>
    <path id="Path_27" data-name="Path 27" class="cls-2" d="M212.907,699.713c-2.7,2-14.147,2.872-14.147,2.872s4.216-10.677,6.892-12.676a6.083,6.083,0,1,1,7.231,9.764Z" transform="translate(-114.144 -324.393)"/>
    <path id="Path_28" data-name="Path 28" class="cls-2" d="M189.2,617.6c2.407,2.338,13.63,4.767,13.63,4.767s-2.751-11.148-5.169-13.492a6.083,6.083,0,1,0-8.472,8.725Z" transform="translate(-109.236 -289.711)"/>
    <path id="Path_29" data-name="Path 29" class="cls-2" d="M177.09,665.858c3,1.51,14.434.465,14.434.465s-5.962-9.81-8.96-11.327a6.082,6.082,0,1,0-5.474,10.862Z" transform="translate(-103.496 -309.843)"/>
    <path id="Path_30" data-name="Path 30" class="cls-2" d="M173.692,715.446c2.7,1.993,14.141,2.872,14.141,2.872s-4.21-10.678-6.892-12.676a6.083,6.083,0,0,0-7.231,9.764Z" transform="translate(-102.534 -331.241)"/>
    <path id="Path_31" data-name="Path 31" class="cls-5" d="M171,742.9s9.833-1.953,12.452-4.555,14.417-7.157,15.726-3.906,17.691,14.313,6.548,16.266-26.209,2.6-29.483,1.3S171,742.9,171,742.9Z" transform="translate(-102.328 -343.452)"/>
    <path id="Path_32" data-name="Path 32" class="cls-6" d="M205.744,756.533c-11.137,1.953-26.209,2.6-29.483,1.3-2.493-.994-4.227-5.744-4.911-7.967l-.35.075s1.97,7.806,5.244,9.1,18.345.649,29.483-1.3c3.217-.574,4.135-1.89,3.791-3.561C209.259,755.275,208.139,756.113,205.744,756.533Z" transform="translate(-102.328 -350.501)"/>
    <path id="Path_33" data-name="Path 33" class="cls-8" d="M596.756,235.884c3.084-3.446,1.878-8.817,1.878-8.817s-14.555-37.093-16.169-37.5S576.8,179.8,576.8,179.8s-38.81-36.892-40.206-36.892-15.565-10.189-17.381-10.39a23.769,23.769,0,0,1-7.685-2.872c-3.033-1.648-33.762.207-34.974,1.631s-6.892,2.447-6.892,2.447-11.522.609-13.142,2.648-13.538,3.119-13.538,3.119-5.864,2.183,2.1,7.978h0c-2.55.4-5.531.712-8.558.931-.758.052-1.528.1-2.3.144h-.454a7.513,7.513,0,0,0-2.826-3.8,23.705,23.705,0,0,0-2.682-1.246,21.412,21.412,0,0,1-3.975-2.728A130.259,130.259,0,0,0,405.5,128.322a9,9,0,0,0-3.349-1.258c-2.464-.236-4.664,1.493-7.076,2.073-4.239,1.017-8.512-1.568-12.872-1.608-5.445-.052-10.4,4.187-12.062,9.414-.615,1.936-.89,4.09-2.217,5.623-1.723,2-4.635,2.3-7,3.486a10.557,10.557,0,0,0-5.675,9.357v.046a5.413,5.413,0,0,0,.052.913c.27,2.458,1.407,4.727,2.24,7.059a29.194,29.194,0,0,1,1.608,7.409.381.381,0,0,1,0,.08c.034.419.063.839.08,1.264v1.488c0,2.194-.075,4.405-.069,6.6v1.35a7.741,7.741,0,0,0,.034.885v.31a7.809,7.809,0,0,0,.069.816,1.443,1.443,0,0,0,.029.35,5.92,5.92,0,0,0,.1.781l.052.368c.04.258.086.517.132.775l.069.356c.057.276.126.574.2.827.029.1.046.19.069.287q.155.574.345,1.1a16.186,16.186,0,0,0,10.718,10.1,9.954,9.954,0,0,0,2.843.356,5.908,5.908,0,0,0,4.394-1.752c.253.287.5.574.764.862a34.422,34.422,0,0,0,55.9-7.467c.6-.132,1.2-.253,1.8-.368,1.045-.2,2.1-.379,3.153-.574l1.017-.161h0l.4-.069c5.169-.816,10.189-1.361,13.785-1.723l-14.21,1.763s-3.446,16.548-4.44,18.38,3.446,4.888,3.446,4.888,3.843,4.687,3.843,6.117,4.446,5.5,5.658,7.743a3.446,3.446,0,0,0,.574.775,8.127,8.127,0,0,0-2.447,1.488c-2.809,2.659-1.872,7.323-3.159,10.976a18.616,18.616,0,0,1-4.107,5.968,8.142,8.142,0,0,0-1.447,2,4.93,4.93,0,0,0-.385,1.539h0a7.541,7.541,0,0,0-.034.884v.1a3.333,3.333,0,0,0,.046.678v.293c.281,2.4,1.1,4.721,1.344,7.122s-.052,4.819.442,7.157a10.675,10.675,0,0,0,.793,2.361l-8.225,9.19s-.052.454-.069,1.2c-6.858,5.692-17.461,16.433-13.676,25.9q.62,1.556,1.149,2.981c-2.786,1.775-3.7,3.883.471,5.985.661.333,1.3.62,1.924.879,2.142,6.289,2.981,8.041,6.571,3.406.385-.505.833-1.149,1.321-1.844a13.978,13.978,0,0,0,7.978-2.441s14.147-.816,17.806,1.43c1.832,1.149,6.14,1.379,9.954,1.35a104.265,104.265,0,0,0,.574,12.3s-.609,17.323,1.011,20.993,2.516,9.988,2.516,9.988-2.717,6.111-1.1,9.374-1.413,7.949-1.413,7.949v12.022l1.149-.08c-.086.81-.2,1.66-.339,2.47-.333,1.878-.833,3.561-1.6,4.107-2.022,1.453-2.223,9.19-2.223,9.19s-3.234,9.38-2.631,11.011-3.837,4.888-2.826,7.335,3.079,17.932,4.876,22.4-3.664,3.262-3.664,3.262l1.614,11.614s1.62,11.821.408,12.636-8.185,6.726-3.389,10.189c.373.27.752.517,1.149.752a12.441,12.441,0,0,1-.04,1.608c-.092.913-.322,1.643-.833,1.723-1.424.207-4.256,1.631-4.854,1.022s-4.021,1.539-7.467,2.24l-.477.075L442.118,489a31.487,31.487,0,0,0-20.218-.747,7.739,7.739,0,0,0-4.819,2.929,6.337,6.337,0,0,0-.436,5.422c2.16,7.2,16.881,9.684,16.881,9.684s5.1,1.051,11.229,2.441h-.615a6.761,6.761,0,1,0,2.3.419c6.893,1.585,14.526,3.515,17.628,4.876a53.936,53.936,0,0,0,7.082,2.125,6.72,6.72,0,0,0,12.51,2.814c9.379,1.959,18.414,3.619,18.414,3.619l15.089.247h.1a6.729,6.729,0,1,0,.092,0l22.843.373a6.738,6.738,0,1,0,13,.212l20.149.327,4.021-4.423a3.572,3.572,0,0,0,.4-1.384c.121-1.453-.632-3.659-5.778-4.6-.379-.069-10.879.1-20.155.253v-3.641s-.259-2-.419-4.365c-.046-.695-.086-1.419-.1-2.131a5.529,5.529,0,0,0,1.723.787c3.842.615,9.1-10.6,9.1-10.6a58.378,58.378,0,0,1,1.212-11.413c1.212-5.095,3.446-22.217,3.446-22.217l4.859-20.58s2.01-41.987,1-43.618,1.218-4.486,1.218-4.486,1.614-8.966-.81-12.022,1.413-6.117,1.413-6.117,1.011-10.6-1.821-14.669,1.327-6.927,1.327-6.927l1.011-16.508c4.245-4.279,8.081-29.753,8.288-35.255a22.641,22.641,0,0,1,2.022-8.972s2.826-4.279,3.234-7.134,3.446-8.759,3.446-8.759l5.256-19.569c2.119-7.892,1.579-13.727.172-17.886C597.2,236.93,596.98,236.4,596.756,235.884Zm-94.949,1.149c3.234,2.039,2.223,2.648,3.234,3.871s.2,1.017-.609,3.056-.2,1.43.2,3.67.207,2.24.207,2.24l1.011.144-1.407,9.46c-2.3,1.5-3.349,4.371-3.825,7.335-1.356-1.769-2.723-3.607-3.946-5.319a7.844,7.844,0,0,0,.35-3.1c.046-3.446,1.333-6.737,1.924-10.132a25.6,25.6,0,0,0-.327-10.4,15.807,15.807,0,0,0-1.35-3.693c1.31.873,2.969,1.907,4.538,2.895Zm3.636,199.727s2.556-1.723,5.037-3.291c.833,6.048,1.62,12.338,2.177,18.024-.89-1.976-1.511-3.32-1.511-3.32a6.835,6.835,0,0,1-1.562-3.871c-.1-2.217-4.141-7.519-4.141-7.519ZM490.285,227.275a4.894,4.894,0,0,1,2.16,1.683c-.712-.574-1.43-1.149-2.165-1.689Zm-37,75.4c-2.332.735-10.235.626-14.934.35,1.758-3,3.5-6.06,5.055-8.8a18.657,18.657,0,0,0,2.786.5l15.387-13.515a26.5,26.5,0,0,0,17.863-.115l.419.655c.178.287.368.574.574.9l-.385-.626s-5.939,3.538-5.336,5.169-.8,5.7-3.027,10.069c-.574,1.091-1.074,2.171-1.557,3.257C465.1,300.99,455.622,301.943,453.29,302.678Zm29.2,188.3-.086-1.614c.976-.213,1.62-.408,1.62-.408a63.558,63.558,0,0,0-1.011-7.134c-.609-2.447-.293-1.631,2.073-3.446s0-22.4,0-22.4,1.149-1.43,2.969,2.24,3.647,5.91,4.256,6.111-2.43,4.285,0,8.156a23.434,23.434,0,0,1,3.027,8.15s-1.614,6.473.81,9.351a3.56,3.56,0,0,0,1.149.787c0,.534,0,1.1,0,1.637a20.1,20.1,0,0,1-.052,2.188.81.81,0,0,1-1.292.505c-.626-.408-4.595.505-4.325,3.061a18.808,18.808,0,0,1-3.171,2.97l-5.508-1.424Z" transform="translate(-180.75 -85.409)"/>
    <path id="Path_34" data-name="Path 34" class="cls-2" d="M490.342,391.332s-1.924,15.767,13.337,17.381l2.3-10.913-4.807-6.467L494.282,389Z" transform="translate(-238.216 -196.905)"/>
    <path id="Path_35" data-name="Path 35" class="cls-3" d="M494.282,389l-3.94,2.326s-1.924,15.767,13.337,17.38" transform="translate(-238.216 -196.905)"/>
    <path id="Path_36" data-name="Path 36" class="cls-9" d="M506.369,207.177s-10.3.632-20.626,2.343q-1.585.27-3.153.574c-.609.115-1.206.235-1.8.368-5.411,1.114-10.339,2.562-13.211,4.411-3.446,2.211-4.595-3.745-4.7-12.022-.046-2.912.052-6.106.207-9.334.2-3.733.494-7.513.8-10.913.684-7.536,1.47-13.394,1.47-13.394s3.607,0,8.426-.167l1.551-.057c1.511-.057,3.113-.138,4.727-.236.764-.04,1.534-.086,2.3-.144,3.056-.218,6.071-.528,8.616-.93a18.815,18.815,0,0,0,6.106-1.723C502.532,162.7,506.369,207.177,506.369,207.177Z" transform="translate(-226.552 -101.898)"/>
    <path id="Path_37" data-name="Path 37" class="cls-10" d="M614.15,336.512l-2.01,13.343s-4.382,5.457-3.808,8.489S613.96,495.4,613.96,495.4s9.908,56.6,6.467,63.876-.2,24.261-.2,24.261l20.62-3.234,6.892-247.434Z" transform="translate(-288.446 -173.015)"/>
    <path id="Path_38" data-name="Path 38" class="cls-3" d="M614.15,336.512l-2.01,13.343s-4.382,5.457-3.808,8.489S613.96,495.4,613.96,495.4s9.908,56.6,6.467,63.876-.2,24.261-.2,24.261l20.62-3.234,6.892-247.434Z" transform="translate(-288.446 -173.015)"/>
    <path id="Path_39" data-name="Path 39" class="cls-11" d="M667.791,763.735c-.655,1.086-.6,4.279-.419,7,.161,2.337.419,4.325.419,4.325V788.8s-22.033-7.679-34.164-15.766c-5-3.337-6.427-6.439-6.152-8.92.4-3.532,4.25-5.836,6.152-5.836,1.815,0,7.547-3.165,12.246-5.962,3.693-2.188,6.76-4.147,6.76-4.147S669,761.714,667.791,763.735Z" transform="translate(-296.603 -349.778)"/>
    <path id="Path_40" data-name="Path 40" class="cls-3" d="M681.448,763.735c-.655,1.086-.6,4.279-.419,7-4.9-2.3-20.069-17.013-21.5-18.414,3.693-2.188,6.76-4.147,6.76-4.147S682.66,761.714,681.448,763.735Z" transform="translate(-310.26 -349.778)"/>
    <path id="Path_41" data-name="Path 41" class="cls-10" d="M704.682,335.94l-5.256,19.408s-3.033,5.859-3.446,8.69-3.234,7.076-3.234,7.076a22.4,22.4,0,0,0-2.022,8.891c-.2,5.462-4.021,30.729-8.288,34.974l-1.011,16.375s-4.021,2.826-1.212,6.892,1.821,14.555,1.821,14.555-3.843,3.033-1.413,6.065.8,11.93.8,11.93-2.223,2.826-1.212,4.446-1,43.262-1,43.262l-4.859,20.413s-2.229,16.984-3.446,22.039a56.941,56.941,0,0,0-1.212,11.315s-5.255,11.12-9.1,10.517-22.435-18.8-22.435-18.8l2.625-61.458s2.223-26.077.81-31.131-2.424-30.321-2.424-30.321l-2.832-39.821-28.271-44.474S606.022,343.838,611.88,340l1.063-6.99.959-6.353,33.56-3.642,51.343-13.337s3.957,2.441,6.031,8.535C706.255,322.322,706.8,328.112,704.682,335.94Z" transform="translate(-288.21 -163.145)"/>
    <path id="Path_42" data-name="Path 42" class="cls-12" d="M598.212,375.016s-23.854,29.293-22.843,21.108c.632-5.141-2.631-11.418-5.169-15.387-1.5-2.361-2.74-3.906-2.74-3.906s14.555-26.68,15.364-23.044c.258,1.149,1.941,3.785,4.107,6.795C591.5,366.889,598.212,375.016,598.212,375.016Z" transform="translate(-271.072 -181.773)"/>
    <path id="Path_43" data-name="Path 43" class="cls-13" d="M667.791,797.765v2.872s-22.033-7.679-34.164-15.767c-5-3.337-6.427-6.439-6.152-8.92,6.7,3.389,19.155,9.85,22.929,12.762C653.61,791.182,661.892,795.094,667.791,797.765Z" transform="translate(-296.603 -361.602)"/>
    <circle id="Ellipse_2" data-name="Ellipse 2" class="cls-10" cx="6.737" cy="6.737" r="6.737" transform="translate(359.264 433.595)"/>
    <circle id="Ellipse_3" data-name="Ellipse 3" class="cls-10" cx="6.737" cy="6.737" r="6.737" transform="translate(290.443 424.135)"/>
    <path id="Path_44" data-name="Path 44" class="cls-2" d="M623.118,786.125a3.557,3.557,0,0,1-.4,1.373L618.7,791.88l-56.2-.9-15.112-.247s-31.809-5.79-38.006-8.489-30.562-7.639-30.562-7.639-14.715-2.47-16.875-9.609a6.176,6.176,0,0,1,.436-5.376,7.753,7.753,0,0,1,4.819-2.912,31.763,31.763,0,0,1,20.218.747l94.2,24.233,1.459.373s33.578-.626,34.256-.505C622.486,782.5,623.238,784.683,623.118,786.125Z" transform="translate(-225.997 -352.857)"/>
    <path id="Path_45" data-name="Path 45" class="cls-13" d="M623.118,789.247c-5.652-.735-15.508-1.821-18.047-.776,0,0-17.926-2.217-42.59,5.629l-15.089-.247s-31.809-5.79-38.006-8.489-30.562-7.639-30.562-7.639-14.715-2.47-16.875-9.609a6.176,6.176,0,0,1,.436-5.376c1.005,2.929,2.941,7.174,6.031,8.363,4.853,1.867,24.8,5.669,24.8,5.669l39.482,9.667s22.8,4.945,31.671,1.723c3.636-1.31,10.459-2.476,17.231-3.389l1.459.373s33.578-.626,34.256-.505C622.486,785.617,623.238,787.806,623.118,789.247Z" transform="translate(-225.997 -355.979)"/>
    <path id="Path_46" data-name="Path 46" class="cls-10" d="M617.566,779.8a18.671,18.671,0,0,1-.316,2.521s-22.331.8-33.957-.924c-3.211-.477-5.026-1.5-5.928-2.734a4.2,4.2,0,0,1-.419-4.021,6.323,6.323,0,0,1,.488-1.08c.867-1.516,2.2-2.59,2.929-2.447,2.022.408,5.491-3.739,5.491-3.739-.276-2.533,3.7-3.446,4.325-3.033a.81.81,0,0,0,1.292-.506c.04-.19.052-1.1.052-2.171,0-1.781-.052-4.021-.052-4.021l22.447,2.728.89,4.291c.816,3.825,1.953,9.081,2.441,10.879a12.976,12.976,0,0,1,.316,4.256Z" transform="translate(-274.97 -353.813)"/>
    <path id="Path_47" data-name="Path 47" class="cls-3" d="M618.12,795.276a18.666,18.666,0,0,1-.316,2.521s-22.332.8-33.957-.925c-3.211-.477-5.026-1.5-5.928-2.734,2.981-.178,6.858-.276,9.259.31C590.6,795.3,611.078,795.3,618.12,795.276Z" transform="translate(-275.525 -369.285)"/>
    <path id="Path_48" data-name="Path 48" class="cls-10" d="M540.995,768.46a1.148,1.148,0,0,1-.488,1.08c-2.826,2.183-16.387-.189-16.387-.189s-27.708-1.723-31.849-4.549a2.924,2.924,0,0,1-.913-.959c-1.723-3.113,4.515-8.34,5.055-8.34s7.99-1.017,8.489-1.114c3.446-.695,6.892-2.832,7.467-2.223s3.446-.81,4.848-1.011c.511-.075.747-.8.833-1.723a19.144,19.144,0,0,0-.126-3.751l22.131,5.956.2,3.527.638,11.74.08,1.442A.528.528,0,0,1,540.995,768.46Z" transform="translate(-238.554 -348.718)"/>
    <path id="Path_49" data-name="Path 49" class="cls-3" d="M524.382,782.808s-27.708-1.723-31.849-4.549a2.922,2.922,0,0,1-.913-.959c5.612.459,14.968,1.235,16.657,1.666,2.43.574,16.082,1.413,16.082,1.413h16.789l.08,1.442C541.958,785.887,524.382,782.808,524.382,782.808Z" transform="translate(-238.793 -362.176)"/>
    <circle id="Ellipse_4" data-name="Ellipse 4" class="cls-10" cx="6.737" cy="6.737" r="6.737" transform="translate(256.704 424.135)"/>
    <circle id="Ellipse_5" data-name="Ellipse 5" class="cls-10" cx="6.737" cy="6.737" r="6.737" transform="translate(329.879 438.121)"/>
    <path id="Path_50" data-name="Path 50" class="cls-9" d="M495.59,398.243s-1.275,2.3-3.193,5.709c-4.6,8.11-12.86,22.487-16.416,27.036-5.054,6.467-4.647.408-10.109-13.136-4.055-10.074,8.426-21.6,15.1-26.84,2.3-1.821,3.906-2.872,3.906-2.872Z" transform="translate(-227.496 -196.539)"/>
    <path id="Path_51" data-name="Path 51" class="cls-12" d="M519.73,432.83s-16.777,1.413-20.011,2.424-17.18.4-18.38,0-25.071,5.055-14.152,10.511,17.805,0,17.805,0,14.153-.81,17.806,1.419,16.978,1.011,16.978,1.011Z" transform="translate(-227.18 -215.561)"/>
    <path id="Path_52" data-name="Path 52" class="cls-3" d="M484.239,197.8c2.068,5.29.776,9.9-1.66,14.624-6.1,1.149-11.838,2.728-15.031,4.779-9.1,5.864-2.223-45.686-2.223-45.686s4.4,0,9.977-.224C473.613,179,480.011,187,484.239,197.8Z" transform="translate(-226.541 -104.242)"/>
    <path id="Path_53" data-name="Path 53" class="cls-9" d="M449.921,189.865a34.462,34.462,0,1,1-3.446-15.066,34.462,34.462,0,0,1,3.446,15.066Z" transform="translate(-191.706 -97.459)"/>
    <path id="Path_54" data-name="Path 54" class="cls-3" d="M708.737,318.185a7.892,7.892,0,0,1-4.595,3.188c-7.886,2.223-63.48,15.565-67.115,14.756-3.211-.712-16.99-2.694-20.166-3.148l.959-6.353,33.561-3.642,51.343-13.337S706.663,312.091,708.737,318.185Z" transform="translate(-292.099 -163.132)"/>
    <path id="Path_55" data-name="Path 55" class="cls-3" d="M524.049,207.15a193.773,193.773,0,0,0-19.615,2.183,1.349,1.349,0,0,0-.034-.9l13.44-1.66s-1.964-31.59-9.19-39.161a18.813,18.813,0,0,0,6.106-1.723C520.212,162.676,524.049,207.15,524.049,207.15Z" transform="translate(-244.232 -101.872)"/>
    <path id="Path_56" data-name="Path 56" class="cls-2" d="M503.09,147.542s11.93-1.074,13.544-3.1,13.142-2.625,13.142-2.625,5.658-1.011,6.893-2.43,31.935-3.234,34.968-1.614a24.288,24.288,0,0,0,7.685,2.832c1.821.207,15.968,10.3,17.381,10.3s40.206,36.593,40.206,36.593,4.021,9.3,5.663,9.7,16.174,37.2,16.174,37.2,2.022,8.891-5.859,11.12-63.48,15.566-67.115,14.756-20.821-3.234-20.821-3.234.2,0-.2-2.223-1.011-1.62-.207-3.642,1.62-1.821.609-3.033,0-1.821-3.234-3.843-6.893-4.245-7.076-4.848-3.033-4.652-4.446-4.853-41.039-11.321-41.039-11.321l-9.3-3.033s-4.446-3.033-3.446-4.848,4.44-18.236,4.44-18.236l14.216-1.752s-2.12-34.233-10.08-39.976S503.09,147.542,503.09,147.542Z" transform="translate(-240.855 -89.707)"/>
    <path id="Path_57" data-name="Path 57" class="cls-3" d="M507.368,398.243s-1.275,2.3-3.193,5.709c-.3-10.546-7.674-12.59-11.424-12.941,2.3-1.821,3.906-2.872,3.906-2.872Z" transform="translate(-239.274 -196.539)"/>
    <path id="Path_58" data-name="Path 58" class="cls-2" d="M496.484,272.34l.976,5.457s3.843,4.652,3.843,6.065,4.446,5.457,5.663,7.679,5.456,2.631,3.837,6.473-10.913,33.153-10.913,33.153l-9.5,10.511s15.766-1.419,13.337,17.38l20.419-17.806,15.99-29.092s-15.565-29.511-16.169-31.935S496.484,272.34,496.484,272.34Z" transform="translate(-238.269 -147.252)"/>
    <path id="Path_59" data-name="Path 59" class="cls-3" d="M583.31,282.4s12.935-9.1,12.935-10.109S583.31,282.4,583.31,282.4Z" transform="translate(-277.819 -147.203)"/>
    <path id="Path_60" data-name="Path 60" class="cls-3" d="M621,305.108s6.892-1.62,7.467-5.255S621,305.108,621,305.108Z" transform="translate(-293.861 -158.59)"/>
    <path id="Path_61" data-name="Path 61" class="cls-3" d="M630.82,321.605s9.707-4.807,9.3-5.64S630.82,321.605,630.82,321.605Z" transform="translate(-298.04 -165.788)"/>
    <path id="Path_62" data-name="Path 62" class="cls-3" d="M719.012,272.23s-4.021,2.625-2.826,5.083S719.012,272.23,719.012,272.23Z" transform="translate(-334.28 -147.205)"/>
    <path id="Path_63" data-name="Path 63" class="cls-3" d="M735.15,274.1s-11.453,10.913-8.862,11.12S735.15,274.1,735.15,274.1Z" transform="translate(-338.511 -148.001)"/>
    <path id="Path_64" data-name="Path 64" class="cls-3" d="M696.64,568.68s14.756,2.832,15.158,3.842S696.64,568.68,696.64,568.68Z" transform="translate(-326.055 -273.382)"/>
    <path id="Path_65" data-name="Path 65" class="cls-3" d="M705.79,585.57s7.88,4.853,8.081,6.266S705.79,585.57,705.79,585.57Z" transform="translate(-329.949 -280.571)"/>
    <path id="Path_66" data-name="Path 66" class="cls-3" d="M702.62,604.58s1.212,5.457,3.234,6.266S702.62,604.58,702.62,604.58Z" transform="translate(-328.6 -288.662)"/>
    <path id="Path_67" data-name="Path 67" class="cls-3" d="M446.386,174.592a.388.388,0,0,1-.029.178c-.276,1.8-1.011,3.745-2.7,4.342a4.3,4.3,0,0,1-3.061-.281c-2.872-1.258-5.428-4.279-8.495-3.55A5.088,5.088,0,0,0,428.9,178.1a14.132,14.132,0,0,0-1.149,3.084c-.574,2.252-1.034,4.7-.155,6.841a6.979,6.979,0,0,0,.517,1.011c.816,1.3,1.964,2.412,2.769,3.728,1,1.643,1.258,4.107-.3,5.233a3.153,3.153,0,0,1-2.677.373,15.924,15.924,0,0,1-3.268-1.447c-2.033-1.063-4.595-1.723-6.525-.494-.666.414-1.2,1.011-1.838,1.447a6.628,6.628,0,0,1-4.44.925c-3.653-.373-5.02-2.688-7.811-4.48-2.045-1.321-6.318-1.884-7.536.816-.781,1.723.379,3.894-.385,5.652s-3.194,2.3-4.319,3.929c-1.482,2.148-.1,5.255-1.189,7.639a3.894,3.894,0,0,1-.66,1.011A34.566,34.566,0,0,1,438.81,164.54l1.551-.057c1.511-.057,3.113-.138,4.727-.236a13.168,13.168,0,0,1,.89,2.521A21.024,21.024,0,0,1,446.386,174.592Z" transform="translate(-191.583 -97.429)"/>
    <path id="Path_68" data-name="Path 68" class="cls-10" d="M384.848,185.187c-.787,1.723.373,3.894-.385,5.646s-3.2,2.3-4.319,3.929c-1.488,2.154-.109,5.261-1.189,7.639-1.241,2.717-4.986,3.142-7.857,2.349a16.082,16.082,0,0,1-10.718-10.023c-1.947-5.543-.689-11.643-1.195-17.5a29.02,29.02,0,0,0-1.608-7.346c-.833-2.3-1.97-4.561-2.24-7a10.408,10.408,0,0,1,5.617-10.23c2.366-1.149,5.279-1.476,7-3.446,1.321-1.528,1.6-3.659,2.217-5.583,1.66-5.169,6.617-9.385,12.062-9.334,4.354.034,8.616,2.6,12.872,1.591,2.407-.574,4.595-2.3,7.076-2.051a8.978,8.978,0,0,1,3.349,1.246,130.5,130.5,0,0,1,18.788,12.349,21.149,21.149,0,0,0,3.98,2.705,24.711,24.711,0,0,1,2.682,1.235c1.855,1.149,2.826,3.337,3.354,5.462a20.866,20.866,0,0,1,.425,7.823c-.253,1.844-.976,3.911-2.728,4.526a4.29,4.29,0,0,1-3.067-.293c-2.872-1.246-5.422-4.268-8.489-3.544-2.5.574-3.71,3.412-4.365,5.9-.574,2.252-1.045,4.7-.155,6.847.735,1.781,2.3,3.084,3.28,4.733s1.264,4.113-.3,5.233c-1.723,1.246-4.061-.08-5.951-1.068-2.022-1.063-4.6-1.723-6.519-.5-.661.414-1.195,1.011-1.838,1.453a6.686,6.686,0,0,1-4.434.919c-3.659-.373-5.026-2.688-7.811-4.48C390.333,183.044,386.071,182.482,384.848,185.187Z" transform="translate(-180.768 -88.289)"/>
    <path id="Path_69" data-name="Path 69" class="cls-3" d="M586.941,360.55c-.155.862-1.338.959-1.58,1.8-2.3,8.1-7.352,15.393-15.152,18.38-1.5-2.361-2.74-3.906-2.74-3.906s14.555-26.68,15.364-23.044C583.093,354.909,584.776,357.54,586.941,360.55Z" transform="translate(-271.077 -181.769)"/>
    <path id="Path_70" data-name="Path 70" class="cls-12" d="M562.571,336.329a26.588,26.588,0,1,1-7.789-18.894,26.687,26.687,0,0,1,7.789,18.894Z" transform="translate(-246.275 -163.132)"/>
    <path id="Path_71" data-name="Path 71" class="cls-3" d="M560.041,751.666l.2,3.527c-2.338.517-6.783,1.195-9.374-.391-3.349-2.05-8.294-2.55-12.826-5.342a19.15,19.15,0,0,0-.126-3.751Z" transform="translate(-258.495 -348.731)"/>
    <path id="Path_72" data-name="Path 72" class="cls-3" d="M625.825,764.672c-.155.787-.3,1.269-.3,1.269s-17.834-1.826-22.975-4.29c0-1.781-.052-4.021-.052-4.021l22.446,2.728Z" transform="translate(-285.987 -353.804)"/>
    <path id="Path_73" data-name="Path 73" class="cls-11" d="M592.385,607.257c-1.212,3.234-1.821,3.843-.6,5.457s.6,10.109-1.327,10.913-9.19,5.658-9.19,5.658,4.021,5.256,4.141,7.467a6.766,6.766,0,0,0,1.562,3.843s6.226,13.343,7.467,17.587,2.378,10.913,2.378,10.913-2.177,6.065-.672,9.506,0,8.489,0,8.489-21.717-2.223-24.124-5.078-.8-9.276-.8-9.276a23.222,23.222,0,0,0-3.033-8.087c-2.43-3.842.574-7.88,0-8.087s-2.43-2.424-4.256-6.06-2.964-2.229-2.964-2.229,2.366,20.419,0,22.24-2.688,1.011-2.079,3.446a62.49,62.49,0,0,1,1.011,7.076s-7.277,2.223-10.913,0-9.109-2.631-13.917-6.065,2.177-9.3,3.389-10.109-.4-12.533-.4-12.533l-1.62-11.522s5.456,1.212,3.664-3.234-3.866-19.81-4.876-22.234,3.446-5.663,2.832-7.277,2.625-10.913,2.625-10.913.207-7.679,2.223-9.121c.77-.54,1.269-2.217,1.6-4.072a50.618,50.618,0,0,0,.626-6.617s46.289-3.234,53.767,1.212c3.366,2,3.13,5.681,1.723,9.408-1.723,4.549-5.261,9.19-6.152,10.873C592.793,601.933,593.6,604.024,592.385,607.257Z" transform="translate(-256.573 -276.584)"/>
    <path id="Path_74" data-name="Path 74" class="cls-3" d="M608.759,587.958c-5.744,1.614-13.394,3.986-14.641,5.347-2.022,2.229-8.9-12.533-8.9-12.533s.408,11.1-8.69,6.456c-7.875-4.021-20.586-3.492-23.871-3.274a50.63,50.63,0,0,0,.626-6.617s46.289-3.234,53.767,1.212C610.419,580.549,610.183,584.231,608.759,587.958Z" transform="translate(-264.773 -276.584)"/>
    <path id="Path_75" data-name="Path 75" class="cls-14" d="M583.455,381.36s4.021-4.853,4.854-3.033,5.577,5.457,5.577,5.457,1.361,4.245,3.756,4.853S618.026,413.5,618.026,413.5l-6.473,13.136L606.3,458.578s.23,5.055-1.2,6.892-6.892,1.413-4.359,3.636,6.169,4.245,8.191,14.359a93.978,93.978,0,0,0,4.446,15.968s-19,4.853-21.022,7.076-8.9-12.533-8.9-12.533.408,11.091-8.69,6.456-24.664-3.222-24.664-3.222V485.264s3.033-4.652,1.419-7.886,1.1-9.3,1.1-9.3-.9-6.266-2.522-9.9-1.011-20.821-1.011-20.821-1.229-11.12-.109-16.783a50.206,50.206,0,0,1,4.98-14.061c2.223-4.331,3.63-8.374,3.027-9.994s5.336-5.123,5.336-5.123l3.291,5.324.839,3.182S583.863,387.425,583.455,381.36Z" transform="translate(-263.007 -192.189)"/>
    <path id="Path_76" data-name="Path 76" class="cls-12" d="M625.556,432.83s11.321,11.114,12.533,12.935,5.273,11.286.017,14.158-25.847,7.3-27.892,5.772-14.359,1.723-14.359,1.723-20.6,5.054-16.151-3.234,14.962-6.893,14.962-6.893,16.99-.029,18.8-1.723,15.508-5.33,12.407-12.82S625.556,432.83,625.556,432.83Z" transform="translate(-276.016 -215.561)"/>
    <path id="Path_77" data-name="Path 77" class="cls-3" d="M584.388,519.41s-26.369,22.843-23.745,22.843S584.388,519.41,584.388,519.41Z" transform="translate(-268.093 -252.411)"/>
    <path id="Path_78" data-name="Path 78" class="cls-3" d="M627.576,535.6s-8.38,2.016-6.76,3.234S627.576,535.6,627.576,535.6Z" transform="translate(-293.694 -259.302)"/>
    <path id="Path_79" data-name="Path 79" class="cls-3" d="M581.29,439.16s10.459.936,8.616,4.21S581.29,439.16,581.29,439.16Z" transform="translate(-276.959 -218.255)"/>
    <path id="Path_80" data-name="Path 80" class="cls-3" d="M569.473,610.09s-1.419,4.112,0,6.318,0,7.467,0,7.467v18.38s-.2,13.343,4.647,17.989Z" transform="translate(-271.661 -291.007)"/>
    <path id="Path_81" data-name="Path 81" class="cls-3" d="M545.83,709.81s2.826,4.141,3.234,5.658S545.83,709.81,545.83,709.81Z" transform="translate(-261.866 -333.451)"/>
    <path id="Path_82" data-name="Path 82" class="cls-3" d="M547.06,694.841s6.571-1.212,7.582-.505S547.06,694.841,547.06,694.841Z" transform="translate(-262.39 -326.771)"/>
    <path id="Path_83" data-name="Path 83" class="cls-3" d="M543.363,738.49s-1.924.2,1.918,2.3,11.321,4.75,11.418,3.843S543.363,738.49,543.363,738.49Z" transform="translate(-260.611 -345.658)"/>
    <path id="Path_84" data-name="Path 84" class="cls-3" d="M592.69,703.4c.678,0,9.138-.505,8.65.81S592.69,703.4,592.69,703.4Z" transform="translate(-281.811 -330.682)"/>
    <path id="Path_85" data-name="Path 85" class="cls-3" d="M612.7,681.2s1.918-3.331,2.625-1.918S612.7,681.2,612.7,681.2Z" transform="translate(-290.328 -320.308)"/>
    <path id="Path_86" data-name="Path 86" class="cls-3" d="M562.575,336.3a26.59,26.59,0,0,1-1.022,7.335,4,4,0,0,1-4.411.27,11.883,11.883,0,0,1-3.7-4.021,9.154,9.154,0,0,0-3.946-3.71c-2.165-.816-4.635,0-6.519,1.355s-3.389,3.148-5.169,4.595-4.049,2.619-6.318,2.263a10.846,10.846,0,0,1-4.021-1.849c-1.723-1.086-3.573-2.774-5.462-3.5s-3.446.574-5.244.574c-1.43.517-2.987,1.694-2.7,3.182a4.935,4.935,0,0,0,.735,1.539,6.462,6.462,0,0,1-.844,7.116,26.685,26.685,0,1,1,48.632-15.181Z" transform="translate(-246.28 -163.101)"/>
    <path id="Path_87" data-name="Path 87" class="cls-15" d="M512.874,331.034c-1.43.517-2.987,1.694-2.705,3.188a5.118,5.118,0,0,0,.741,1.534,6.447,6.447,0,0,1-2.872,8.679,2.544,2.544,0,0,1-1.6.253,2.826,2.826,0,0,1-1.149-.689,10.631,10.631,0,0,1-3.314-5.715c-.494-2.3-.19-4.733-.442-7.094s-1.063-4.687-1.344-7.065a6.554,6.554,0,0,1,.362-3.492A8.121,8.121,0,0,1,502,318.644a18.653,18.653,0,0,0,4.107-5.916c1.281-3.63.35-8.254,3.153-10.913,1.3-1.218,3.113-1.671,4.721-2.441a33.258,33.258,0,0,0,4.336-2.751c5.2-3.573,11.516-6.318,17.7-5.054a25.171,25.171,0,0,1,7.013,2.872,78.838,78.838,0,0,1,11.487,7.72,17.872,17.872,0,0,1,4.021,4.13,14.324,14.324,0,0,1,1.758,4.394,25.183,25.183,0,0,1,.333,10.339c-.574,3.366-1.878,6.634-1.93,10.052a6.5,6.5,0,0,1-.5,3.377c-.948,1.574-3.3,1.723-4.905.85a11.7,11.7,0,0,1-3.7-4.021,9.078,9.078,0,0,0-3.946-3.7c-2.165-.821-4.635,0-6.519,1.35s-3.383,3.148-5.169,4.6-4.021,2.619-6.318,2.263a10.835,10.835,0,0,1-4.021-1.844c-1.723-1.091-3.573-2.78-5.457-3.5S514.666,331.034,512.874,331.034Z" transform="translate(-242.402 -155.303)"/>
    <path id="Path_88" data-name="Path 88" class="cls-9" d="M610.929,432.83s-29.712,27.489-23.653,41.234,32.739-10.511,32.739-10.511l9.512-22.01Z" transform="translate(-279.16 -215.561)"/>
    <g id="Group_7" data-name="Group 7" class="cls-16" transform="translate(257.715 160.481)">
      <path id="Path_89" data-name="Path 89" d="M508.039,365.682a2.527,2.527,0,0,1-1.591.253,2.745,2.745,0,0,1-1.149-.695,10.649,10.649,0,0,1-3.32-5.709c-.488-2.326-.184-4.739-.437-7.1s-1.068-4.681-1.344-7.065a1.517,1.517,0,0,0-.029-.356,9.093,9.093,0,0,0,.029,1.976c.276,2.378,1.091,4.675,1.344,7.065s-.052,4.773.437,7.094a10.643,10.643,0,0,0,3.32,5.715,2.792,2.792,0,0,0,1.149.689,2.528,2.528,0,0,0,1.591-.253,6.488,6.488,0,0,0,3.538-6.628A6.37,6.37,0,0,1,508.039,365.682Z" transform="translate(-500.13 -338.663)"/>
      <path id="Path_90" data-name="Path 90" d="M568.029,337.573c-.574,3.366-1.878,6.634-1.924,10.052A6.439,6.439,0,0,1,565.6,351c-.942,1.574-3.291,1.723-4.9.85a11.723,11.723,0,0,1-3.7-4.021,9.044,9.044,0,0,0-3.946-3.7c-2.16-.816-4.629,0-6.513,1.356s-3.389,3.142-5.169,4.595-4.049,2.619-6.318,2.269a10.939,10.939,0,0,1-4.021-1.849c-1.723-1.091-3.573-2.774-5.457-3.5s-3.446.574-5.244.574c-1.43.523-2.987,1.694-2.711,3.193a2.373,2.373,0,0,0,.155.471,4.468,4.468,0,0,1,2.556-2.045c1.792,0,3.377-1.287,5.244-.574s3.751,2.412,5.457,3.5a10.668,10.668,0,0,0,4.021,1.844c2.3.356,4.549-.8,6.318-2.263s3.291-3.274,5.169-4.595,4.354-2.171,6.513-1.35a9.114,9.114,0,0,1,3.946,3.7,12.2,12.2,0,0,0,3.7,4.021c1.608.907,3.957.724,4.9-.85a6.859,6.859,0,0,0,.506-3.377c.046-3.418,1.333-6.686,1.924-10.051a25.423,25.423,0,0,0,.368-5.238A25.514,25.514,0,0,1,568.029,337.573Z" transform="translate(-507.559 -333.96)"/>
    </g>
    <path id="Path_91" data-name="Path 91" class="cls-3" d="M564.269,180.775s-10.913,19.81,4.021,29.919,16.375,9.1,16.375,9.1a14.534,14.534,0,0,0,0,3.033c.207.609,4.021,2.016,4.021,2.016s4.647,7.467,11.315,10.718,7.886,10.913,7.886,10.913,0,2.631,3.446,5.054,6.1,9.5,6.1,9.5V267.5c0,1.011,1.212,4.021-1.413,4.342s-.408,6.37-.408,6.37-2.826,3.446-2.223,5.055-1.212,4.848-1.212,4.848-2.223,3.234-2.022,3.843-2.424,2.832-1.821,4.245-3.027,3.234-2.424,4.853-2.585,2.424-2.585,2.424L594.59,323.7s18.38,4.021,23.124,14.147l23.17-42.452s12.935-31.734,13.343-33.756-2.832-9.3-2.832-9.3l-15.767-28.719-23.653-33.354S593.177,150.253,564.269,180.775Z" transform="translate(-268.077 -103.394)"/>
    <path id="Path_92" data-name="Path 92" class="cls-3" d="M594.565,195.689s-28.4,9.965-13.44,20.074,16.375,9.092,16.375,9.092a14.958,14.958,0,0,0,0,3.033c.2.6,4.021,2.022,4.021,2.022s4.652,7.467,11.321,10.718,7.886,10.913,7.886,10.913,0,2.631,3.446,5.054,6.065,9.5,6.065,9.5v6.467c0,1.011,1.212,4.021-1.419,4.348s-.4,6.37-.4,6.37-2.832,3.446-2.223,5.049-1.212,4.853-1.212,4.853-2.223,3.234-2.022,3.843-2.43,2.832-1.821,4.245-3.033,3.234-2.424,4.853-2.59,2.424-2.59,2.424l-8.73,20.212s15.14.781,19.919,10.913l26.369-39.189s12.941-31.734,13.343-33.756-2.82-9.322-2.82-9.322l-15.766-28.719L612.474,207.94S623.474,165.161,594.565,195.689Z" transform="translate(-275.037 -109.95)"/>
    <path id="Path_93" data-name="Path 93" class="cls-2" d="M567.089,180.776s-10.913,19.81,4.021,29.919,16.375,9.1,16.375,9.1a14.933,14.933,0,0,0,0,3.033c.2.609,4.021,2.016,4.021,2.016s4.652,7.467,11.321,10.718,7.886,10.913,7.886,10.913,0,2.631,3.446,5.054,6.094,9.5,6.094,9.5V267.5c0,1.011,1.212,4.021-1.419,4.342s-.4,6.37-.4,6.37-2.832,3.446-2.223,5.054S615,288.115,615,288.115s-2.223,3.234-2.022,3.843-2.429,2.832-1.821,4.245-3.033,3.234-2.424,4.853-2.59,2.424-2.59,2.424L597.41,323.7s18.345,4.021,23.119,14.147l23.17-42.452s12.941-31.734,13.343-33.756-2.832-9.3-2.832-9.3l-15.767-28.719L614.8,190.276S595.991,150.254,567.089,180.776Z" transform="translate(-269.277 -103.395)"/>
    <g id="Group_8" data-name="Group 8" class="cls-16" transform="translate(174.524 72.757)">
      <path id="Path_94" data-name="Path 94" d="M359.185,195.8a28.822,28.822,0,0,0-1.608-7.352c-.833-2.3-1.97-4.561-2.24-7v-.218a9.364,9.364,0,0,0,0,1.838c.27,2.441,1.407,4.687,2.24,7a28.776,28.776,0,0,1,1.608,7.346c.08.942.115,1.9.126,2.872C359.328,198.766,359.311,197.278,359.185,195.8Z" transform="translate(-355.291 -181.23)"/>
      <path id="Path_95" data-name="Path 95" d="M381.87,239.068c-1.235,2.711-4.986,3.142-7.857,2.343A16.117,16.117,0,0,1,363.3,231.395a23.724,23.724,0,0,1-1.149-7.645,26.284,26.284,0,0,0,1.149,9.259,16.123,16.123,0,0,0,10.718,10.023c2.872.793,6.623.368,7.857-2.349a8.765,8.765,0,0,0,.448-3.791A5.924,5.924,0,0,1,381.87,239.068Z" transform="translate(-358.207 -199.328)"/>
      <path id="Path_96" data-name="Path 96" d="M479.364,183.25c-.247,1.838-.976,3.906-2.728,4.52a4.3,4.3,0,0,1-3.061-.287c-2.872-1.252-5.428-4.273-8.495-3.544-2.5.574-3.7,3.406-4.365,5.9a14.523,14.523,0,0,0-.615,4.865,18.949,18.949,0,0,1,.615-3.251c.661-2.487,1.861-5.3,4.365-5.9,3.067-.724,5.6,2.3,8.495,3.544a4.273,4.273,0,0,0,3.061.293c1.752-.615,2.481-2.682,2.728-4.526a20.872,20.872,0,0,0,.172-3.544C479.508,181.963,479.45,182.612,479.364,183.25Z" transform="translate(-399.895 -181.268)"/>
      <path id="Path_97" data-name="Path 97" d="M440.616,221.879c-1.723,1.246-4.061-.08-5.951-1.074-2.022-1.063-4.595-1.723-6.519-.5-.661.414-1.195,1.011-1.838,1.453a6.611,6.611,0,0,1-4.434.919c-3.659-.373-5.026-2.688-7.811-4.48-2.045-1.315-6.318-1.878-7.536.821a4.9,4.9,0,0,0-.235,2.487,3.231,3.231,0,0,1,.235-.867c1.223-2.705,5.491-2.142,7.536-.821,2.786,1.792,4.153,4.107,7.811,4.48a6.646,6.646,0,0,0,4.434-.925c.643-.437,1.177-1.034,1.838-1.447,1.941-1.206,4.5-.574,6.519.5,1.89.988,4.216,2.3,5.951,1.068a3.184,3.184,0,0,0,1.028-3.28A2.654,2.654,0,0,1,440.616,221.879Z" transform="translate(-376.971 -196.498)"/>
      <path id="Path_98" data-name="Path 98" d="M402.324,229.663c-.787,1.8-3.205,2.3-4.319,3.923-.833,1.206-.764,2.711-.735,4.222a4.779,4.779,0,0,1,.735-2.6c1.114-1.625,3.532-2.125,4.319-3.929a5,5,0,0,0,.218-2.447A3.242,3.242,0,0,1,402.324,229.663Z" transform="translate(-373.152 -201.49)"/>
    </g>
  </g>
</svg>
