<svg xmlns="http://www.w3.org/2000/svg" viewBox="0 0 14.269 14.269">
  <g id="phone-call" transform="translate(0 0)">
    <path id="Path_103" data-name="Path 103" d="M11.468,14.269a6.128,6.128,0,0,1-2.1-.446,15.749,15.749,0,0,1-5.3-3.626A15.761,15.761,0,0,1,.445,4.9c-.593-1.572-.594-2.862,0-3.452.085-.085.171-.176.261-.27A2.8,2.8,0,0,1,2.658,0,2.34,2.34,0,0,1,4.3,1.056c1.631,2.028.9,2.751.045,3.589l-.15.149c-.139.139-.4.784,2.045,3.23A13.567,13.567,0,0,0,8.268,9.762c.343.223.956.56,1.207.308l.151-.153c.837-.849,1.56-1.582,3.587.048a2.338,2.338,0,0,1,1.055,1.648,2.781,2.781,0,0,1-1.177,1.956c-.094.089-.185.176-.27.26A1.869,1.869,0,0,1,11.468,14.269ZM2.6.48c-.574,0-1.091.545-1.55,1.028-.092.1-.181.191-.269.279-.44.44-.4,1.595.113,2.944A15.278,15.278,0,0,0,4.412,9.857a15.267,15.267,0,0,0,5.126,3.517c1.349.51,2.5.553,2.943.114.088-.088.182-.177.279-.269.493-.468,1.052-1,1.028-1.588a1.941,1.941,0,0,0-.876-1.293c-1.689-1.358-2.161-.879-2.944-.084l-.154.155c-.374.375-.982.292-1.808-.245a14.014,14.014,0,0,1-2.1-1.8C3.874,6.333,3.225,5.09,3.86,4.453L4.014,4.3c.8-.783,1.277-1.256-.082-2.946A1.947,1.947,0,0,0,2.638.48Z" transform="translate(0)"/>
  </g>
</svg>
