<svg xmlns="http://www.w3.org/2000/svg" xmlns:xlink="http://www.w3.org/1999/xlink" viewBox="0 0 23.765 25.209">
  <defs>
    <style>
      .cls-1 {
        fill: url(#linear-gradient);
      }
    </style>
    <linearGradient id="linear-gradient" x1="0.5" x2="0.5" y2="1" gradientUnits="objectBoundingBox">
      <stop offset="0" stop-color="#f4627c"/>
      <stop offset="1" stop-color="#b539a8"/>
    </linearGradient>
  </defs>
  <g id="share" transform="translate(-13.8)">
    <path id="Path_535" data-name="Path 535" class="cls-1" d="M33.052,16.2a4.511,4.511,0,0,0-3.57,1.759l-6.925-3.868a4.522,4.522,0,0,0,.251-1.487,4.423,4.423,0,0,0-.256-1.492l6.92-3.863a4.5,4.5,0,1,0-.932-2.738A4.4,4.4,0,0,0,28.8,6L21.882,9.862a4.5,4.5,0,1,0,.01,5.47l6.92,3.868a4.5,4.5,0,1,0,4.24-3Zm0-14.777a3.094,3.094,0,1,1-3.094,3.094A3.1,3.1,0,0,1,33.052,1.419ZM18.312,15.693A3.094,3.094,0,1,1,21.406,12.6,3.1,3.1,0,0,1,18.312,15.693Zm14.74,8.1A3.094,3.094,0,1,1,36.146,20.7,3.1,3.1,0,0,1,33.052,23.791Z" transform="translate(0)"/>
  </g>
</svg>
