<svg xmlns="http://www.w3.org/2000/svg" viewBox="0 0 19.936 20.195">
  <defs>
    <style>
      .cls-1 {
        fill: #e35787;
      }
    </style>
  </defs>
  <g id="shopping-cart_1_" data-name="shopping-cart (1)" transform="translate(-14.1 -11)">
    <g id="Group_9" data-name="Group 9" transform="translate(14.1 11)">
      <path id="Path_99" data-name="Path 99" class="cls-1" d="M302.477,417.6a1.691,1.691,0,0,0-1.677,1.719,1.678,1.678,0,1,0,1.677-1.719Zm0,2.576a.826.826,0,0,1-.816-.861.817.817,0,1,1,.816.861Z" transform="translate(-288.984 -400.842)"/>
      <path id="Path_100" data-name="Path 100" class="cls-1" d="M80.377,417.6a1.691,1.691,0,0,0-1.677,1.719,1.718,1.718,0,0,0,1.677,1.719,1.691,1.691,0,0,0,1.677-1.719A1.718,1.718,0,0,0,80.377,417.6Zm0,2.576a.826.826,0,0,1-.816-.861.856.856,0,0,1,.816-.861.826.826,0,0,1,.816.861A.85.85,0,0,1,80.377,420.176Z" transform="translate(-76.038 -400.842)"/>
      <path id="Path_101" data-name="Path 101" class="cls-1" d="M31.633,11l-.668,2.621H14.1l3.112,9.22a2.137,2.137,0,0,0-1.822,2.168,2.174,2.174,0,0,0,2.147,2.234H29.226v-.816H17.537a1.316,1.316,0,0,1-1.29-1.377,1.342,1.342,0,0,1,1.29-1.377h11.73l3.05-11.816h1.719V11ZM28.624,22.816H18.1L15.3,14.479H30.73l-2.106,8.338Z" transform="translate(-14.1 -11)"/>
      <rect id="Rectangle_11" data-name="Rectangle 11" class="cls-1" width="0.861" height="4.855" transform="translate(5.457 5.498)"/>
      <rect id="Rectangle_12" data-name="Rectangle 12" class="cls-1" width="0.861" height="4.855" transform="translate(8.511 5.498)"/>
      <rect id="Rectangle_13" data-name="Rectangle 13" class="cls-1" width="0.861" height="4.855" transform="translate(11.561 5.498)"/>
    </g>
  </g>
</svg>
