<svg xmlns="http://www.w3.org/2000/svg" xmlns:xlink="http://www.w3.org/1999/xlink" viewBox="0 0 568.693 429.737">
  <defs>
    <style>
      .cls-1, .cls-7 {
        fill: #f4627c;
      }

      .cls-1, .cls-14, .cls-6 {
        opacity: 0.1;
      }

      .cls-2 {
        fill: url(#linear-gradient);
      }

      .cls-3 {
        fill: #d38884;
      }

      .cls-4 {
        fill: #444053;
      }

      .cls-5 {
        fill: #b07473;
      }

      .cls-8 {
        fill: #67647e;
      }

      .cls-9 {
        fill: #585268;
      }

      .cls-10 {
        fill: #e1e7ef;
      }

      .cls-11 {
        fill: url(#linear-gradient-2);
      }

      .cls-12 {
        fill: #a27772;
      }

      .cls-13 {
        fill: #cc818c;
      }

      .cls-15 {
        fill: #f6f8fb;
      }

      .cls-16 {
        fill: url(#linear-gradient-3);
      }

      .cls-17 {
        fill: #65617d;
      }

      .cls-18 {
        fill: #fbbebe;
      }

      .cls-19, .cls-26 {
        opacity: 0.05;
      }

      .cls-20 {
        fill: #7c5c5c;
      }

      .cls-21 {
        fill: url(#linear-gradient-4);
      }

      .cls-22 {
        fill: #fdc2cc;
      }

      .cls-23 {
        fill: #d39999;
      }

      .cls-24 {
        fill: #7e5659;
      }

      .cls-25 {
        fill: #865a61;
      }

      .cls-27 {
        fill: url(#linear-gradient-5);
      }

      .cls-28 {
        fill: #fff;
        opacity: 0.5;
      }

      .cls-29 {
        fill: #3f2b3b;
      }

      .cls-30 {
        fill: none;
        stroke: #3f2b3b;
        stroke-miterlimit: 10;
      }

      .cls-31 {
        fill: #a8a8a8;
      }

      .cls-32 {
        opacity: 0.2;
      }
    </style>
    <linearGradient id="linear-gradient" x1="0.5" y1="1" x2="0.5" gradientUnits="objectBoundingBox">
      <stop offset="0" stop-color="gray" stop-opacity="0.251"/>
      <stop offset="0.54" stop-color="gray" stop-opacity="0.122"/>
      <stop offset="1" stop-color="gray" stop-opacity="0.102"/>
    </linearGradient>
    <linearGradient id="linear-gradient-2" x1="0.5" x2="0.5" y2="0" xlink:href="#linear-gradient"/>
    <linearGradient id="linear-gradient-3" x1="0.5" x2="0.5" y2="0" xlink:href="#linear-gradient"/>
    <linearGradient id="linear-gradient-4" x1="1.096" x2="1.096" y2="0" xlink:href="#linear-gradient"/>
    <linearGradient id="linear-gradient-5" x1="0.5" x2="0.5" y2="0" xlink:href="#linear-gradient"/>
  </defs>
  <g id="undraw_team_spirit_hrr4_1_" data-name="undraw_team_spirit_hrr4 (1)" transform="translate(0.013 -0.004)">
    <path id="Path_293" data-name="Path 293" class="cls-1" d="M43.44,426.65c9,35.066,28.047,65.377,58.154,80.068,62.593,30.537,203.67,14.786,308.976-3.289,54.485-9.352,102.342-35.14,137.128-71.481Z" transform="translate(-37.308 -223.448)"/>
    <path id="Path_294" data-name="Path 294" class="cls-1" d="M610.23,58.292H552.45a4.574,4.574,0,1,1,0-9.108h10a4.806,4.806,0,0,1-5-4.554,4.8,4.8,0,0,1,5-4.549h-7.133a4.806,4.806,0,0,1-5-4.554,4.8,4.8,0,0,1,5-4.554h30.157a85.439,85.439,0,0,0-23.524-5.908c-82.233-9.632-111.595-3.264-121.967,3.289a121.023,121.023,0,0,1-42.264,16.89C346.981,54.788,252.1,66.269,166.095,41.566c-42.743-12.272-74.51,8.5-93.555,43.143H620.262c-.715-10.077-2.854-19.385-6.783-27.528A5.239,5.239,0,0,1,610.23,58.292Z" transform="translate(-51.862 -20.14)"/>
    <path id="Path_295" data-name="Path 295" class="cls-1" d="M32.388,280.23a211.913,211.913,0,0,0,2.244,61.178l507.3,16.915a216.518,216.518,0,0,0,35.245-48.987Zm200.631,43.643h-10a4.571,4.571,0,1,1,0,9.1H165.267a4.571,4.571,0,1,1,0-9.1h10a4.574,4.574,0,1,1,0-9.108h-7.143a4.571,4.571,0,1,1,0-9.1H225.9a4.571,4.571,0,1,1,0,9.1h7.118a4.574,4.574,0,1,1,0,9.108Z" transform="translate(-31.16 -150.218)"/>
    <path id="Path_296" data-name="Path 296" class="cls-1" d="M600.9,149.94,47.051,162.222A186.024,186.024,0,0,0,33.78,214.368H591.194a199.441,199.441,0,0,0,8.048-33.236A143.971,143.971,0,0,0,600.9,149.94ZM146.235,190.184h-10a4.574,4.574,0,1,1,0,9.108H78.463a4.574,4.574,0,1,1,0-9.108h10a4.571,4.571,0,1,1,0-9.1H81.317a4.574,4.574,0,1,1,0-9.108H139.1a4.574,4.574,0,1,1,0,9.108h7.138a4.571,4.571,0,1,1,0,9.1Z" transform="translate(-32.477 -85.056)"/>
    <ellipse id="Ellipse_11" data-name="Ellipse 11" class="cls-1" cx="37.605" cy="8.443" rx="37.605" ry="8.443" transform="translate(294.469 366.428)"/>
    <ellipse id="Ellipse_12" data-name="Ellipse 12" class="cls-1" cx="67.842" cy="5.568" rx="67.842" ry="5.568" transform="translate(351.613 396.115)"/>
    <ellipse id="Ellipse_13" data-name="Ellipse 13" class="cls-1" cx="67.842" cy="8.443" rx="67.842" ry="8.443" transform="translate(79.222 384.798)"/>
    <ellipse id="Ellipse_14" data-name="Ellipse 14" class="cls-1" cx="51.046" cy="8.443" rx="51.046" ry="8.443" transform="translate(199.455 342.534)"/>
    <ellipse id="Ellipse_15" data-name="Ellipse 15" class="cls-1" cx="40.864" cy="8.443" rx="40.864" ry="8.443" transform="translate(223.888 412.855)"/>
    <path id="Path_297" data-name="Path 297" class="cls-2" d="M510.06,229.868c-1.08-7.268-7.683-24.228-7.683-24.228h0q-.172-.75-.39-1.5c-4.684-16.1-11.167-17.5-11.167-17.5l-23.224-5a1.8,1.8,0,0,1,.5.465,3.223,3.223,0,0,0-.365.055,9.1,9.1,0,0,1-2.034-4.4c-.045-.24-.085-.5-.115-.745a16.336,16.336,0,0,0-1.33-24.558c-.245-.19-.5-.375-.745-.55a3.7,3.7,0,0,0,.31-4.4c-1.829-3.8-5.808-6.2-9.9-7.378a16.779,16.779,0,0,0-9.607-.2,34.707,34.707,0,0,0-5.029,2.334c-3.084,1.54-6.5,2.759-8.8,5.294a2.583,2.583,0,0,0-.88,2.124,5.733,5.733,0,0,0,.875,1.545,4.661,4.661,0,0,1,.045,3.869,37.485,37.485,0,0,0-1.435,3.719,3.888,3.888,0,0,0,.775,3.734,16.445,16.445,0,0,0,1.45,1A7.6,7.6,0,0,1,432.7,165.1q1.38,1.85,2.749,3.714a38.26,38.26,0,0,1,3.444,5.234,25.5,25.5,0,0,0,2.129,4,5.93,5.93,0,0,0,.915.96l-.27-.1a4.164,4.164,0,0,0,3.054,1.245h.14a.84.84,0,0,0,.56-.23c0,.17,0,.34,0,.5.055,1.785.045,3.684-.08,5.469l-.215-.11a1.874,1.874,0,0,0-2,.21L421.744,203.14s-4.649,6.358-4,17.335L414,236.936s-4.684,13.966-1.08,23.939,5.693,15.676,5.693,15.676,1.44,11.332,3.6,12.257,3.1,1.425,3.1,1.425l.43,2.709h0s.145.265.4.71c1.575,2.739,7.408,12.407,10.8,11.372a43.339,43.339,0,0,1,.55,7.943l3.354,22.519s2.339,6.123,2.194,9.332,2.729,7.783,2.729,7.783a14.871,14.871,0,0,0-1.44,10.472c1.37,6,3.1,33.631,3.1,33.631l2.5,6.7-.07,7.853a7.5,7.5,0,0,1-1.55,3.5c-1.62,1.76-1.5,3.794-5.4,6.2s-6.378,3.314-6.378,6.5a8.358,8.358,0,0,1-.12,1.325c-.36,2.339-1.06,3.609,6.118,4.289a18.925,18.925,0,0,0,14.056-4.7s1.24-2.249,7.078-3.159c0,0,2-.1,2.1-1.869.04-.61.03-1.775,0-3.059-.095-2.444-.33-5.3-.64-5.439-.39-.175-1.07-2.634-1.3-3.524h1.625s1.5-11.332,0-18.67A30.289,30.289,0,0,1,465.3,380.1l-.29-19.38s-2-2.139-.43-5.918,0-22.444,0-22.444.58-6.7,2.234-8.268.08-9.812,0-10.242l2.949,9.892s1.295,19.665,4.039,23.224l.79,8.908s5.618,8.2,4.539,12.612,1.155,20.379,1.155,20.379v16.321s-2.524,6.553,1,8.908l1.5-.06c-.5.465-.885,1.165-1.47,1.77-.675.695-1.06,3.339-1.275,5.613-.18,1.924-.24,3.579-.24,3.579a5.893,5.893,0,0,0,4.324,2.564c2.824.165,12.132,7.243,12.132,7.243s9.193,0,11.572-.5l.14-.035a3.124,3.124,0,0,0,1.794-1.465,3.749,3.749,0,0,0,.43-2.694c-.295-1.4-1.41-2.944-3.879-4.254-6.143-3.239-7.058-6.273-7.058-6.273l-4.034-6.053h.575a25.894,25.894,0,0,1,4.034-13.611l-.285-31.706s1.8-10.9-1.295-16.82c0,0-.255-6.268,1.815-8.193s-2.754-21.374-2.754-21.374-1-10.442-2.174-19.97h0c4.864,4.614,9.907-12,10.757-14.951h.125l-.055-.215c.035-.14.055-.21.055-.21h0s-1.08-3.839-.29-3.059,2.739-2.139,2.739-2.139-.29-15.891,3.1-23.9S510.06,229.868,510.06,229.868Zm-14.5,10.112.025-.045c.5,9.7-.095,30.407-.095,30.407s-.67,2.654-1.385,5.778l-.5-19.67h0l-.5-18.53Zm-62.038-6.688s2.449,30.637,0,35.056a23.147,23.147,0,0,0-1.765,6.053c-.81-2.124-2.524-7.113-1.909-9.757.795-3.419-1.585-12.4-1.585-12.612a21.31,21.31,0,0,1,1.5-8.658c1.715-3.659.59-5.244.59-5.244S431.8,232.132,433.526,233.292Z" transform="translate(-221.415 -79.741)"/>
    <path id="Path_298" data-name="Path 298" class="cls-3" d="M454.5,450.126c-2.134,9.382-10.622-4.8-12.557-8.208-.25-.445-.39-.7-.39-.7l.92-4.314,4.864-2a13.587,13.587,0,0,1,2.179,1.42A13.14,13.14,0,0,1,454.5,450.126Z" transform="translate(-236.417 -227.574)"/>
    <path id="Path_299" data-name="Path 299" class="cls-3" d="M585.185,432.244a.655.655,0,0,1-.055.21,1.064,1.064,0,0,1-.065.225c-.835,2.929-5.783,19.42-10.562,14.841-5.229-5-2.689-16.556-2.689-16.556h.035l11-1.125,2.179,2.239h0Z" transform="translate(-301.258 -225.043)"/>
    <path id="Path_300" data-name="Path 300" class="cls-4" d="M519.147,514.668l.28,31.492a25.828,25.828,0,0,0-3.959,13.5l-14.216.56c-3.469-2.334-1-8.838-1-8.838V535.162s-2.194-15.841-1.135-20.229-4.454-12.5-4.454-12.5l-.78-8.843c-2.689-3.534-3.964-23.054-3.964-23.054l-2.884-9.857c.08.425,1.58,8.653,0,10.167s-2.194,8.2-2.194,8.2,1.555,18.535,0,22.279.42,5.873.42,5.873l.285,19.24a30.087,30.087,0,0,0,.14,12.447c1.485,7.283,0,18.535,0,18.535H470.435l.07-7.853-2.469-6.648s-1.7-27.443-3.044-33.386a14.916,14.916,0,0,1,1.41-10.4s-2.824-4.524-2.684-7.708-2.179-9.258-2.179-9.258l-3.289-22.349a43.418,43.418,0,0,0-1.63-12.732c-1.909-6.368-4.739-14.716-4.739-14.716l3.194.285L471.19,434.1s39.184-2.634,40.939-.445a7.354,7.354,0,0,1,.74,2.284c1.759,7.9,4.084,32.661,4.084,32.661s4.739,19.31,2.7,21.219-1.785,8.128-1.785,8.128C520.921,503.821,519.147,514.668,519.147,514.668Z" transform="translate(-241.583 -226.314)"/>
    <path id="Path_301" data-name="Path 301" class="cls-5" d="M491.154,691.441c-.11,1.755-2.064,1.859-2.064,1.859-5.728.9-6.948,3.129-6.948,3.129A18.4,18.4,0,0,1,468.35,701.1c-7.048-.68-6.363-1.934-6-4.259a8.807,8.807,0,0,0,.115-1.31c0-3.184,2.439-4.089,6.258-6.5s3.714-4.4,5.3-6.153,1.755-5.144,1.755-5.144c1.8-3.134,6.363.5,6.363.5.215,1.11,7,.955,7,.955s.9,3.609,1.365,3.819c.3.14.535,2.969.625,5.4C491.184,689.682,491.194,690.837,491.154,691.441Z" transform="translate(-246.717 -348.387)"/>
    <path id="Path_302" data-name="Path 302" class="cls-6" d="M491.154,703.4c-.11,1.755-2.064,1.859-2.064,1.859-5.728.9-6.948,3.129-6.948,3.129a18.4,18.4,0,0,1-13.791,4.669c-7.048-.68-6.363-1.934-6-4.259,3.149.78,9.167,1.869,12.682-.04,4.884-2.649,8.388-4.5,8.388-4.5l7.718-3.884C491.184,701.645,491.194,702.8,491.154,703.4Z" transform="translate(-246.717 -360.35)"/>
    <path id="Path_303" data-name="Path 303" class="cls-5" d="M577.157,702.909a3.049,3.049,0,0,1-1.76,1.455l-.135.035c-2.334.5-11.357.5-11.357.5s-9.123-7.053-11.882-7.213a5.8,5.8,0,0,1-4.244-2.549s.055-1.64.23-3.549c.215-2.259.59-4.884,1.255-5.573,1.22-1.275,1.5-3,4.244-1.909,0,0,3.919-6.908,8.538-1.57l4.779,7.248s.9,3,6.953,6.253c2.419,1.3,3.5,2.829,3.8,4.224A3.724,3.724,0,0,1,577.157,702.909Z" transform="translate(-289.546 -350.412)"/>
    <path id="Path_304" data-name="Path 304" class="cls-6" d="M577.157,713.992c-.54.455-1.135.945-1.76,1.455l-.135.035c-2.334.5-11.357.5-11.357.5s-9.123-7.053-11.882-7.213a5.8,5.8,0,0,1-4.244-2.549s.055-1.64.23-3.549c2.809.84,7.063,2.324,8.2,3.924,1.75,2.434,7.063,5.833,7.063,5.833s9.907-.955,14.306-1.085A3.724,3.724,0,0,1,577.157,713.992Z" transform="translate(-289.546 -361.495)"/>
    <path id="Path_305" data-name="Path 305" class="cls-3" d="M502.984,214.93l-13.046,13.791s-15.811-1.165-13.051-5.833c1.4-2.379,1.625-7.358,1.5-11.687-.115-4.174-.545-7.728-.545-7.728s22.174-11.037,20.494-.745a16.94,16.94,0,0,0-.06,5.873C499.221,213.8,502.984,214.93,502.984,214.93Z" transform="translate(-253.928 -109.262)"/>
    <path id="Path_306" data-name="Path 306" class="cls-6" d="M499.594,202.729a16.94,16.94,0,0,0-.06,5.873,16.276,16.276,0,0,1-11.607,4.844c-3,0-6.243-2.464-8.668-3.889-.115-4.179-.14-6.083-.14-6.083S501.294,192.437,499.594,202.729Z" transform="translate(-255.207 -109.262)"/>
    <path id="Path_307" data-name="Path 307" class="cls-3" d="M496.72,177.826a16.341,16.341,0,1,1-6.148-12.767A16.341,16.341,0,0,1,496.72,177.826Z" transform="translate(-247.664 -90.833)"/>
    <path id="Path_308" data-name="Path 308" class="cls-6" d="M515.344,436.214C511.275,445.9,485.1,446.1,485.1,446.1V435.539l-1.585-.1c.685,3.024-.96,10.4-.96,10.4-20.684,2.919-25.728-8.868-25.728-8.868l.72-4.034,16.116,1.435s39.184-2.634,40.939-.445A7.353,7.353,0,0,1,515.344,436.214Z" transform="translate(-244.059 -226.589)"/>
    <path id="Path_309" data-name="Path 309" class="cls-7" d="M485.1,342.119V331.562l-1.585-.1c.685,3-.96,10.4-.96,10.4-15.566,2.194-22.274-3.934-24.638-7.1a9.673,9.673,0,0,1-1.09-1.76l6.318-35.54,1.5-52.306,2.264-9.178.525-4.4v-.05h.055l1.61.69,9.632,4.164,10.942-8.263.16-.115.545-.415.9.725,2.249,1.8,7.213,46.582s12.5,35.865,14.836,50.341c.095.58.17,1.12.23,1.625C517.359,341.874,485.1,342.119,485.1,342.119Z" transform="translate(-244.059 -123.886)"/>
    <circle id="Ellipse_16" data-name="Ellipse 16" class="cls-8" cx="0.93" cy="0.93" r="0.93" transform="translate(234.915 112.587)"/>
    <circle id="Ellipse_17" data-name="Ellipse 17" class="cls-8" cx="0.93" cy="0.93" r="0.93" transform="translate(235.345 121.074)"/>
    <circle id="Ellipse_18" data-name="Ellipse 18" class="cls-8" cx="0.93" cy="0.93" r="0.93" transform="translate(236.275 134.816)"/>
    <circle id="Ellipse_19" data-name="Ellipse 19" class="cls-8" cx="0.93" cy="0.93" r="0.93" transform="translate(237.809 149.617)"/>
    <circle id="Ellipse_20" data-name="Ellipse 20" class="cls-8" cx="0.93" cy="0.93" r="0.93" transform="translate(238.739 163.513)"/>
    <circle id="Ellipse_21" data-name="Ellipse 21" class="cls-8" cx="0.93" cy="0.93" r="0.93" transform="translate(239.669 178.314)"/>
    <circle id="Ellipse_22" data-name="Ellipse 22" class="cls-8" cx="0.93" cy="0.93" r="0.93" transform="translate(239.299 192.955)"/>
    <path id="Path_310" data-name="Path 310" class="cls-6" d="M468.052,306.419s-1.04,13.611-2.949,17.57-2.759,15.066-2.759,15.066l-4.434-.5a9.672,9.672,0,0,1-1.09-1.76l6.318-35.54,1.5-52.306,2.269-9.183.525-4.4.06-.025a1.79,1.79,0,0,1,1.58.025l.21.11q-.095.27-.18.555c-1.729,5.414-2.374,15.391-2.374,15.391s2.5,18.25,2.759,26.738S468.052,306.419,468.052,306.419Z" transform="translate(-244.054 -127.681)"/>
    <path id="Path_311" data-name="Path 311" class="cls-6" d="M449.513,436.335a2.559,2.559,0,0,1-.17.33c-1.72,2.9-6.078,4.749-7.4,5.254-.25-.445-.39-.7-.39-.7l.92-4.314,4.864-2a13.586,13.586,0,0,1,2.179,1.435Z" transform="translate(-236.417 -227.574)"/>
    <path id="Path_312" data-name="Path 312" class="cls-8" d="M423.8,298.81l-4.034,2.4-3.674,16.341s-4.6,13.861-1.065,23.764,5.589,15.571,5.589,15.571,1.415,11.247,3.539,12.167,3.039,1.415,3.039,1.415l.425,2.689s5.758-1.954,7.793-5.4-1.5-12-1.5-12-3.039-7.288-2.259-10.682-1.56-12.307-1.56-12.5a21.181,21.181,0,0,1,1.5-8.6c1.71-3.644.57-5.2.57-5.2l-1.065-10.4Z" transform="translate(-222.482 -159.511)"/>
    <path id="Path_313" data-name="Path 313" class="cls-6" d="M548.283,330.807s-10.682,4.029-14.076.5-3.044-20.09-3.044-20.09-3.249-30.557-5.3-35.575-1-41.239-1-41.239-1.38-4.684-2.584-5.908a1.311,1.311,0,0,0-.255-.2l.415.09,1.45.31,2.249,1.8,7.213,46.582s12.5,35.865,14.836,50.341Z" transform="translate(-276.663 -124.241)"/>
    <path id="Path_314" data-name="Path 314" class="cls-6" d="M585.791,432.659h-.12c-1.345.175-13.211,1.61-13.261-.86a7.245,7.245,0,0,1,.045-.855l11-1.125,2.179,2.239h0c.04.145.07.27.1.37Z" transform="translate(-301.864 -225.033)"/>
    <path id="Path_315" data-name="Path 315" class="cls-8" d="M574.4,266.07l7.8,4.069s6.5,16.825,7.538,24.039c0,0,4.814,19.325,1.5,27.273s-3.039,23.724-3.039,23.724-1.909,2.9-2.689,2.124.285,3.039.285,3.039-13.331,1.77-13.386-.85,3.059-15.136,3.059-15.136.85-29.777-.355-34.446S574.4,266.07,574.4,266.07Z" transform="translate(-301.864 -143.136)"/>
    <path id="Path_316" data-name="Path 316" class="cls-6" d="M523.481,329.52s-4.389,10.747-5.8,11.457.285,3.534.285,3.534S525.955,333.339,523.481,329.52Z" transform="translate(-274.21 -174.87)"/>
    <path id="Path_317" data-name="Path 317" class="cls-6" d="M517.76,254.094c.05-.2-5.234,5.184-6.648,6S516.276,260.043,517.76,254.094Z" transform="translate(-271.108 -137.144)"/>
    <path id="Path_318" data-name="Path 318" class="cls-6" d="M488.081,327.82s-8.063,5.214-7,7.278S488.081,327.82,488.081,327.82Z" transform="translate(-256.14 -174.02)"/>
    <path id="Path_319" data-name="Path 319" class="cls-6" d="M524.47,480.07a43.16,43.16,0,0,0,17.54,5.5Z" transform="translate(-277.888 -250.165)"/>
    <path id="Path_320" data-name="Path 320" class="cls-6" d="M491.5,501.3s6.363,8,9.267,8.2S491.5,501.3,491.5,501.3Z" transform="translate(-261.399 -260.783)"/>
    <path id="Path_321" data-name="Path 321" class="cls-6" d="M501.648,564c-.285.14-3.609,7.213-7,7.428S501.648,564,501.648,564Z" transform="translate(-262.634 -292.142)"/>
    <path id="Path_322" data-name="Path 322" class="cls-6" d="M568.33,594.79s6.308-1.415,7.713,3.109C576.043,597.885,575.618,596.47,568.33,594.79Z" transform="translate(-299.824 -307.436)"/>
    <path id="Path_323" data-name="Path 323" class="cls-6" d="M559.84,646.208s7.643-1.56,9.268.565S559.84,646.208,559.84,646.208Z" transform="translate(-295.578 -332.981)"/>
    <path id="Path_324" data-name="Path 324" class="cls-6" d="M509.081,654c0,.07-7.778,1.56-7.5,2.549s8.3.85,8.583-.71A1.5,1.5,0,0,0,509.081,654Z" transform="translate(-266.438 -337.154)"/>
    <path id="Path_325" data-name="Path 325" class="cls-6" d="M554.75,666.97s12.782-1.56,12,1.13S554.75,666.97,554.75,666.97Z" transform="translate(-293.032 -343.415)"/>
    <path id="Path_326" data-name="Path 326" class="cls-6" d="M420.89,352.44c.07.21,8.418,1.345,9.547,4.034,0,0-8.2-3.824-9.5-3.824" transform="translate(-226.084 -186.333)"/>
    <path id="Path_327" data-name="Path 327" class="cls-6" d="M437.913,396.16s-6.933,2.194-6.438,5.5S430.77,400.129,437.913,396.16Z" transform="translate(-231.365 -208.199)"/>
    <path id="Path_328" data-name="Path 328" class="cls-6" d="M437.92,426.931s2.524-3.464,4.929-2.829S437.92,426.931,437.92,426.931Z" transform="translate(-234.601 -222.135)"/>
    <path id="Path_329" data-name="Path 329" class="cls-6" d="M490.6,165.057a3.934,3.934,0,0,1-.81.6c-2,1.165-2.549,2.959-3.5,5.029-.885,1.894-1.859,3.9-3.644,4.974-2.3,1.39-5.339.88-7.733,2.089a6,6,0,0,0-3.2,5.913,17.055,17.055,0,0,0,.68,2.709,19.319,19.319,0,0,1,.73,5.883,1,1,0,0,1,0,.175,16.336,16.336,0,1,1,17.5-27.378Z" transform="translate(-247.688 -90.83)"/>
    <path id="Path_330" data-name="Path 330" class="cls-9" d="M482.008,150.653c-1.795-3.769-5.7-6.158-9.712-7.323a16.312,16.312,0,0,0-9.432-.2,34.6,34.6,0,0,0-4.934,2.314c-3.029,1.53-6.358,2.739-8.638,5.254a2.633,2.633,0,0,0-.865,2.109,5.89,5.89,0,0,0,.855,1.53,4.642,4.642,0,0,1,.045,3.844,35.249,35.249,0,0,0-1.41,3.694,3.886,3.886,0,0,0,.76,3.7,13.849,13.849,0,0,0,1.43,1,7.523,7.523,0,0,1,1.355,1.54l2.7,3.689A37.413,37.413,0,0,1,457.54,177a24.749,24.749,0,0,0,2.089,3.964,4.523,4.523,0,0,0,3.789,2.024.735.735,0,0,0,.6-.285.79.79,0,0,0,.075-.375,19.186,19.186,0,0,0-.715-5.863,16.922,16.922,0,0,1-.68-2.709,6.023,6.023,0,0,1,3.2-5.913c2.4-1.21,5.434-.7,7.733-2.084,1.79-1.08,2.764-3.084,3.644-5,.965-2.069,1.5-3.864,3.5-5.029S483,152.638,482.008,150.653Z" transform="translate(-239.525 -81.345)"/>
    <path id="Path_331" data-name="Path 331" class="cls-6" d="M501.63,693.06s2.5,3.184,1.849,5S501.63,693.06,501.63,693.06Z" transform="translate(-266.465 -356.689)"/>
    <path id="Path_332" data-name="Path 332" class="cls-6" d="M569.28,704.632s.555-4.269,2.779-4.309,2.334-.23,4.034.425,3.294,1.67,2.784,1.82-2.924-2.439-5.4-1.115A17.854,17.854,0,0,0,569.28,704.632Z" transform="translate(-300.299 -360.294)"/>
    <path id="Path_333" data-name="Path 333" class="cls-6" d="M480.188,245.69l7-4.9s-10.237-6.048-11.457-5.2-2.059,8.5-2.059,8.5Z" transform="translate(-252.481 -127.85)"/>
    <path id="Path_334" data-name="Path 334" class="cls-10" d="M480.128,244.965l7-5s-10.237-6.048-11.457-5.2-2.059,8.918-2.059,8.918Z" transform="translate(-252.451 -127.44)"/>
    <path id="Path_335" data-name="Path 335" class="cls-7" d="M480.128,244.965l7-5s-10.237-6.048-11.457-5.2-2.059,8.918-2.059,8.918Z" transform="translate(-252.451 -127.44)"/>
    <path id="Path_336" data-name="Path 336" class="cls-8" d="M452.877,234.627l-.21-.1a1.815,1.815,0,0,0-1.964.2l-20.994,17.03s-4.564,6.313-3.929,17.205l12.382,17.54s1.415-5.938,3.109-4.809c0,0,2.4,30.417,0,34.8s-3.464,20.794-3.464,20.794l8.133.92s.85-11.107,2.759-15.066,2.949-17.57,2.949-17.57,1.72-19.775,1.435-28.262-2.759-26.738-2.759-26.738S451.018,239.875,452.877,234.627Z" transform="translate(-228.499 -127.259)"/>
    <path id="Path_337" data-name="Path 337" class="cls-6" d="M513.163,238.988l-8.723-3.229s11.107-12.167,12.5-5.419Z" transform="translate(-267.87 -124.247)"/>
    <path id="Path_338" data-name="Path 338" class="cls-10" d="M513.163,238.138l-8.723-3.229s11.107-12.167,12.5-5.419Z" transform="translate(-267.87 -123.822)"/>
    <path id="Path_339" data-name="Path 339" class="cls-7" d="M513.163,238.138l-8.723-3.229s11.107-12.167,12.5-5.419Z" transform="translate(-267.87 -123.822)"/>
    <path id="Path_340" data-name="Path 340" class="cls-6" d="M521.32,228.114a.5.5,0,0,1,.36.08Z" transform="translate(-276.313 -124.15)"/>
    <path id="Path_341" data-name="Path 341" class="cls-8" d="M523,226.421l23.144,5s6.368,1.415,10.967,17.4-6.3,35.57-6.3,35.57l-2.4-2.044,1.2,46.682s-10.682,4.029-14.076.5-3.039-20.1-3.039-20.1-3.254-30.552-5.309-35.575-1-41.234-1-41.234S524.3,226.141,523,226.421Z" transform="translate(-277.153 -123.302)"/>
    <path id="Path_342" data-name="Path 342" class="cls-6" d="M565.056,285.73c-.325.3-.7,14.426.71,25.178a137.215,137.215,0,0,0,4,19.38l-2.1-43.073S566.046,284.81,565.056,285.73Z" transform="translate(-298.035 -152.864)"/>
    <path id="Path_343" data-name="Path 343" class="cls-6" d="M559.7,261.6c.565.355,3.044,6.223,1.909,8.628S559.7,261.6,559.7,261.6Z" transform="translate(-295.508 -140.901)"/>
    <path id="Path_344" data-name="Path 344" class="cls-6" d="M494.389,153.459a12.776,12.776,0,0,0-5.089-5.329,12.1,12.1,0,0,1,3.814,4.5c1,2,.7,4-1.24,5.094s-2.549,2.959-3.5,5.029c-.885,1.894-1.859,3.9-3.649,5-2.3,1.39-5.334.875-7.733,2.084a6.038,6.038,0,0,0-3.2,5.918,17,17,0,0,0,.685,2.7,19.335,19.335,0,0,1,.73,5.883.789.789,0,0,1-.08.375.715.715,0,0,1-.595.285,3.444,3.444,0,0,1-1.745-.325,4.059,4.059,0,0,0,3,1.175.59.59,0,0,0,.67-.66,19.179,19.179,0,0,0-.725-5.883,16.424,16.424,0,0,1-.685-2.709,6.023,6.023,0,0,1,3.2-5.913c2.4-1.21,5.434-.7,7.733-2.084,1.789-1.08,2.764-3.084,3.644-5,.965-2.069,1.5-3.864,3.5-5.029S495.389,155.443,494.389,153.459Z" transform="translate(-252.041 -84.15)"/>
    <path id="Path_345" data-name="Path 345" class="cls-11" d="M703.379,227.729c-6.888-.135-12.966-5-16.411-10.942a11,11,0,0,1-1.66-4.684,5.407,5.407,0,0,1,.19-1.12,11.614,11.614,0,0,0,.5-1.715,3.005,3.005,0,0,0,0-.7s0,0,0-.04a4.135,4.135,0,0,0-1.5-3.364c-.92-.865-2.074-1.5-3.034-2.359-2.959-2.6-3.859-6.768-3.914-10.737v-.21c.035-1.7.17-3.4.155-5.1a21.458,21.458,0,0,0-.125-2.889,9.547,9.547,0,0,0-3.089-6.388c-4.929-4-13.216.165-18.32-3.614-1.24-.925-2.244-2.289-3.749-2.649a6.316,6.316,0,0,0-3.424.465c-3.759,1.24-7.953,2.869-9.422,6.5-.84,2.084-.6,4.464-1.375,6.573a32.822,32.822,0,0,1-2.149,3.969,6.213,6.213,0,0,0-.8,3.314,3.74,3.74,0,0,0,.245,1.765,4.5,4.5,0,0,0,1.225,1.755,5.828,5.828,0,0,1-.73,1.17c-.96,1.175-2.434,2-3.434,3.169-1.85,2.144-1.779,5.059-.87,7.578s2.554,4.814,3.689,7.268a3.9,3.9,0,0,1,.375,3.314,9.5,9.5,0,0,1-1.66,1.929,6.063,6.063,0,0,0-1.5,3.349c-11.252,2.569-11.262,11.612-11.262,11.612h0l-6.078,15.286s-.975,2.574-2.119,5.973l-7.193-1.29,5,8.368c-.945,3.409-1.615,6.568-1.395,8.158,0,0-2.234,10.5,1.74,12.332l8.768,3.944a5.194,5.194,0,0,0,1.215.545l.355.16a.94.94,0,0,0,.82,0h.12a1.18,1.18,0,0,0,.5-.075,1,1,0,0,0,.44-.475.149.149,0,0,1,0-.05l2.624-.76,2.224,2.634c1,.7,2,1.315,2.944,1.865l-3.444,34.2s-.555,45.488-2.234,55.855a29.033,29.033,0,0,0-.39,8.238l-.065.11c.415,2.924,1.5,3.5,1.5,3.5v-.04a.324.324,0,0,0,.065.04,29.451,29.451,0,0,1,1.8-3.859v.75c-.035,3.859-.155,9.263-.555,12.777-.68,6,1.74,25.768,1.74,25.768l.835,18a16.636,16.636,0,0,1-2.049,8.768c-2,3.594-4.554,8.653-4.739,10.9a2.248,2.248,0,0,0,0,.365h0l-4.289,5.159s-1.674,2.589,2.109,3.634c2.034.565,5.544,0,8.363-.665a5.589,5.589,0,0,0,4.334-5.439,19.244,19.244,0,0,1,3.539-6.793l.7,4.144,4.719,1.17.6-11.357a5,5,0,0,0,.325-2h0c.93-8.078-2.189-7.353-2.189-7.353a.435.435,0,0,1,.15.28l-.15-.275h0c-1.914-3.779-1-10-1-10s2.5-18,3.354-22.749c.615-3.359.36-14.356.155-20.494a7.325,7.325,0,0,0-.025-.745c7.318-.1,16.286-.34,22.579-.95v.74l-1.16,42.513a23.338,23.338,0,0,1-1.63,7.908.431.431,0,0,1-.055.145,34.49,34.49,0,0,0-2.3,11.142l-.54,13.5v.375h0c-.94.36-2.424,1.4-2.464,4.434-.065,4.439,7.758,2.959,7.758,2.959,7.818,0,7.883-8.138,7.883-8.138s.245-7.463.62-12.457-1.18-3.894-1.18-3.894l-.12,14.206V453.578l.12-1.8v-.05h0v-.385l.985-14.651s7.2-24.413,8.318-29.1c.795-3.329.465-13.356.2-18.9a4.408,4.408,0,0,0-.04-.735c2.234-.2,4.209-.22,5-.22h.365s-.37-39.209-1.3-53.985-2.419-28.3-6.143-32.366c-2.249-2.459-5.384-10.052-7.5-15.676a78.415,78.415,0,0,0,13.781,4.5c11.792,2.469,10.177-7.768,10.177-7.768l-1.195-19.36h.08a98.716,98.716,0,0,0-1.3-15.136,44.529,44.529,0,0,0-3.039-11c1.28-.5,2.544-1.035,3.784-1.585,3.2-1.415,6.813-3.419,7.273-6.873h-.155a4.466,4.466,0,0,0,.12-.76Zm-73.1,27.992h0c.025,2-.05,5.469-.17,9.3l-3.744-5,3.754-6.088ZM680.45,265.874Zm1.56,7.563-6.238-2a27.993,27.993,0,0,1,3.854-4.769l.54-.5-.195.04.3-.275.18-.04-.285.275.34-.07a10.642,10.642,0,0,0,2.124,4.274c2.239,2.444-.615,3.064-.615,3.064Z" transform="translate(-318.634 -95.648)"/>
    <path id="Path_346" data-name="Path 346" class="cls-12" d="M644.783,715.66l-.73,13.836-4.654-1.165-.98-5.753Z" transform="translate(-319.303 -357.925)"/>
    <path id="Path_347" data-name="Path 347" class="cls-6" d="M644.783,715.66l-.73,13.836-4.654-1.165-.98-5.753Z" transform="translate(-319.303 -357.925)"/>
    <path id="Path_348" data-name="Path 348" class="cls-13" d="M716.48,678.826l7.1,1.47,5.264-4.649v-13.1l.12-1.79V660.7h0v-.38l.98-14.561s7.1-24.238,8.208-28.892c.78-3.3.455-13.256.2-18.76-.1-2.254-.2-3.764-.2-3.764l-15.671-3.794-.33,12.047L721,644.805a23.389,23.389,0,0,1-1.6,7.853l-.055.145a34.351,34.351,0,0,0-2.274,11.057l-.53,13.421v.37Z" transform="translate(-373.919 -305.42)"/>
    <path id="Path_349" data-name="Path 349" class="cls-6" d="M741.45,730.14v.37h0v-.38Z" transform="translate(-386.407 -375.229)"/>
    <path id="Path_350" data-name="Path 350" class="cls-6" d="M716.48,762.854l7.1,1.47,5.264-4.649V758.56a1.5,1.5,0,0,1-.755,1.2l-.075.045a14.146,14.146,0,0,1-7.968,1.575l-2.769-.235a2.594,2.594,0,0,0-.735.18v.37Z" transform="translate(-373.919 -389.448)"/>
    <path id="Path_351" data-name="Path 351" class="cls-5" d="M725.621,746.228l.075-.04a1.5,1.5,0,0,0,.765-1.3l.115-14.1s1.53-1.095,1.16,3.864-.61,12.367-.61,12.367-.06,8.078-7.773,8.078c0,0-7.713,1.47-7.653-2.939s3.184-4.589,3.184-4.589l2.769.24A14.112,14.112,0,0,0,725.621,746.228Z" transform="translate(-371.528 -375.506)"/>
    <path id="Path_352" data-name="Path 352" class="cls-13" d="M642.52,680.448c.18,3.184,9.547,1.345,9.547,1.345l6.3-12.237s5.264-4.044,2.629-7.593a5.677,5.677,0,0,1-.385-.6l-.025-.03h0c-.055-.09-.1-.185-.155-.285h0c-1.89-3.749-.96-9.9-.96-9.9s2.444-17.875,3.3-22.589c.6-3.329.355-14.251.155-20.359-.08-2.539-.155-4.244-.155-4.244l-15.551-4.164v4.639c-.035,3.834-.155,9.2-.55,12.687-.67,5.933,1.714,25.583,1.714,25.583l.825,17.88a16.561,16.561,0,0,1-2,8.7c-1.949,3.569-4.5,8.6-4.674,10.822A2.188,2.188,0,0,0,642.52,680.448Z" transform="translate(-336.929 -310.041)"/>
    <path id="Path_353" data-name="Path 353" class="cls-6" d="M642.516,742.05c.18,3.184,9.547,1.345,9.547,1.345l6.3-12.237s5.264-4.044,2.629-7.593a5.665,5.665,0,0,1-.385-.6c-.085,1.854-2.119,6.5-2.119,6.5s-5.2,10.412-6.858,12.8-8.843-.445-9.113-.545A2.187,2.187,0,0,0,642.516,742.05Z" transform="translate(-336.925 -371.643)"/>
    <path id="Path_354" data-name="Path 354" class="cls-5" d="M655.784,722.284s3.079-.715,2.159,7.3h0a5.164,5.164,0,0,1-2.434,4.584,17.5,17.5,0,0,0-7.323,10.157h0a5.538,5.538,0,0,1-4.274,5.4c-2.779.65-6.243,1.22-8.248.66-3.734-1.04-2.079-3.609-2.079-3.609l4.284-5.084s7.468,2.939,9.118.55,6.858-12.792,6.858-12.792S656.7,722.958,655.784,722.284Z" transform="translate(-332.277 -371.297)"/>
    <path id="Path_355" data-name="Path 355" class="cls-6" d="M728.15,593.52l-.33,12.047c4.174-.4,7.163-.97,7.673-1.765,1.1-1.71,5.114-2.429,8.523-2.724-.1-2.254-.195-3.764-.195-3.764Z" transform="translate(-379.591 -306.906)"/>
    <path id="Path_356" data-name="Path 356" class="cls-6" d="M651.94,607.359a5.718,5.718,0,0,1,1.715-2.07c1.65-.915,1.47,5.878,1.47,5.878s5.5.05,12.522-.04c-.08-2.539-.155-4.249-.155-4.249L651.94,602.72S651.97,604.649,651.94,607.359Z" transform="translate(-341.64 -311.507)"/>
    <path id="Path_357" data-name="Path 357" class="cls-4" d="M646.769,501.664s1.839-5,3.5-5.888,1.47,5.873,1.47,5.873,40.4.37,42.419-2.754,13.771-2.939,13.771-2.939-.365-38.93-1.285-53.616-2.384-28.1-6.058-32.136c-2.374-2.614-5.753-11.072-7.843-16.711-1.135-3.079-1.89-5.324-1.89-5.324l-38.56,2.2-.315,3.124-4.094,40.949s-.55,45.173-2.2,55.455S646.769,501.664,646.769,501.664Z" transform="translate(-338.244 -204.203)"/>
    <g id="Group_69" data-name="Group 69" class="cls-14" transform="translate(306.951 183.967)">
      <path id="Path_358" data-name="Path 358" d="M699.87,498.9c2-3.119,13.771-2.939,13.771-2.939s-.365-38.929-1.285-53.616-2.384-28.1-6.058-32.136c-2.384-2.624-5.753-11.072-7.843-16.71-.955-2.589-1.64-4.584-1.829-5.154l3-.17s.755,2.244,1.894,5.324c2.089,5.638,5.464,14.1,7.838,16.71,3.674,4.039,5.144,17.445,6.058,32.136s1.29,53.615,1.29,53.615-11.752-.18-13.776,2.939c-1.725,2.664-31.452,2.789-40.079,2.764C673.922,501.634,698.31,501.3,699.87,498.9Z" transform="translate(-654.047 -388.17)"/>
      <path id="Path_359" data-name="Path 359" d="M647.174,603.354c.745-.415,1.115.735,1.3,2.129a28.836,28.836,0,0,0-1.735,3.759s-1.065-.575-1.5-3.5A6.805,6.805,0,0,1,647.174,603.354Z" transform="translate(-645.24 -495.748)"/>
    </g>
    <path id="Path_360" data-name="Path 360" class="cls-9" d="M664.536,194.214c-2.669,3.639.03,8.813-2.834,12.352-.945,1.17-2.4,2-3.384,3.149-1.825,2.129-1.755,5.024-.86,7.523s2.5,4.779,3.639,7.218a3.862,3.862,0,0,1,.37,3.289,9.317,9.317,0,0,1-1.64,1.914,6.9,6.9,0,0,0-.9,7.328c.99,2.419,2.879,4.5,4.744,6.548a3.238,3.238,0,0,0,4.7,1.075,18.5,18.5,0,0,0,8.418-24.138c-1.55-3.714-4.134-7.273-4.159-11.2,0-3.114,1.6-6.088,1.885-9.188.345-3.769-1.885-9.752-6.433-11.4C668.385,191.109,665.891,192.344,664.536,194.214Z" transform="translate(-344.094 -104.436)"/>
    <path id="Path_361" data-name="Path 361" class="cls-6" d="M664.536,194.214c-2.669,3.639.03,8.813-2.834,12.352-.945,1.17-2.4,2-3.384,3.149-1.825,2.129-1.755,5.024-.86,7.523s2.5,4.779,3.639,7.218a3.862,3.862,0,0,1,.37,3.289,9.317,9.317,0,0,1-1.64,1.914,6.9,6.9,0,0,0-.9,7.328c.99,2.419,2.879,4.5,4.744,6.548a3.238,3.238,0,0,0,4.7,1.075,18.5,18.5,0,0,0,8.418-24.138c-1.55-3.714-4.134-7.273-4.159-11.2,0-3.114,1.6-6.088,1.885-9.188.345-3.769-1.885-9.752-6.433-11.4C668.385,191.109,665.891,192.344,664.536,194.214Z" transform="translate(-344.094 -104.436)"/>
    <path id="Path_362" data-name="Path 362" class="cls-6" d="M702.142,464.55c-5.344.28-10.372,2.579-15.051,5.179s-9.208,5.544-14.241,7.388" transform="translate(-352.098 -242.403)"/>
    <path id="Path_363" data-name="Path 363" class="cls-6" d="M699.713,489.74a22.029,22.029,0,0,0-13.871,6.748c-1.3,1.375-2.419,2.914-3.774,4.234a16.766,16.766,0,0,1-7.438,4.214" transform="translate(-352.988 -255.001)"/>
    <path id="Path_364" data-name="Path 364" class="cls-6" d="M696.737,508.91a24.253,24.253,0,0,0-11.157,6.728c-.82.885-1.565,1.829-2.384,2.714-4.424,4.749-10.672,7.268-16.705,9.652" transform="translate(-348.917 -264.589)"/>
    <path id="Path_365" data-name="Path 365" class="cls-13" d="M704.869,242.8a109.678,109.678,0,0,0,1.1,12.757c.5,3,1.2,5.7,2.2,6.893,2.939,3.5-14.321,8.173-14.321,8.173l-10.192-7.9s8.078-7.438,4.314-14.691S704.869,242.8,704.869,242.8Z" transform="translate(-357.505 -131.37)"/>
    <path id="Path_366" data-name="Path 366" class="cls-6" d="M658.79,393.494h40.764c-1.135-3.079-1.89-5.324-1.89-5.324l-38.56,2.2Z" transform="translate(-345.066 -204.203)"/>
    <path id="Path_367" data-name="Path 367" class="cls-7" d="M645.578,334.778h43.583a15.122,15.122,0,0,1,1.745-11.557,25.539,25.539,0,0,1,4.564-5.918l.3-.275,15.216-3.369.82-.18s.125-27.668-9.672-31.466a57.279,57.279,0,0,1-15.671-8.933L673,277.239l-9.917-5c-3.184,3.424-11.632,2.079-11.632,2.079-13.831,1.59-13.831,12-13.831,12s8.078,18.85,8.693,18.85S645.578,334.778,645.578,334.778Z" transform="translate(-334.478 -146.222)"/>
    <path id="Path_368" data-name="Path 368" class="cls-6" d="M671.722,356.744s-8.888-1.969-11.912-5.414" transform="translate(-345.576 -185.778)"/>
    <path id="Path_369" data-name="Path 369" class="cls-6" d="M762.977,341.51l-10.307,8.448a17.55,17.55,0,0,0,.34,2l.3-.275,15.216-3.369Z" transform="translate(-392.019 -180.866)"/>
    <path id="Path_370" data-name="Path 370" class="cls-6" d="M717.46,379.467s2.254,1.27,5.708,2.939h5.923a15.122,15.122,0,0,1,1.745-11.557l-10.442-3.379C723.948,370.774,717.46,379.467,717.46,379.467Z" transform="translate(-374.409 -193.85)"/>
    <path id="Path_371" data-name="Path 371" class="cls-7" d="M631.484,293.76l-6.118,3.3-6,15.181s-6.243,16.646-5.634,21.054c0,0-2.2,10.407,1.715,12.242l10.2,4.619a.95.95,0,0,0,1.225-1.31c-1.455-2.754-3.054-7.063-.5-9.432l-2.939-6.118,10.622-17.385,3.549-6Z" transform="translate(-322.224 -156.985)"/>
    <path id="Path_372" data-name="Path 372" class="cls-6" d="M677.01,350.99c.53,2.159,2.319,5.5,8.243,6.743l6.5,5.324,6.913,3.134,2.819,1.275,1.195-8.633-2.714-1.5L696.8,355.6s-7.138-12.931-18.44-7.5a2.5,2.5,0,0,0-1.35,2.884Z" transform="translate(-354.139 -183.499)"/>
    <path id="Path_373" data-name="Path 373" class="cls-13" d="M677.761,349.549c.53,2.164,2.314,5.5,8.238,6.743l6.5,5.324,6.918,3.134,2.814,1.275,1.195-8.633-2.714-1.5-3.139-1.715s-7.143-12.932-18.445-7.473a2.5,2.5,0,0,0-1.365,2.844Z" transform="translate(-354.52 -182.793)"/>
    <circle id="Ellipse_23" data-name="Ellipse 23" class="cls-6" cx="15.791" cy="15.791" r="15.791" transform="translate(320.187 91.047)"/>
    <circle id="Ellipse_24" data-name="Ellipse 24" class="cls-13" cx="15.791" cy="15.791" r="15.791" transform="translate(320.187 90.682)"/>
    <path id="Path_374" data-name="Path 374" class="cls-6" d="M718.129,284.5l-4.749-9.228s6.948-2.809,7.453-6.063,6.658,3.814,5.328,6.158S718.129,284.5,718.129,284.5Z" transform="translate(-372.369 -144.285)"/>
    <path id="Path_375" data-name="Path 375" class="cls-7" d="M718.129,283.029,713.38,273.8s6.948-2.809,7.453-6.063,6.658,3.819,5.328,6.158S718.129,283.029,718.129,283.029Z" transform="translate(-372.369 -143.55)"/>
    <path id="Path_376" data-name="Path 376" class="cls-15" d="M626.185,343.429,652.423,378.7s-9.672,5.264-22.994-4.159l-5.753-6.858L607.25,340Z" transform="translate(-319.289 -180.111)"/>
    <path id="Path_377" data-name="Path 377" class="cls-13" d="M634.185,376.137l2.389-.065s14.6-14.166,18.18-7-9.093,13.866-9.093,13.866l-3.854,2.079-5.024,1.5-3.214-4.314Z" transform="translate(-332.453 -193.639)"/>
    <path id="Path_378" data-name="Path 378" class="cls-6" d="M634.4,391.38a3.566,3.566,0,0,1,.06,2.469,1,1,0,0,1-.435.475,1.115,1.115,0,0,1-.5.07,5.023,5.023,0,0,1-3.294-1.63,15.045,15.045,0,0,1-2.134-3.089A5.7,5.7,0,0,1,627,386c.26-1.4,1.5-2.379,2.714-3.169,2.419-1.6,2.5.265,3.029,2.324S633.847,389.3,634.4,391.38Z" transform="translate(-329.146 -201.229)"/>
    <path id="Path_379" data-name="Path 379" class="cls-7" d="M633.67,391.38a3.594,3.594,0,0,1,.06,2.469,1,1,0,0,1-.435.475,1.124,1.124,0,0,1-.5.07,5,5,0,0,1-3.294-1.63,14.869,14.869,0,0,1-2.139-3.089,5.665,5.665,0,0,1-1.09-3.679c.255-1.4,1.5-2.379,2.709-3.169,2.424-1.6,2.5.265,3.034,2.324S633.11,389.3,633.67,391.38Z" transform="translate(-328.779 -201.229)"/>
    <path id="Path_380" data-name="Path 380" class="cls-6" d="M623.85,315.874l1.22-2.064L624,317.644Z" transform="translate(-312.016 -156.945)"/>
    <path id="Path_381" data-name="Path 381" class="cls-6" d="M721.19,375.288,724,376.562l1.195-8.633-2.714-1.5C724.359,368.579,722.72,372.553,721.19,375.288Z" transform="translate(-376.275 -193.33)"/>
    <path id="Path_382" data-name="Path 382" class="cls-6" d="M730.836,362.174s-9.088.555-12.946-1.924" transform="translate(-374.624 -190.239)"/>
    <g id="Group_70" data-name="Group 70" class="cls-14" transform="translate(316.393 126.738)">
      <path id="Path_383" data-name="Path 383" d="M737.479,325.531a25.583,25.583,0,0,1,4.564-5.923,12.189,12.189,0,0,1,1.345-.73l14.166-2.909.82-.18s.125-27.668-9.667-31.466a58.845,58.845,0,0,1-15.276-8.6l1.075-.33a57.128,57.128,0,0,0,15.671,8.933c9.8,3.794,9.667,31.466,9.667,31.466h-1.47l-14.5,2.774s-.625.6-.815.78a28.091,28.091,0,0,0-4.634,6.128,15.366,15.366,0,0,0-1.215,11.617h-1.5A15.28,15.28,0,0,1,737.479,325.531Z" transform="translate(-698.789 -274.535)"/>
      <path id="Path_384" data-name="Path 384" d="M664.13,277.9c.235-.035.46-.07.7-.095a25.337,25.337,0,0,0,3,.245A27.26,27.26,0,0,1,664.13,277.9Z" transform="translate(-664.13 -275.746)"/>
      <path id="Path_385" data-name="Path 385" d="M696.728,278.694l-8.968-4.539a4.745,4.745,0,0,0,.5-.475l9.357,4.734Z" transform="translate(-675.948 -273.68)"/>
    </g>
    <path id="Path_386" data-name="Path 386" class="cls-7" d="M746.087,340l6,7.348,1.225,19.955s1.59,10.157-10.037,7.708-25.083-10.017-25.083-10.017,6.5-8.693,2.939-12l16.65,5.389s2.814-.615.61-3.059-2.594-6.858-2.594-6.858Z" transform="translate(-374.774 -180.111)"/>
    <path id="Path_387" data-name="Path 387" class="cls-6" d="M779.42,382.17l3.3,3.794A4.764,4.764,0,0,1,779.42,382.17Z" transform="translate(-405.398 -201.202)"/>
    <path id="Path_388" data-name="Path 388" class="cls-6" d="M736.99,360.8l5.144,6.608-2.569.615Z" transform="translate(-368.601 -180.447)"/>
    <path id="Path_389" data-name="Path 389" class="cls-6" d="M665.32,196.831a5.274,5.274,0,0,1,.55-4.3,33.992,33.992,0,0,0,2.124-3.944c.755-2.089.525-4.454,1.35-6.5,1.455-3.624,5.589-5.244,9.293-6.5a6.247,6.247,0,0,1,3.379-.46c1.5.355,2.474,1.715,3.7,2.629,5.029,3.749,13.206-.38,18.07,3.589a9.458,9.458,0,0,1,3.044,6.338,55.952,55.952,0,0,1-.03,7.208c-.08,4.209.71,8.813,3.859,11.6.95.84,2.069,1.47,3,2.339a4.1,4.1,0,0,1,1.5,3.344,11.6,11.6,0,0,1-.5,1.7c-.625,2.194.31,4.5,1.45,6.5,3.4,5.883,9.392,10.732,16.186,10.867-.455,3.429-4,5.419-7.173,6.823-4,1.795-8.258,3.554-12.662,3.329s-9-3.044-9.767-7.383c-.265-1.5-.23-3.3-1.5-4.084-.78-.475-1.789-.355-2.629-.71-1.215-.5-1.814-1.865-2.214-3.119a28.077,28.077,0,0,1-1.3-8c-.055-3.219.37-6.733-1.455-9.383-1.69-2.454-4.689-3.7-6.638-5.953-1.8-2.089-3.754-4.609-6.7-5C676.167,197.191,667.729,202.734,665.32,196.831Z" transform="translate(-348.202 -97.606)"/>
    <path id="Path_390" data-name="Path 390" class="cls-9" d="M665.32,195.361a5.274,5.274,0,0,1,.55-4.3,33.992,33.992,0,0,0,2.124-3.944c.755-2.089.525-4.454,1.35-6.5,1.455-3.629,5.589-5.249,9.293-6.5a6.247,6.247,0,0,1,3.379-.46c1.5.355,2.474,1.715,3.7,2.629,5.029,3.749,13.206-.38,18.07,3.589a9.459,9.459,0,0,1,3.044,6.343,55.871,55.871,0,0,1-.03,7.2c-.08,4.209.71,8.813,3.859,11.6.95.84,2.069,1.47,3,2.339a4.1,4.1,0,0,1,1.5,3.344,11.6,11.6,0,0,1-.5,1.7c-.625,2.194.31,4.5,1.45,6.5,3.409,5.863,9.377,10.727,16.171,10.862-.455,3.429-4,5.419-7.173,6.828-4,1.789-8.258,3.549-12.662,3.324s-9-3.044-9.767-7.383c-.265-1.5-.23-3.3-1.5-4.084-.78-.475-1.789-.355-2.629-.71-1.215-.5-1.815-1.865-2.214-3.119a28.042,28.042,0,0,1-1.3-8c-.055-3.219.37-6.733-1.455-9.382-1.69-2.454-4.689-3.7-6.638-5.953-1.8-2.089-3.754-4.609-6.7-5C676.167,195.721,667.729,201.274,665.32,195.361Z" transform="translate(-348.202 -96.87)"/>
    <path id="Path_391" data-name="Path 391" class="cls-6" d="M684.883,283.812l9.053-7.348s-6.2-3.359-6.938-6.223-5.7,1.36-5.194,3.929S684.883,283.812,684.883,283.812Z" transform="translate(-356.558 -144.743)"/>
    <path id="Path_392" data-name="Path 392" class="cls-7" d="M685.623,281.607l9.053-7.343s-6.2-3.359-6.908-6.223-5.7,1.36-5.194,3.929S685.623,281.607,685.623,281.607Z" transform="translate(-356.944 -143.643)"/>
    <circle id="Ellipse_25" data-name="Ellipse 25" class="cls-6" cx="0.72" cy="0.72" r="0.72" transform="translate(337.367 136.05)"/>
    <circle id="Ellipse_26" data-name="Ellipse 26" class="cls-6" cx="0.72" cy="0.72" r="0.72" transform="translate(337.367 140.049)"/>
    <circle id="Ellipse_27" data-name="Ellipse 27" class="cls-6" cx="0.72" cy="0.72" r="0.72" transform="translate(337.367 144.043)"/>
    <g id="Group_71" data-name="Group 71" class="cls-14" transform="translate(316.972 82.135)">
      <path id="Path_393" data-name="Path 393" d="M671.95,190.6c.715-1.964.56-4.169,1.23-6.148a6.716,6.716,0,0,0-.765,1.41c-.83,2.064-.595,4.429-1.355,6.5l-.05.12A11.419,11.419,0,0,0,671.95,190.6Z" transform="translate(-668.15 -184.45)"/>
      <path id="Path_394" data-name="Path 394" d="M726.2,251.088c-4,1.79-8.258,3.549-12.662,3.324s-9-3.044-9.767-7.378c-.265-1.5-.23-3.309-1.5-4.089-.78-.475-1.789-.355-2.629-.71-1.215-.5-1.815-1.865-2.214-3.119a28.042,28.042,0,0,1-1.3-8c-.055-3.214.375-6.728-1.45-9.382-1.695-2.454-4.694-3.694-6.643-5.953-1.8-2.084-3.754-4.609-6.7-5-4.044-.55-12.5,5-14.886-.91a4.648,4.648,0,0,1,.155-3.414c-.175.295-.345.59-.5.89a5.3,5.3,0,0,0-.545,4.309c2.4,5.9,10.842.355,14.886.91,2.949.4,4.9,2.924,6.7,5,1.949,2.259,4.949,3.5,6.638,5.958,1.829,2.649,1.4,6.163,1.455,9.377a28.042,28.042,0,0,0,1.3,8c.4,1.26,1,2.609,2.214,3.119.84.355,1.849.24,2.629.71,1.29.78,1.255,2.6,1.5,4.089.78,4.334,5.369,7.153,9.767,7.378s8.638-1.53,12.662-3.324c2.9-1.29,6.128-3.074,7-6C730.916,248.774,728.457,250.083,726.2,251.088Z" transform="translate(-665.288 -195.458)"/>
    </g>
    <path id="Path_395" data-name="Path 395" class="cls-16" d="M868.016,295.994c-10.582-6.088-14.581-7.588-14.6-7.588l-.22-.155a8.8,8.8,0,0,1-2.664-3.369,7.019,7.019,0,0,1,0-.725.305.305,0,0,0,0,.07c.165-3.224,2.459-6.158,4.634-8.718l5.563-6.543a6.448,6.448,0,0,0,1.435-2.269,5.235,5.235,0,0,0,.15-1.395v-.57c-.03-1.625-.075-3.254-.135-4.879-.05-1.42-.415-3.209-1.834-3.5-.74-.15-1.72.115-2.109-.5a1.214,1.214,0,0,1-.095-.845.286.286,0,0,0,0,.07V255a18.829,18.829,0,0,0,.525-3.344,4.558,4.558,0,0,0-.23-1.695c-.82-2.354-3.654-3.324-6.158-3.769s-5.314-.825-6.883-2.784a20.388,20.388,0,0,0-1.37-1.884,5.4,5.4,0,0,0-2.559-1.265,14.5,14.5,0,0,0-9.312.81,8.359,8.359,0,0,1-3.754,1.19c-1.33-.08-2.559-1.04-3.919-1.27-2.2-.375-4.3,1.24-5.389,3.154a7.713,7.713,0,0,0-1,3.719v.22h0a5.439,5.439,0,0,0,1.43,3.8c.95,1,2.359,1.66,2.754,2.954.16.525.12,1.095.265,1.63a1.471,1.471,0,0,0,.06.195l-.07.095a16.5,16.5,0,0,0-3.5,10.167,16.875,16.875,0,0,0,11.857,16c0,.165,0,.33,0,.5a7.192,7.192,0,0,1-2.3,5.6L813.6,295s-9.038-1.075-12.3,12.132a22.52,22.52,0,0,0-.56,6.7,19.417,19.417,0,0,1-2.5,10.032c-3.7,7.258-2.859,23.919,4.719,25.568,7.153,1.56,9.952.91,10.247.835v.29c-.12,3.129-1.255,30.092-5.379,33.351-1.14.9-.93,1.5,0,1.924,0,0,0,.175-.025.5-.125,2-.76,9.5-3.5,13.756-3.2,4.949-2.869,33.491-2.869,33.491l-2.184,16.825s1.345,10.392,0,12.207c-1.2,1.615-2.8,40.059-3.139,48.4h-.14a4.059,4.059,0,0,0-3.239,2c-1.77,2.874-7.968,8.188-7.968,8.188-1.345,1.909-6.318,3.739-8.948,4.6a5.555,5.555,0,0,0-1,.44,5.333,5.333,0,0,0-2.259,2.379,2.554,2.554,0,0,0-.24,2c.67,1.645,14.651,2.8,18.19,1.15,2.779-1.295,13.8-3,18.37-3.669a3.769,3.769,0,0,0,3.269-3.269,2.155,2.155,0,0,0-.42-1.635c-.875-1.085-1.32-4.049-1.5-6a4.053,4.053,0,0,0,1.03-.61,43.914,43.914,0,0,1,2.5-17.65c3.369-8.908,4.379-25.4,3.539-36.125,0,0,10.272-44.208,18.36-48.332h0c.125.16,4.049,5.194,4.549,20.784.5,15.836,6.228,26.228,6.228,26.228s-2.529,26.888,0,36.95l-3.3,15.871c-.245-.2-.4-.365-.4-.365s.1.44.235,1.145l-.07.34.145.03a31.238,31.238,0,0,1,.7,7.5c-.13,1.155-.455,2.739-.675,4.294-.35,2.444-.445,4.814.84,5.334,2.109.85,14.5,2,16.6-.72a3.894,3.894,0,0,0,.61-4.074,4.127,4.127,0,0,0-.61-1.04s-3.289-5.374-2.359-9.163a2.789,2.789,0,0,0-.4-2.174,111.754,111.754,0,0,1,2.834-17.775c2.109-7.938,6.553-25.343,3.284-36.785h0q-.185-.675-.42-1.32a49.4,49.4,0,0,1-1.854-19.3,39.334,39.334,0,0,1,0-16.825c2.024-9.238,3.439-18.31,3.439-18.31s1.115-12.207.14-19.69a4.918,4.918,0,0,0-.065-.5l.53-.12s-2.864-12.7-3.874-20.784c-.24-1.909-.55-4.324-.89-6.9a17.62,17.62,0,0,0,2.744-.685c9.093-3.134,11.957-31.492,11.957-31.492v-9S878.628,302.1,868.016,295.994ZM800.254,515.055c-.28-.14-.445-.235-.445-.235h0Z" transform="translate(-401.793 -130.017)"/>
    <path id="Path_396" data-name="Path 396" class="cls-17" d="M887.077,599.053c3.944,11.342-.66,29.752-2.8,37.99a114.84,114.84,0,0,0-2.794,18.085,38.087,38.087,0,0,1-14.466-.33l3.454-16.93c-2.469-10.027,0-36.825,0-36.825s-5.589-10.357-6.083-26.138c-.5-15.531-4.314-20.554-4.434-20.709h0c-7.888,4.109-17.915,48.167-17.915,48.167.82,10.682-.17,27.123-3.454,35.99a44.488,44.488,0,0,0-2.464,17.585,5.348,5.348,0,0,1-4.5.86c-4.694-.76-10.322-4.8-10.322-4.8s1.8-47.987,3.124-49.807,0-12.167,0-12.167l2.134-16.766s-.33-28.442,2.794-33.371c2.7-4.259,3.319-11.747,3.439-13.711v-.5l4.759-5.7s46.028-3.454,49.487,0c.845.845,1.37,2.774,1.68,5.2.95,7.458-.14,19.62-.14,19.62s-1.38,9.043-3.354,18.245a40.05,40.05,0,0,0,0,16.77A50.2,50.2,0,0,0,887.077,599.053Z" transform="translate(-426.343 -269.355)"/>
    <path id="Path_397" data-name="Path 397" class="cls-12" d="M929.765,803.571c-2.054,2.714-14.136,1.565-16.2.72-1.255-.5-1.16-2.884-.82-5.319.215-1.545.53-3.124.66-4.274.325-2.959-1-8.963-1-8.963s2.709,2.879,3.364,0a3.135,3.135,0,0,1,2.349-2.229,6.138,6.138,0,0,1,4.269.265c2.134.93,5.693,2.9,5.059,5.573-.9,3.774,2.3,9.133,2.3,9.133a4.156,4.156,0,0,1,.6,1.03,3.944,3.944,0,0,1-.585,4.064Z" transform="translate(-471.911 -401.793)"/>
    <path id="Path_398" data-name="Path 398" class="cls-6" d="M929.884,819.309c-2.054,2.714-14.136,1.565-16.2.72-1.255-.5-1.16-2.884-.82-5.319,1.3.61,3.5,1.115,7.183.775a20.259,20.259,0,0,1,2.584-.08,60.1,60.1,0,0,0,7.848-.16A3.944,3.944,0,0,1,929.884,819.309Z" transform="translate(-472.03 -417.53)"/>
    <path id="Path_399" data-name="Path 399" class="cls-6" d="M852.357,634.921c.82,10.682-.17,27.123-3.454,35.99a44.486,44.486,0,0,0-2.464,17.585,5.347,5.347,0,0,1-4.5.86c1-6.933,5.219-36.805,7.923-60.409a98.848,98.848,0,0,1,17.5-45.368l2.874,3.164C862.385,590.863,852.357,634.921,852.357,634.921Z" transform="translate(-436.666 -301.934)"/>
    <path id="Path_400" data-name="Path 400" class="cls-18" d="M903.74,320.915l-2,9.862L891.909,347.3l-12.122-5.179s-16.5-17.26-6.123-19.725a9.178,9.178,0,0,0,3.439-1.53,7.111,7.111,0,0,0,2.684-5.948,18.233,18.233,0,0,0-1.67-7.068l21.2-6.658a34.034,34.034,0,0,0-1.5,8.588c-.165,5.778,2,8.623,3.744,10A6.369,6.369,0,0,0,903.74,320.915Z" transform="translate(-450.819 -160.701)"/>
    <path id="Path_401" data-name="Path 401" class="cls-6" d="M907.184,301.19a34.036,34.036,0,0,0-1.5,8.588,16.135,16.135,0,0,1-1.235,1.315,16.776,16.776,0,0,1-16.765,3.824A18.236,18.236,0,0,0,886,307.848Z" transform="translate(-458.702 -160.701)"/>
    <path id="Path_402" data-name="Path 402" class="cls-18" d="M899.691,278.985a16.691,16.691,0,1,1-4.89-11.878A16.77,16.77,0,0,1,899.691,278.985Z" transform="translate(-448.774 -141.211)"/>
    <path id="Path_403" data-name="Path 403" class="cls-6" d="M903.74,339.495l-2,9.862-9.832,16.521L879.787,360.7s-16.5-17.26-6.123-19.725a9.178,9.178,0,0,0,3.439-1.53c-1.87,5.139,5.848,15.831,5.848,15.831.9,1.325,2.959.5,2.959.5,4.974-.755,14.126-15.056,15.621-17.435A6.368,6.368,0,0,0,903.74,339.495Z" transform="translate(-450.819 -179.281)"/>
    <path id="Path_404" data-name="Path 404" class="cls-6" d="M900.275,525.173c-2.919.665-19.07,4.239-25.193,3.344-6.738-1-19.84-1.64-19.84-1.64s-8.343.45-10.912-.725v-.5l4.759-5.7s46.028-3.454,49.487,0C899.44,520.819,899.965,522.748,900.275,525.173Z" transform="translate(-437.861 -269.345)"/>
    <path id="Path_405" data-name="Path 405" class="cls-7" d="M858.547,355.925s-8.673-12-5.4-16.7l-14.651,6s-8.818-1.07-12,12.092a22.9,22.9,0,0,0-.545,6.678,19.757,19.757,0,0,1-2.414,10c-3.614,7.233-2.794,23.839,4.6,25.493s10.022.82,10.022.82-1,30.082-5.259,33.536,10.9,2.629,10.9,2.629,13.1.66,19.845,1.645,25.643-3.454,25.643-3.454-2.794-12.657-3.784-20.709-3.294-25.208-3.294-25.208l16.765-22.714s2.959-13.726-7.4-19.81-14.251-7.573-14.251-7.573S866.92,355.6,861.5,356.415C861.506,356.415,859.447,357.245,858.547,355.925Z" transform="translate(-426.42 -179.436)"/>
    <path id="Path_406" data-name="Path 406" class="cls-6" d="M854.384,382.74s-.16,5.429.825,7.563,4.6,14,4.6,14H851.59s4.439-4.769,4.114-7.073S854.384,382.74,854.384,382.74Z" transform="translate(-441.492 -201.487)"/>
    <path id="Path_407" data-name="Path 407" class="cls-18" d="M879.648,441.579s-18.155-4.439-19.845-8.218-6.353-12.242-6.353-12.242l1.914-2.579,8.828,6.928s10.5,8.383,15.456,9.208S879.648,441.579,879.648,441.579Z" transform="translate(-442.423 -219.392)"/>
    <path id="Path_408" data-name="Path 408" class="cls-19" d="M879.648,441.579s-18.155-4.439-19.845-8.218-6.353-12.242-6.353-12.242l1.914-2.579,8.828,6.928s10.5,8.383,15.456,9.208S879.648,441.579,879.648,441.579Z" transform="translate(-442.423 -219.392)"/>
    <path id="Path_409" data-name="Path 409" class="cls-18" d="M904.446,421.771v9.847h-1.58a46.031,46.031,0,0,0-22.362,5.793l-2.961,1.64-.795.445-5.1-11.5,4.769-4.274h.245c1.165.115,6.208.535,8.348-.185,2.029-.69,4.549-2.874,10.527-1.35,2.944.755,5.464,4.054,8.318,3.024Z" transform="translate(-451.525 -220.953)"/>
    <path id="Path_410" data-name="Path 410" class="cls-6" d="M933.185,374.82l3.284,3.7v8.963s-2.794,28.272-11.667,31.4-24.723-1.81-24.723-1.81-4.094-10.847-2.179-11.5,16.92-4.619,16.92-4.619-.21-16.586,3.074-21.519c0,0-2.134-15.451,5.264-15.781S933.185,374.82,933.185,374.82Z" transform="translate(-464.398 -191.938)"/>
    <path id="Path_411" data-name="Path 411" class="cls-7" d="M934.188,374.82l3.289,3.7v8.963s-2.794,28.272-11.672,31.4-24.723-1.81-24.723-1.81-4.094-10.847-2.174-11.5,16.92-4.619,16.92-4.619-.215-16.586,3.074-21.519c0,0-2.139-15.451,5.259-15.781S934.188,374.82,934.188,374.82Z" transform="translate(-464.901 -191.938)"/>
    <path id="Path_412" data-name="Path 412" class="cls-6" d="M898.523,286.044a6.607,6.607,0,0,0-.375-3.2,2.439,2.439,0,0,0-2.609-1.5c-1.4.33-2,2.159-3.389,2.6a2.708,2.708,0,0,1-3-1.54,7.668,7.668,0,0,1-.57-3.579V274.7a6.817,6.817,0,0,0-.97-4.284c-1.145-1.46-3.839-2.1-5.638-2.039a4.784,4.784,0,0,0-3.219,1.295,4.143,4.143,0,0,1-3.384,1.2,2.914,2.914,0,0,1-2.359-2.039v-.05a16.765,16.765,0,1,1,24.923,22.254,45.205,45.205,0,0,0,.59-5Z" transform="translate(-452.205 -141.151)"/>
    <path id="Path_413" data-name="Path 413" class="cls-20" d="M871.021,260.215a2.939,2.939,0,0,1-2.364-2.044c-.135-.53-.1-1.095-.255-1.62-.385-1.295-1.765-1.964-2.689-2.949-1.849-1.964-1.729-5.194-.42-7.558,1.06-1.9,3.109-3.5,5.259-3.139,1.33.23,2.5,1.175,3.829,1.265a7.725,7.725,0,0,0,3.664-1.185,13.806,13.806,0,0,1,9.108-.81,5.248,5.248,0,0,1,2.5,1.265,21.876,21.876,0,0,1,1.335,1.874c1.53,1.949,4.274,2.334,6.718,2.774s5.209,1.41,6,3.759c.535,1.56,0,3.249-.29,4.869a1.469,1.469,0,0,0,.065,1c.385.63,1.34.365,2.059.5,1.385.295,1.74,2.079,1.795,3.5q.085,2.429.13,4.864a6.194,6.194,0,0,1-.145,1.8,6.352,6.352,0,0,1-1.395,2.264l-5.428,6.523c-2.409,2.889-4.964,6.258-4.5,10-1.14.5-2.5-.475-2.869-1.67a7.467,7.467,0,0,1,.18-3.7,45.407,45.407,0,0,0,.87-6.423,6.588,6.588,0,0,0-.375-3.2,2.439,2.439,0,0,0-2.609-1.5c-1.41.33-2,2.159-3.389,2.6a2.709,2.709,0,0,1-3-1.54,7.648,7.648,0,0,1-.57-3.574v-4.124a6.817,6.817,0,0,0-.97-4.284c-1.145-1.46-3.839-2.1-5.639-2.039A4.784,4.784,0,0,0,874.41,259,4.15,4.15,0,0,1,871.021,260.215Z" transform="translate(-447.856 -130.973)"/>
    <path id="Path_414" data-name="Path 414" class="cls-6" d="M885.3,381.92l5.149,21.149S894.507,403.044,885.3,381.92Z" transform="translate(-458.352 -201.077)"/>
    <path id="Path_415" data-name="Path 415" class="cls-6" d="M915.77,374.85s-6.738,11.037-4.109,22.454l1.255.09S910.676,392.11,915.77,374.85Z" transform="translate(-471.231 -197.541)"/>
    <path id="Path_416" data-name="Path 416" class="cls-6" d="M929,499.232s8.278-2.739,8.878,3.614C937.9,502.846,936.338,498.493,929,499.232Z" transform="translate(-480.208 -259.455)"/>
    <path id="Path_417" data-name="Path 417" class="cls-6" d="M867.031,426.81s-1.645,11.5,1.315,16.111A36.053,36.053,0,0,1,853.88,444.9l-1-18.085Z" transform="translate(-442.137 -223.528)"/>
    <path id="Path_418" data-name="Path 418" class="cls-6" d="M877.543,441.116l-.795.445-5.1-11.5,4.769-4.274h.245C876.589,426.36,875.259,436.242,877.543,441.116Z" transform="translate(-451.525 -223.018)"/>
    <path id="Path_419" data-name="Path 419" class="cls-7" d="M862.275,425.83s-1.645,11.5,1.315,16.106a35.947,35.947,0,0,1-14.466,1.974l-5.753-18.08Z" transform="translate(-437.381 -223.038)"/>
    <path id="Path_420" data-name="Path 420" class="cls-12" d="M813.748,796.152a3.724,3.724,0,0,1-3.194,3.259c-4.464.665-15.216,2.364-17.93,3.659-3.454,1.645-17.1.5-17.755-1.15a2.609,2.609,0,0,1,.235-2,5.27,5.27,0,0,1,2.2-2.369,5.852,5.852,0,0,1,1-.44c2.569-.855,7.423-2.674,8.733-4.584,0,0,6.053-5.294,7.778-8.153a3.949,3.949,0,0,1,3.159-1.969c1.44-.065,3.044.66,3.7,3.814,0,0,7.883,4.5,10,.555,0,0,.33,6.058,1.64,7.718h0a2.2,2.2,0,0,1,.43,1.66Z" transform="translate(-403.071 -401.372)"/>
    <path id="Path_421" data-name="Path 421" class="cls-6" d="M813.748,808.25a3.724,3.724,0,0,1-3.194,3.259c-4.464.665-15.216,2.364-17.93,3.659-3.454,1.645-17.1.5-17.755-1.15a2.609,2.609,0,0,1,.235-2,5.269,5.269,0,0,1,2.2-2.369c2.224,1.5,7.163,2.919,18.025,1.225,10.362-1.62,15.5-3.2,18-4.284h0a2.2,2.2,0,0,1,.42,1.659Z" transform="translate(-403.071 -413.469)"/>
    <g id="Group_72" data-name="Group 72" class="cls-14" transform="translate(416.444 118.55)">
      <path id="Path_422" data-name="Path 422" d="M942.434,268.334v-.08a14.721,14.721,0,0,0,.5-3.734,24.641,24.641,0,0,1-.5,3A1.818,1.818,0,0,0,942.434,268.334Z" transform="translate(-903.347 -260.911)"/>
      <path id="Path_423" data-name="Path 423" d="M893.78,280.109a4.753,4.753,0,0,1,.4,1.879,5.668,5.668,0,0,0-.4-2.619,2.43,2.43,0,0,0-2.6-1.5c-1.41.33-2,2.159-3.394,2.6a2.714,2.714,0,0,1-3-1.54,7.606,7.606,0,0,1-.57-3.579v-4.119a6.817,6.817,0,0,0-.97-4.284c-1.15-1.465-3.839-2.1-5.638-2.044a4.789,4.789,0,0,0-3.219,1.3,4.153,4.153,0,0,1-3.389,1.2,2.929,2.929,0,0,1-2.359-2.039c-.135-.53-.1-1.1-.255-1.625-.385-1.29-1.765-1.964-2.689-2.944a5.383,5.383,0,0,1-1.385-3.5,5.6,5.6,0,0,0,1.385,4.214c.925,1,2.3,1.655,2.689,2.944.155.5.12,1.095.255,1.625A2.929,2.929,0,0,0,871,268.122a4.153,4.153,0,0,0,3.389-1.2,4.788,4.788,0,0,1,3.219-1.3c1.8-.055,4.5.58,5.638,2.044.92,1.175.965,2.789.97,4.284v4.119a7.565,7.565,0,0,0,.57,3.574,2.721,2.721,0,0,0,3,1.545c1.38-.44,2-2.269,3.394-2.6A2.525,2.525,0,0,1,893.78,280.109Z" transform="translate(-864.285 -257.3)"/>
      <path id="Path_424" data-name="Path 424" d="M938.975,292.815a6.319,6.319,0,0,1-1.4,2.259l-5.429,6.523c-2.284,2.744-4.7,5.923-4.5,9.427.165-3.214,2.4-6.138,4.5-8.688l5.428-6.523a6.318,6.318,0,0,0,1.4-2.259,6.239,6.239,0,0,0,.145-1.8,4.753,4.753,0,0,1-.145,1.065Z" transform="translate(-895.969 -274.53)"/>
      <path id="Path_425" data-name="Path 425" d="M921.82,327.23a3.847,3.847,0,0,1-.165-.88,4.434,4.434,0,0,0,.165,1.62c.37,1.19,1.725,2.174,2.869,1.665a7,7,0,0,1-.06-.72A2.323,2.323,0,0,1,921.82,327.23Z" transform="translate(-892.97 -291.834)"/>
    </g>
    <path id="Path_426" data-name="Path 426" class="cls-6" d="M812.69,789.36s1.72,3,7.948.36" transform="translate(-422.037 -404.852)"/>
    <path id="Path_427" data-name="Path 427" class="cls-6" d="M918,790.82s5.369,6.323,12.137,2.074" transform="translate(-474.706 -405.582)"/>
    <path id="Path_428" data-name="Path 428" class="cls-6" d="M945.339,641.23s-3.794,2.369-3.914,3.724,1.959-1,1.959-1Z" transform="translate(-486.419 -330.767)"/>
    <path id="Path_429" data-name="Path 429" class="cls-6" d="M945.445,677.59a7.932,7.932,0,0,1-4.674,1.825c-2.839.125-2.6,3.824-.745,2.714A46.524,46.524,0,0,0,945.445,677.59Z" transform="translate(-485.026 -348.952)"/>
    <path id="Path_430" data-name="Path 430" class="cls-6" d="M950.4,682.34s-1.82,8.943-3.3,7.218" transform="translate(-489.26 -351.327)"/>
    <path id="Path_431" data-name="Path 431" class="cls-21" d="M245,523.078s11.422,3.134,16.92-1.035,7.883-2.829,7.883-2.829,13.111-.725,14.191-3.824-5.029-14.356-5.029-14.356c-.435-1-1.07-2.269-1.355-2.269l.06-4.749h0l1.9-19.87c4.384-11.242.08-25.768.08-25.768l-.785-3.6a9.118,9.118,0,0,1,.745-6l7.963-16a23.938,23.938,0,0,1,1.5-3.069c.5-.915,1.165-2.044,2-3.4.245-.39.5-.795.78-1.22.965-1.5,2.134-3.2,3.549-5.159,3.524-4.884,5.379-11,6.338-15.5l.425,1.41h.095l.115.025h.19l.2.035h.075l2.449,31.172c.15,12.157,4.614,18.885,4.614,18.885l-.615,26.838c.84,6.463-1,15.081-1.845,18.52l-1.929,4.354a5.233,5.233,0,0,0-2.844,3.959c-.38,3.214-3.764,10.142-3.764,10.142-1.31,1.66-4.154,6.143-4.154,6.143s-1.34,4.329-.51,5.948,7.768,1.455,7.768,1.455c7.923,1.755,14-2.5,13.611-5.429s1.235-3.674,1.235-3.674c3.149-1,2.844-3.134,2.844-3.134a19.615,19.615,0,0,0-2.384-12.767l-.5,1.155a17.58,17.58,0,0,1,.95-6.813l-.29.2-.09.055h-.03c.5-4.384,5.1-12.5,5.1-12.5,8.458-14.836,5.384-34.941,5.384-34.941l-1.31-6.268-.075-2.364A78.914,78.914,0,0,1,327.739,420c.455-2.459.925-5.428,1.285-8.7a76.921,76.921,0,0,1,4.339-17.08l.335-.06h.04c.46-.08.925-.16,1.395-.25h.09s.27-1.46.5-3.944c.135-1.585.245-3.594.245-5.9a66.418,66.418,0,0,0-3.154-20.549l.255-.365s.6-.82,1.71-2.239h0c2.029-2.579,5.189-6.5,9.083-10.917,6.973-7.953,4.924-16,4.924-16s-5.049-18.5-7.3-29.607a33.669,33.669,0,0,0-5.538-13.171,26.214,26.214,0,0,0,.7-5.339c.15-3.289.035-6.718-1.445-9.672s-4.629-5.289-7.918-4.894a3.03,3.03,0,0,1-1.42,0,2.159,2.159,0,0,1-.935-.815c-1.924-2.654-2.049-6.223-1.45-9.442s1.83-6.3,2.379-9.527.3-6.813-1.755-9.372c-2.414-3-6.623-3.844-9.762-6.1-2.2-1.585-3.859-3.859-6.183-5.264s-4.5-.87-7.023-.34c-4.244.895-8.278,1.3-12.292,3.129a32.736,32.736,0,0,0-10.712,7.793,10.167,10.167,0,0,0-2.389,3.769c-1,3.3.955,6.823.545,10.242-.29,2.424-1.72,4.534-2.854,6.7s-2,4.734-1.11,7c1.4,3.539,5.963,4.289,9.283,6.173a2.835,2.835,0,0,1,1.1.955c.82,1.43-.855,2.914-1.91,4.184a6.3,6.3,0,0,0-1.25,2.539,9.057,9.057,0,0,0-5.434,6.558c-1.125,5.034.6,11.387,2.129,15.586-1.665,9.352.5,13.041,2.094,14.456A8.023,8.023,0,0,1,281.116,325v.175c.1,1.7.285,3.394.525,5.084h0c-.055-.395-.11-.815-.14-1-1.3,2.414-3.789,8.583-5.189,18.96a56.986,56.986,0,0,1-1.265,6.6,36.11,36.11,0,0,0-1.06,11.807l.25,3.364a1.06,1.06,0,0,1-.68-.225l1.755,3.214v5.424a19.994,19.994,0,0,1-1.33,7.153c-.125.33-.26.66-.4,1a5.818,5.818,0,0,0-.59,2.944c-3.774,5.783-12.427,38.195-12.427,38.195-4.694,10.627.385,17.5.385,17.5s2.459,29.587,2.919,31.117,1.48,19.565,1.48,19.565h0v1.435a3.365,3.365,0,0,0-.855-.245c-4.114-.23-5.229,6.268-5.229,6.268l-8.418,8.038s-3.844-.65-9.5,3.594S245,523.078,245,523.078Zm84.052-171-.025-.09-.23.135h0l-.095.055-.045.03h0l-3.879-13.691a22.734,22.734,0,0,1-.285-11.262l3-13.136h0v-3.159l9.532,25.4C337.636,339.788,331.972,348.081,329.053,352.08Z" transform="translate(-135.377 -125.044)"/>
    <path id="Path_432" data-name="Path 432" class="cls-22" d="M396.317,557a78.723,78.723,0,0,0-4.829,18.345c-.355,3.239-.815,6.168-1.265,8.6a78.572,78.572,0,0,0-1.23,16.63l.075,2.334,1.25,6.183s3,19.86-5.284,34.491c0,0-4.909,8.763-5.059,12.911l-3.324,1.285-6.718-1.885s3.244-11.632,2.189-19.785l.6-26.493s-4.364-6.628-4.514-18.625L365.65,558.07Z" transform="translate(-198.457 -288.641)"/>
    <path id="Path_433" data-name="Path 433" class="cls-22" d="M322.289,547.62s-.825,12.837-7.173,21.684-7.7,12.687-7.7,12.687L299.6,597.8a9.053,9.053,0,0,0-.735,5.913l.77,3.559s4.229,14.346-.075,25.448l-2.039,21.444H285.594s-1-17.82-1.435-19.33S281.29,604.1,281.29,604.1s-5-6.8-.38-17.29c0,0,10.422-39.264,13.211-38.585S322.289,547.62,322.289,547.62Z" transform="translate(-155.096 -283.949)"/>
    <g id="Group_73" data-name="Group 73" class="cls-14" transform="translate(141.215 263.671)">
      <path id="Path_434" data-name="Path 434" d="M315.794,607.294l-.765-3.559a9,9,0,0,1,.73-5.938l7.818-15.821s1.355-3.849,7.7-12.687c6.093-8.5,7.1-20.674,7.168-21.609l1.215-.06s-.825,12.837-7.173,21.684-7.7,12.687-7.7,12.687L316.969,597.8a9.053,9.053,0,0,0-.735,5.913l.77,3.559s4.229,14.346-.075,25.448l-2.039,21.444h-1.21l2.039-21.444C320.023,621.615,315.794,607.294,315.794,607.294Z" transform="translate(-313.68 -547.62)"/>
    </g>
    <path id="Path_435" data-name="Path 435" class="cls-6" d="M389.094,656.508c.15-4.149,5.059-12.912,5.059-12.912,8.308-14.646,5.284-34.491,5.284-34.491l-1.28-6.188-.075-2.334a78.57,78.57,0,0,1,1.23-16.63c.445-2.429.9-5.359,1.26-8.6a78.71,78.71,0,0,1,4.814-18.305l1.24-.05a78.723,78.723,0,0,0-4.829,18.345c-.355,3.239-.815,6.168-1.265,8.6a78.572,78.572,0,0,0-1.23,16.63l.075,2.334,1.25,6.183s3,19.86-5.284,34.491c0,0-4.909,8.763-5.059,12.911l-3.324,1.285-.7-.195Z" transform="translate(-208.764 -288.641)"/>
    <path id="Path_436" data-name="Path 436" class="cls-23" d="M376.588,753.824a5.778,5.778,0,0,0,5.5-.68,17.745,17.745,0,0,0-.45,9.967c1.36,5.439-12.687-4.379-12.687-4.379l3-6.853S373.114,754.049,376.588,753.824Z" transform="translate(-200.107 -386.107)"/>
    <path id="Path_437" data-name="Path 437" class="cls-6" d="M377.643,754.114a5.613,5.613,0,0,0,4.464-1,17.745,17.745,0,0,0-.45,9.967c1.36,5.439-12.687-4.379-12.687-4.379l3-6.853a4.285,4.285,0,0,0,3.424,1.929C376.168,753.869,376.908,753.974,377.643,754.114Z" transform="translate(-200.117 -386.092)"/>
    <path id="Path_438" data-name="Path 438" class="cls-22" d="M289.32,447.4h5.868V414.1l-4.4-.79Z" transform="translate(-144.706 -206.709)"/>
    <path id="Path_439" data-name="Path 439" class="cls-19" d="M289.32,447.4h5.868V414.1l-4.4-.79Z" transform="translate(-144.706 -206.709)"/>
    <path id="Path_440" data-name="Path 440" class="cls-24" d="M363.018,760.312a5.851,5.851,0,0,1,5.359,3.094l2.039,1.585,1-2.339a19.5,19.5,0,0,1,2.309,12.612s.3,2.109-2.794,3.094c0,0-1.585.755-1.21,3.624s-5.583,7.1-13.361,5.359c0,0-6.8.155-7.628-1.435s.53-5.813.53-5.813,2.794-4.429,4.074-6.063c0,0,3.324-6.848,3.7-10S361.053,758.573,363.018,760.312Z" transform="translate(-189.861 -390.026)"/>
    <path id="Path_441" data-name="Path 441" class="cls-23" d="M303.748,761.549l.06-4.694s-6.753,1.945-12.222-.255c0,0,.46,4.719-.3,5.364s2.529,6.718,2.529,6.718l3.674,3.849,6.318-2.3,1.715-5.4S304.2,761.549,303.748,761.549Z" transform="translate(-161.208 -388.468)"/>
    <path id="Path_442" data-name="Path 442" class="cls-6" d="M303.748,761.549l.06-4.694s-6.753,1.945-12.222-.255c0,0,.46,4.719-.3,5.364s2.529,6.718,2.529,6.718l3.674,3.849,6.318-2.3,1.715-5.4S304.2,761.549,303.748,761.549Z" transform="translate(-161.208 -388.468)"/>
    <path id="Path_443" data-name="Path 443" class="cls-24" d="M266.042,763.094s3.589.415,3.134,5,.19,0,.19,0,3.814,1.545,5.174,3.7,3.814-1.924,4-3.094,1.715-1.655,1.715-1.655,6,11.122,4.939,14.181-13.936,3.764-13.936,3.764-2.344-1.32-7.743,2.794-16.611,1-16.611,1-9.138-3.814-3.584-8,9.322-3.549,9.322-3.549l8.268-7.968S262,762.864,266.042,763.094Z" transform="translate(-136.379 -391.712)"/>
    <path id="Path_444" data-name="Path 444" class="cls-25" d="M340.76,236.191c2.284,1.385,3.909,3.634,6.073,5.2,3.079,2.224,7.213,3.054,9.582,6.023,2,2.529,2.259,6.063,1.72,9.253s-1.75,6.233-2.334,9.412-.465,6.7,1.425,9.322a2.114,2.114,0,0,0,.915.8,3,3,0,0,0,1.395,0c3.229-.39,6.328,1.919,7.778,4.834s1.565,6.3,1.415,9.552a19.744,19.744,0,0,1-1.595,7.783c-2,4.079-6.158,6.6-10.262,8.528a79.488,79.488,0,0,1-8.193,3.309,12.33,12.33,0,0,1-5.938.895c-3.414-.59-5.833-3.694-9.073-4.909-2.654-1-5.6-.64-8.423-.39-2.409.21-5.164.2-6.823-1.555-2.129-2.259-1.17-5.9-.08-8.813a6.273,6.273,0,0,1-4.439-10.257c1.03-1.255,2.674-2.719,1.869-4.134a2.74,2.74,0,0,0-1.08-.94c-3.254-1.859-7.738-2.6-9.108-6.093-.88-2.244-.03-4.784,1.085-6.918s2.5-4.224,2.8-6.613c.4-3.379-1.5-6.853-.535-10.112a10.138,10.138,0,0,1,2.344-3.729,32.171,32.171,0,0,1,10.5-7.693c3.944-1.8,7.9-2.209,12.067-3.089C336.347,235.331,338.416,234.771,340.76,236.191Z" transform="translate(-168.234 -127.743)"/>
    <path id="Path_445" data-name="Path 445" class="cls-22" d="M320.479,337.754s-9.562-.5-11.372,7.653,3.924,19.83,3.924,19.83Z" transform="translate(-170.001 -178.985)"/>
    <path id="Path_446" data-name="Path 446" class="cls-19" d="M320.479,337.754s-9.562-.5-11.372,7.653,3.924,19.83,3.924,19.83Z" transform="translate(-170.001 -178.985)"/>
    <path id="Path_447" data-name="Path 447" class="cls-22" d="M320,342.241l3.624,2.869,16.91.755,10.557-7.248,10.737-18.425a13.274,13.274,0,0,1-10.207-10.447,22.873,22.873,0,0,1-.21-8.728s-17.215-8.913-15.1,5a18.9,18.9,0,0,1,.16,5.169c-1,8.148-8.908,6.613-8.908,6.613l-3.034,4.679-3.474,11.5Z" transform="translate(-175.625 -159.208)"/>
    <path id="Path_448" data-name="Path 448" class="cls-6" d="M352.48,305.992a18.893,18.893,0,0,1,.16,5.169,15.261,15.261,0,0,0,15.151-1.42,22.873,22.873,0,0,1-.21-8.728S350.366,292.1,352.48,305.992Z" transform="translate(-191.78 -159.205)"/>
    <circle id="Ellipse_28" data-name="Ellipse 28" class="cls-22" cx="15.251" cy="15.251" r="15.251" transform="translate(151.952 122.229)"/>
    <path id="Path_449" data-name="Path 449" class="cls-7" d="M328.294,358.654c.37,0,.735.055,1.1.09,2,.2,10.352.65,15.111-5.034,5.324-6.358,12.412-14.211,12.7-14.531l7.213,2.179s-5.708-2.029-9.5,8.588a11,11,0,0,0,3.714,12.652,11.427,11.427,0,0,0,4.719,2,.025.025,0,0,1,0,.025v4.659h0l-2.949,13a22.529,22.529,0,0,0,.28,11.122l4.5,15.9c-.68.47-28.592,19.455-47.237,6.343h0c.07-.57,2.374-19.23.775-28.362a63.064,63.064,0,0,1-.835-7.058c0-.06,0-.115,0-.175a7.957,7.957,0,0,0-2.734-5.4c-1.68-1.5-3.954-5.5-1.7-16.066a38.818,38.818,0,0,1,2.5-7.613L322.2,336.84h0l5.763.115v.04c-.5.62-7.183,8.968-7.908,14.346C319.347,356.455,318.472,358.024,328.294,358.654Z" transform="translate(-171.878 -178.531)"/>
    <path id="Path_450" data-name="Path 450" class="cls-22" d="M398.072,348.132s5.638,4.834,7.853,15.806,7.148,29.2,7.148,29.2,2,7.953-4.834,15.806-11.377,14-11.377,14l-4.5,6.628a5.643,5.643,0,0,1-3.239,2.289,10.941,10.941,0,0,1-7.928-.565,4.619,4.619,0,0,1-2-5.833l1-2.314s-9.263,5.838-10.067,2.614,10.772-6.443,10.772-6.443,9.562-1.61,11.5-6.138c0,0,10.267-13.191,9.462-17.72l-9.917-26.578s-12.4-1.64-8.173-15.571S398.072,348.132,398.072,348.132Z" transform="translate(-200.677 -182.819)"/>
    <path id="Path_451" data-name="Path 451" class="cls-17" d="M307.355,513.98s22.654,4.529,27.992,3.924l.575,1.914s8.6,1.924,28.037-1.16q1.9-.3,3.954-.675l.455-.08s.265-1.44.475-3.894a67.528,67.528,0,0,0-3.294-27.413L362.28,476.53s-20.2,12.112-33.581,11c-1.195-.1-2.379-.195-3.574-.235-2.744-.1-7,0-9.762-2.214l-5.8,1v16.5a19.764,19.764,0,0,1-1.31,7.058c-.125.33-.255.655-.4,1A5.249,5.249,0,0,0,307.355,513.98Z" transform="translate(-169.259 -248.395)"/>
    <path id="Path_452" data-name="Path 452" class="cls-6" d="M364.58,552.185v5.134s9.9,2.214,32.446-1.914c0,0,.265-1.44.475-3.894C390.583,552.62,371.5,555.289,364.58,552.185Z" transform="translate(-197.922 -285.895)"/>
    <path id="Path_453" data-name="Path 453" class="cls-6" d="M307.358,547.119s22.654,4.529,27.992,3.924l.575,1.915v-5.134c-2.579,1.07-20.994-3.369-27.668-5.034-.125.33-.255.655-.4,1a5.249,5.249,0,0,0-.5,3.329Z" transform="translate(-169.261 -281.534)"/>
    <path id="Path_454" data-name="Path 454" class="cls-17" d="M417.31,536.779l1.68,10.417q1.9-.3,3.954-.675c-.525-3.044-1.67-10-1.355-11.152l-2.114-1.81Z" transform="translate(-224.294 -276.917)"/>
    <path id="Path_455" data-name="Path 455" class="cls-6" d="M417.78,536.329l1.68,10.422q1.9-.3,3.954-.675c-.525-3.044-1.67-10-1.355-11.152l-2.114-1.815Z" transform="translate(-224.529 -276.692)"/>
    <g id="Group_74" data-name="Group 74" class="cls-26" transform="translate(145.129 228.12)">
      <path id="Path_456" data-name="Path 456" d="M334.606,496.069c-1.19-.1-2.379-.195-3.574-.235-2.669-.1-6.743,0-9.522-2.044l.97-.17c2.779,2.2,7,2.109,9.762,2.214,1.195.04,2.379.135,3.574.235.39.035.79.055,1.195.065a22.423,22.423,0,0,1-2.4-.065Z" transform="translate(-321.51 -485.062)"/>
      <path id="Path_457" data-name="Path 457" d="M399.06,518.644q1.9-.3,3.954-.67l.46-.085s.265-1.44.47-3.894a67.352,67.352,0,0,0-3.294-27.413l-3.079-9.5c.655-.37,1-.585,1-.585l3.269,10.067a67.529,67.529,0,0,1,3.294,27.413c-.21,2.454-.475,3.894-.475,3.894l-.455.085q-2.044.37-3.954.67a124.522,124.522,0,0,1-20.37,1.75A128.471,128.471,0,0,0,399.06,518.644Z" transform="translate(-350.703 -476.5)"/>
      <path id="Path_458" data-name="Path 458" d="M360.35,559.3v.055h-.65Q360.07,559.33,360.35,559.3Z" transform="translate(-340.61 -517.911)"/>
    </g>
    <ellipse id="Ellipse_29" data-name="Ellipse 29" class="cls-23" cx="0.855" cy="1.76" rx="0.855" ry="1.76" transform="translate(194.976 258.287)"/>
    <path id="Path_459" data-name="Path 459" class="cls-22" d="M311.419,450.36c1.38-10.247,3.814-16.336,5.1-18.72.05.325.18,1.38.24,1.7a49.493,49.493,0,0,1,.11,5.294l-1.28,23.174,1.715,7.248c1.61,5.738-4.354,1.2-4.354,1.2a3.549,3.549,0,0,1-3.5,2.419l-.31-4.159a35.919,35.919,0,0,1,1.04-11.662A55.569,55.569,0,0,0,311.419,450.36Z" transform="translate(-170.144 -225.944)"/>
    <path id="Path_460" data-name="Path 460" class="cls-19" d="M311.419,450.36c1.38-10.247,3.814-16.336,5.1-18.72.05.325.18,1.38.24,1.7a49.493,49.493,0,0,1,.11,5.294l-1.28,23.174,1.715,7.248c1.61,5.738-4.354,1.2-4.354,1.2a3.549,3.549,0,0,1-3.5,2.419l-.31-4.159a35.919,35.919,0,0,1,1.04-11.662A55.569,55.569,0,0,0,311.419,450.36Z" transform="translate(-170.144 -225.944)"/>
    <path id="Path_461" data-name="Path 461" class="cls-22" d="M400.112,483.827c-1.085,1.4-1.68,2.209-1.68,2.209l-4.5,6.623a5.619,5.619,0,0,1-3.239,2.289c-2.049.54-5.2.935-7.928-.565a4.609,4.609,0,0,1-2-5.828l1-2.319s-9.262,5.838-10.067,2.619,10.772-6.443,10.772-6.443,9.562-1.61,11.5-6.143c0,0,.835-1.07,2-2.709" transform="translate(-201.462 -246.909)"/>
    <path id="Path_462" data-name="Path 462" class="cls-17" d="M401.291,508.978s-10.952-1.065-14.421-7.328l-1.59,5.174s11.5,7.938,14.121,6.908Z" transform="translate(-208.274 -260.958)"/>
    <path id="Path_463" data-name="Path 463" class="cls-6" d="M400.516,508.873s-10.947-1.065-14.421-7.333L384.51,506.7s11.5,7.938,14.116,6.908Z" transform="translate(-207.889 -260.903)"/>
    <path id="Path_464" data-name="Path 464" class="cls-17" d="M312.989,510.46s-3.834,1.36-4.589.6l1.725,3.174,3.259-2.5Z" transform="translate(-169.824 -265.364)"/>
    <path id="Path_465" data-name="Path 465" class="cls-6" d="M312.989,510.46s-3.834,1.36-4.589.6l1.725,3.174,3.259-2.5Z" transform="translate(-169.824 -265.364)"/>
    <path id="Path_466" data-name="Path 466" class="cls-6" d="M331.845,526.093V519.47l-1.575,6.783Z" transform="translate(-165.186 -259.803)"/>
    <path id="Path_467" data-name="Path 467" class="cls-6" d="M361.034,264.709a5.882,5.882,0,0,1-4.109,2.164,32.382,32.382,0,0,1-4.774,0,11.973,11.973,0,0,0-7.2,1.815,18.313,18.313,0,0,0-3.3,3.5c-3.089,3.774-7.378,7.308-12.247,6.913a3.174,3.174,0,0,1-2.275-.96,3.649,3.649,0,0,1-.58-2.069,47.307,47.307,0,0,1,.295-9.327,19.665,19.665,0,0,1,1.41-5.563,19,19,0,0,1,3.389-4.839,20.729,20.729,0,0,1,5.913-4.739,10.607,10.607,0,0,1,7.4-.955c2.914.795,5.184,3.074,7.963,4.249C356.085,256.232,364.513,259.8,361.034,264.709Z" transform="translate(-178.845 -135.282)"/>
    <path id="Path_468" data-name="Path 468" class="cls-25" d="M361.034,263.494a5.882,5.882,0,0,1-4.109,2.164,32.378,32.378,0,0,1-4.774,0,11.934,11.934,0,0,0-7.2,1.81,18.312,18.312,0,0,0-3.3,3.5c-3.089,3.774-7.378,7.308-12.247,6.913a3.154,3.154,0,0,1-2.274-.96,3.634,3.634,0,0,1-.58-2.069,47.307,47.307,0,0,1,.295-9.327,19.665,19.665,0,0,1,1.41-5.563,18.865,18.865,0,0,1,3.389-4.834,20.658,20.658,0,0,1,5.913-4.744,10.607,10.607,0,0,1,7.4-.955c2.914.795,5.184,3.074,7.963,4.249C356.085,255.017,364.513,258.571,361.034,263.494Z" transform="translate(-178.845 -134.672)"/>
    <path id="Path_469" data-name="Path 469" class="cls-22" d="M291.85,473.47l-.04,1.824-.41-1.745Z" transform="translate(-145.746 -236.797)"/>
    <path id="Path_470" data-name="Path 470" class="cls-19" d="M291.85,473.47l-.04,1.824-.41-1.745Z" transform="translate(-145.746 -236.797)"/>
    <g id="Group_75" data-name="Group 75" class="cls-26" transform="translate(181.956 163.023)">
      <path id="Path_471" data-name="Path 471" d="M397.881,352.778c-4.234,13.931,8.108,15.566,8.108,15.566l9.917,26.578c.8,4.529-9.467,17.72-9.467,17.72-.715,1.69-2.5,2.974-4.449,3.924a6.968,6.968,0,0,0,2.639-2.9s10.267-13.186,9.462-17.715l-9.917-26.583s-12.337-1.635-8.108-15.566c1.415-4.654,3.5-6.773,5.608-7.533C400.221,347.44,398.886,349.464,397.881,352.778Z" transform="translate(-395.184 -346.27)"/>
    </g>
    <g id="Group_76" data-name="Group 76" class="cls-14" transform="translate(140.664 158.304)">
      <path id="Path_472" data-name="Path 472" d="M401,384.61a10.415,10.415,0,0,0,2,1.895,11.362,11.362,0,0,0,4.719,2v.525a11.328,11.328,0,0,1-4.279-1.895A10.372,10.372,0,0,1,401,384.61Z" transform="translate(-356.801 -360.726)"/>
      <path id="Path_473" data-name="Path 473" d="M322.495,420.094v.175a64.56,64.56,0,0,0,.86,7.083c1.5,8.618-.465,25.728-.745,28.092-.16-.1-.32-.2-.5-.32.075-.57,2.379-19.23.78-28.357a63.336,63.336,0,0,1-.835-7.058v-.175a7.713,7.713,0,0,0-1.345-3.824A7.773,7.773,0,0,1,322.495,420.094Z" transform="translate(-316.645 -376.281)"/>
      <path id="Path_474" data-name="Path 474" d="M327.63,337.515l-4.889-.1a.025.025,0,0,0-.025,0l-6.248,14.126a38.947,38.947,0,0,0-2.5,7.613c-1.82,8.548-.675,12.807.715,14.911-1.565-1.845-3.179-6.048-1.165-15.5a38.533,38.533,0,0,1,2.474-7.618l6.293-14.126h0l5.763.115v.035C328,337.04,327.85,337.23,327.63,337.515Z" transform="translate(-312.577 -336.83)"/>
      <path id="Path_475" data-name="Path 475" d="M416.39,345.87l.085.025Z" transform="translate(-364.498 -341.351)"/>
      <path id="Path_476" data-name="Path 476" d="M370.614,343.629l-4.9-1.475h-.025c-.29.32-7.373,8.173-12.7,14.531-4.759,5.683-13.1,5.239-15.111,5.039-.365-.04-.735-.07-1.1-.095-5.464-.35-7.613-1-8.333-2.379,1.025,1,3.279,1.5,7.878,1.78.37,0,.735.055,1.1.09,2,.2,10.352.645,15.111-5.034,5.324-6.363,12.412-14.216,12.7-14.536h0l7.128,2.159a4.453,4.453,0,0,0-1.755-.08Z" transform="translate(-320.516 -339.191)"/>
    </g>
    <path id="Path_477" data-name="Path 477" class="cls-6" d="M288.533,776.555s-6.9,1.885-8.233-1.075" transform="translate(-155.77 -397.91)"/>
    <path id="Path_478" data-name="Path 478" class="cls-6" d="M374.527,773.67s-8,2.064-9.847-1.13" transform="translate(-197.972 -396.44)"/>
    <path id="Path_479" data-name="Path 479" class="cls-27" d="M561.005,751.817c.115-1,.28-2,.46-3a20.9,20.9,0,0,0-1-10.137h0c-.185-.525-.32-.82-.32-.82-3.184-.87-15.736,8.868-20.31,12.537-1.585,0-3.3.07-5.184.195-.82.06-1.64.08-2.459.065h-3c-4.244-3.419-17.38-13.7-20.649-12.812,0,0-.135.295-.32.82h0A20.54,20.54,0,0,0,507.2,748.8c.18,1,.345,2,.46,3,.245,2.194,1.165,6.408,4.5,9.252.715,5.2,3.389,12.032,5.449,16.181a11.585,11.585,0,0,0,.7,2.284c-.85,3.279-1.83,7.558-1.55,9,0,0-4.439-1.075-4.889,4.269v.165c-1.6.735-3.609,2.419-1.355,5.948a2.314,2.314,0,0,0,1.16.945c.4.14.79.14.75-.42l2.774,3.124s5.029.58,5.089-2.339l.295.045c.675.1,1.38.185,2.1.26l.35,1.155s-3.774-.08-2.744,2.244c0,0,.95.88,1.275.56,0,0-.5,1.525,1.47,1.525,0,0,2.114,1.12,2.939.32s2.534-2,2.694-2.5c.045-.135.065-1.32.075-2.959h.325c4.214.1,8.688-.035,12.757-.255h.33c0,1.774.025,3.084.07,3.224.165.5,1.88,1.685,2.7,2.5s2.934-.32,2.934-.32c1.959,0,1.47-1.525,1.47-1.525.33.32,1.28-.56,1.28-.56,1.03-2.324-2.749-2.244-2.749-2.244l.45-1.5,2.084-.175.33-.03c-.2,3.174,5.084,2.564,5.084,2.564l2.779-3.124c-.045.56.345.56.745.42a2.3,2.3,0,0,0,1.125-.955c3.4-5.324-2.884-6.453-2.884-6.453a3.081,3.081,0,0,0-.595-.095,1.027,1.027,0,0,1,.025-.275h0a10.969,10.969,0,0,0,.04-2.109,4.64,4.64,0,0,0-3.744-2.724c-1.28-.16-1.3-6.038-1.175-10.112a11.629,11.629,0,0,0,.2-2.319,12.234,12.234,0,0,0-.5-3.714c2.5-4.239,4.5-8.683,4.724-10C559.841,758.21,560.76,754.011,561.005,751.817Z" transform="translate(-269.121 -379.061)"/>
    <path id="Path_480" data-name="Path 480" class="cls-7" d="M561.839,828.55h0c-.2,2.769-.735,7.213-.735,7.213s-2.224.27-5.663.58l-2.334.2c-1.79.145-3.8.285-5.923.4-3.924.215-8.233.35-12.3.25-2.029-.045-4-.15-5.823-.33-.815-.08-1.6-.175-2.354-.285-4.659-.695-8-2.024-8.283-4.359a13.5,13.5,0,0,1-.1-3c.435-5.249,4.709-4.189,4.709-4.189-.275-1.45.76-5.953,1.6-9.212.53-2.054,1-3.614,1-3.614l30.052-2h.1a1.47,1.47,0,0,1,1.47,1.545c-.18,3.6-.435,11.857,1.04,12.042a4.53,4.53,0,0,1,3.614,2.674A11.221,11.221,0,0,1,561.839,828.55Z" transform="translate(-274.793 -415.28)"/>
    <path id="Path_481" data-name="Path 481" class="cls-7" d="M531.6,754.058s-11.332,13.641-16.79,9.862c-.13-.09-.255-.18-.375-.275-3.669-2.779-4.634-7.258-4.889-9.532-.11-1-.27-1.964-.445-2.939a20.41,20.41,0,0,1,1-9.952h0c.18-.5.3-.8.3-.8C514.181,739.367,531.6,754.058,531.6,754.058Z" transform="translate(-270.078 -380.347)"/>
    <path id="Path_482" data-name="Path 482" class="cls-7" d="M525.488,756.176s-3.569,2.5-8.6,6.608a18.181,18.181,0,0,1-2.5,1.719c-3.669-2.779-4.634-7.258-4.889-9.532-.11-1-.27-1.964-.445-2.939a20.41,20.41,0,0,1,1-9.952h0C517.11,742.57,525.488,756.176,525.488,756.176Z" transform="translate(-270.053 -381.206)"/>
    <path id="Path_483" data-name="Path 483" class="cls-28" d="M525.488,756.176s-3.569,2.5-8.6,6.608a18.181,18.181,0,0,1-2.5,1.719c-3.669-2.779-4.634-7.258-4.889-9.532-.11-1-.27-1.964-.445-2.939a20.41,20.41,0,0,1,1-9.952h0C517.11,742.57,525.488,756.176,525.488,756.176Z" transform="translate(-270.053 -381.206)"/>
    <path id="Path_484" data-name="Path 484" class="cls-6" d="M525.537,760.063s-1.9,1.345-4.594,3.529a9.67,9.67,0,0,1-1.32.915,7.358,7.358,0,0,1-2.609-5.084c-.055-.53-.14-1.05-.235-1.575a10.927,10.927,0,0,1,.555-5.309h0C521.068,752.8,525.537,760.063,525.537,760.063Z" transform="translate(-273.986 -386.437)"/>
    <path id="Path_485" data-name="Path 485" class="cls-7" d="M569.05,754.058s11.332,13.641,16.79,9.862c.125-.09.255-.18.375-.275,3.669-2.779,4.634-7.258,4.889-9.532.11-1,.27-1.964.44-2.939a20.349,20.349,0,0,0-1-9.952h0c-.18-.5-.31-.8-.31-.8C586.47,739.367,569.05,754.058,569.05,754.058Z" transform="translate(-300.184 -380.347)"/>
    <path id="Path_486" data-name="Path 486" class="cls-7" d="M581.22,756.176s3.574,2.5,8.608,6.608A18.174,18.174,0,0,0,592.3,764.5c3.669-2.779,4.634-7.258,4.889-9.532.11-1,.27-1.964.44-2.939a20.35,20.35,0,0,0-1-9.952h0C589.608,742.57,581.22,756.176,581.22,756.176Z" transform="translate(-306.271 -381.206)"/>
    <path id="Path_487" data-name="Path 487" class="cls-28" d="M581.22,756.176s3.574,2.5,8.608,6.608A18.174,18.174,0,0,0,592.3,764.5c3.669-2.779,4.634-7.258,4.889-9.532.11-1,.27-1.964.44-2.939a20.35,20.35,0,0,0-1-9.952h0C589.608,742.57,581.22,756.176,581.22,756.176Z" transform="translate(-306.271 -381.206)"/>
    <path id="Path_488" data-name="Path 488" class="cls-6" d="M589.05,760.078s1.894,1.34,4.564,3.5a9.15,9.15,0,0,0,1.315.91,7.382,7.382,0,0,0,2.594-5.054c.055-.5.14-1.045.235-1.565a10.948,10.948,0,0,0-.525-5.279h0C593.494,752.86,589.05,760.078,589.05,760.078Z" transform="translate(-310.187 -386.462)"/>
    <path id="Path_489" data-name="Path 489" class="cls-6" d="M562.022,810.23a27.143,27.143,0,0,1-4.339,5.529c-4.5,4-23.924,2.409-25.183,2.2-.265-.045-.815-.83-1.5-2.1.53-2.054,1-3.614,1-3.614Z" transform="translate(-281.154 -415.29)"/>
    <path id="Path_490" data-name="Path 490" class="cls-7" d="M540.43,765.273c-.79.055-1.58.075-2.374.06-4.054-.07-17.71.11-19.225,5.623-1.784,6.5,6.193,23.9,7.448,24.109s20.674,1.785,25.188-2.2,10.387-16.5,10.072-17.63C561.539,775.231,567.138,763.424,540.43,765.273Z" transform="translate(-274.938 -392.707)"/>
    <path id="Path_491" data-name="Path 491" class="cls-6" d="M545.516,786.462a14.34,14.34,0,0,0-14.686,8.3,12,12,0,0,0,.885,12.092c1.56,2.194,3.849,3.829,7.033,2.5C545.826,806.437,545.516,786.462,545.516,786.462Z" transform="translate(-280.454 -403.359)"/>
    <path id="Path_492" data-name="Path 492" class="cls-6" d="M544.886,785.2a14.34,14.34,0,0,0-14.686,8.3,12,12,0,0,0,.885,12.092c1.56,2.194,3.849,3.829,7.033,2.5C545.2,805.177,544.886,785.2,544.886,785.2Z" transform="translate(-280.139 -402.729)"/>
    <path id="Path_493" data-name="Path 493" class="cls-7" d="M544.886,785.832a14.34,14.34,0,0,0-14.686,8.3,12,12,0,0,0,.885,12.092c1.56,2.194,3.849,3.829,7.033,2.5C545.2,805.807,544.886,785.832,544.886,785.832Z" transform="translate(-280.139 -403.044)"/>
    <path id="Path_494" data-name="Path 494" class="cls-28" d="M544.886,785.832a14.34,14.34,0,0,0-14.686,8.3,12,12,0,0,0,.885,12.092c1.56,2.194,3.849,3.829,7.033,2.5C545.2,805.807,544.886,785.832,544.886,785.832Z" transform="translate(-280.139 -403.044)"/>
    <path id="Path_495" data-name="Path 495" class="cls-29" d="M538.28,803.13s-1.365,1.26-.84,1.575S538.28,803.13,538.28,803.13Z" transform="translate(-284.315 -411.739)"/>
    <path id="Path_496" data-name="Path 496" class="cls-29" d="M541.775,806.35s-.745,1.645-.215,1.824.845-1.18.845-1.18Z" transform="translate(-286.34 -413.349)"/>
    <path id="Path_497" data-name="Path 497" class="cls-29" d="M535.266,811.32s-.73,1.94,0,1.94S535.266,811.32,535.266,811.32Z" transform="translate(-283.125 -415.835)"/>
    <path id="Path_498" data-name="Path 498" class="cls-30" d="M533.78,821.71s1.46,3.729,5.259,3.464" transform="translate(-282.544 -421.031)"/>
    <path id="Path_499" data-name="Path 499" class="cls-30" d="M540.61,823.91a2.63,2.63,0,0,0,3.144.42" transform="translate(-285.96 -422.132)"/>
    <path id="Path_500" data-name="Path 500" class="cls-6" d="M564,786.462a14.34,14.34,0,0,1,14.686,8.3,12,12,0,0,1-.885,12.092c-1.555,2.194-3.849,3.829-7.033,2.5C563.668,806.437,564,786.462,564,786.462Z" transform="translate(-297.656 -403.359)"/>
    <path id="Path_501" data-name="Path 501" class="cls-6" d="M564.588,785.2a14.34,14.34,0,0,1,14.686,8.3,12,12,0,0,1-.885,12.092c-1.555,2.194-3.849,3.829-7.033,2.5C564.293,805.177,564.588,785.2,564.588,785.2Z" transform="translate(-297.952 -402.729)"/>
    <path id="Path_502" data-name="Path 502" class="cls-7" d="M564.588,785.832a14.34,14.34,0,0,1,14.686,8.3,12,12,0,0,1-.885,12.092c-1.555,2.194-3.849,3.829-7.033,2.5C564.293,805.807,564.588,785.832,564.588,785.832Z" transform="translate(-297.952 -403.044)"/>
    <path id="Path_503" data-name="Path 503" class="cls-28" d="M564.588,785.832a14.34,14.34,0,0,1,14.686,8.3,12,12,0,0,1-.885,12.092c-1.555,2.194-3.849,3.829-7.033,2.5C564.293,805.807,564.588,785.832,564.588,785.832Z" transform="translate(-297.952 -403.044)"/>
    <path id="Path_504" data-name="Path 504" class="cls-29" d="M586.16,803.13s1.365,1.26.84,1.575S586.16,803.13,586.16,803.13Z" transform="translate(-308.741 -411.739)"/>
    <path id="Path_505" data-name="Path 505" class="cls-29" d="M582.59,806.35s.745,1.645.215,1.824-.845-1.18-.845-1.18Z" transform="translate(-306.641 -413.349)"/>
    <path id="Path_506" data-name="Path 506" class="cls-29" d="M589.5,811.32s.725,1.94,0,1.94S589.5,811.32,589.5,811.32Z" transform="translate(-310.25 -415.835)"/>
    <path id="Path_507" data-name="Path 507" class="cls-30" d="M586.359,821.71s-1.46,3.729-5.259,3.464" transform="translate(-306.211 -421.031)"/>
    <path id="Path_508" data-name="Path 508" class="cls-30" d="M581.649,823.91a2.636,2.636,0,0,1-3.149.42" transform="translate(-304.91 -422.132)"/>
    <path id="Path_509" data-name="Path 509" class="cls-29" d="M553.2,841.919c.265-.05,5.249-2.2,10.387,0Z" transform="translate(-292.257 -430.643)"/>
    <path id="Path_510" data-name="Path 510" class="cls-6" d="M526.708,854.885c-4.659-.695-8-2.024-8.283-4.359a13.5,13.5,0,0,1-.1-3,6.727,6.727,0,0,1,1.78-.65c.845-.235,1.89-.075,4.094.555s2.044,3.224,2.5,6.608a2.8,2.8,0,0,1,.015.845Z" transform="translate(-274.793 -433.567)"/>
    <path id="Path_511" data-name="Path 511" class="cls-7" d="M517.535,847.531s-6.058,1.11-2.779,6.338a2.234,2.234,0,0,0,1.12.925c.385.135.755.135.715-.415l2.679,3.069s5.349.63,4.879-2.754-.315-6-2.5-6.608S518.39,847.3,517.535,847.531Z" transform="translate(-272.543 -433.895)"/>
    <path id="Path_512" data-name="Path 512" class="cls-30" d="M524.18,854.67s1.285,2.934,3.069.47" transform="translate(-277.743 -437.516)"/>
    <path id="Path_513" data-name="Path 513" class="cls-30" d="M518.28,857s.665,2.779,3.184.71" transform="translate(-274.792 -438.681)"/>
    <path id="Path_514" data-name="Path 514" class="cls-6" d="M599,846.85h0c-.2,2.769-.735,7.213-.735,7.213s-2.224.27-5.663.58a2.894,2.894,0,0,1,0-.58c.47-3.384.315-6,2.5-6.608C597.154,846.9,598.2,846.695,599,846.85Z" transform="translate(-311.958 -433.58)"/>
    <path id="Path_515" data-name="Path 515" class="cls-7" d="M599.878,847.531s6.063,1.11,2.784,6.338a2.254,2.254,0,0,1-1.12.925c-.385.135-.76.135-.72-.415l-2.674,3.069s-5.354.63-4.879-2.754.315-6,2.5-6.608S599.039,847.3,599.878,847.531Z" transform="translate(-312.283 -433.895)"/>
    <path id="Path_516" data-name="Path 516" class="cls-30" d="M600.569,854.67s-1.29,2.934-3.069.47" transform="translate(-314.413 -437.516)"/>
    <path id="Path_517" data-name="Path 517" class="cls-30" d="M606.349,857s-.67,2.779-3.189.71" transform="translate(-317.244 -438.681)"/>
    <path id="Path_518" data-name="Path 518" class="cls-6" d="M543.693,852.878c-2.029-.045-4-.15-5.823-.33l-1.814-6.108a3.965,3.965,0,0,1-.165-1.115,3.889,3.889,0,0,1,7.773-.025C543.683,847.68,543.7,850.694,543.693,852.878Z" transform="translate(-283.6 -430.96)"/>
    <path id="Path_519" data-name="Path 519" class="cls-7" d="M534.913,846.309l2.139,7.208s-3.639-.08-2.644,2.2c0,0,.915.865,1.23.55,0,0-.475,1.5,1.415,1.5,0,0,2.039,1.1,2.829.315s2.444-1.969,2.6-2.439c.1-.31.07-6.338.035-10.5a3.879,3.879,0,0,0-3.884-3.849h0a3.884,3.884,0,0,0-3.724,5.009Z" transform="translate(-282.772 -430.829)"/>
    <path id="Path_520" data-name="Path 520" class="cls-30" d="M540.375,869.47s-1.589,1.5-.75,2.384" transform="translate(-285.345 -444.918)"/>
    <path id="Path_521" data-name="Path 521" class="cls-30" d="M538.53,867.56a2.159,2.159,0,0,0-1.47,1.844" transform="translate(-284.185 -443.963)"/>
    <path id="Path_522" data-name="Path 522" class="cls-6" d="M583.928,845.191a3.955,3.955,0,0,1-.16,1.115l-1.695,5.783c-1.789.145-3.8.285-5.923.4,0-2.159,0-5.034.035-7.328a3.884,3.884,0,0,1,7.768.025Z" transform="translate(-303.735 -430.827)"/>
    <path id="Path_523" data-name="Path 523" class="cls-7" d="M584.36,846.309l-2.139,7.208s3.644-.08,2.649,2.2c0,0-.915.865-1.23.55,0,0,.47,1.5-1.42,1.5,0,0-2.039,1.1-2.829.315s-2.439-1.969-2.6-2.439c-.1-.31-.07-6.338-.035-10.5a3.879,3.879,0,0,1,3.884-3.849h0a3.884,3.884,0,0,1,3.719,5.009Z" transform="translate(-304.022 -430.829)"/>
    <path id="Path_524" data-name="Path 524" class="cls-30" d="M586.23,869.47s1.59,1.5.75,2.384" transform="translate(-308.776 -444.918)"/>
    <path id="Path_525" data-name="Path 525" class="cls-30" d="M587.63,867.56a2.159,2.159,0,0,1,1.47,1.844" transform="translate(-309.477 -443.963)"/>
    <path id="Path_526" data-name="Path 526" class="cls-6" d="M553.174,782.769s-7.4-.235-7.638,5.5,11.567,3.3,11.567,3.3,4.959-.665,4.094-4.149S558.528,783.084,553.174,782.769Z" transform="translate(-288.422 -401.555)"/>
    <path id="Path_527" data-name="Path 527" class="cls-6" d="M553.174,781.509s-7.4-.235-7.638,5.5,11.567,3.3,11.567,3.3,4.959-.665,4.094-4.149S558.528,781.824,553.174,781.509Z" transform="translate(-288.422 -400.925)"/>
    <path id="Path_528" data-name="Path 528" class="cls-29" d="M553.174,782.139s-7.4-.235-7.638,5.5,11.567,3.3,11.567,3.3,4.959-.665,4.094-4.149S558.528,782.454,553.174,782.139Z" transform="translate(-288.422 -401.24)"/>
    <path id="Path_529" data-name="Path 529" class="cls-6" d="M527.78,839.92s2.5.89,3,2.594" transform="translate(-279.544 -430.139)"/>
    <path id="Path_530" data-name="Path 530" class="cls-6" d="M596.623,837.4s-1.775.745-1.65,3.854" transform="translate(-313.146 -428.878)"/>
    <ellipse id="Ellipse_30" data-name="Ellipse 30" class="cls-7" cx="1.159" cy="1.921" rx="1.159" ry="1.921" transform="translate(247.326 421.688) rotate(-29.887)"/>
    <ellipse id="Ellipse_31" data-name="Ellipse 31" class="cls-7" cx="1.914" cy="1.155" rx="1.914" ry="1.155" transform="translate(282.508 422.139) rotate(-60)"/>
    <ellipse id="Ellipse_32" data-name="Ellipse 32" class="cls-28" cx="1.159" cy="1.921" rx="1.159" ry="1.921" transform="translate(247.326 421.688) rotate(-29.887)"/>
    <ellipse id="Ellipse_33" data-name="Ellipse 33" class="cls-28" cx="1.914" cy="1.155" rx="1.914" ry="1.155" transform="translate(282.508 422.139) rotate(-60)"/>
    <ellipse id="Ellipse_34" data-name="Ellipse 34" class="cls-1" cx="13.461" cy="2.274" rx="13.461" ry="2.274" transform="translate(82.806 355.661)"/>
    <ellipse id="Ellipse_35" data-name="Ellipse 35" class="cls-1" cx="13.461" cy="2.274" rx="13.461" ry="2.274" transform="translate(29.775 387.917)"/>
    <ellipse id="Ellipse_36" data-name="Ellipse 36" class="cls-7" cx="20.1" cy="3.399" rx="20.1" ry="3.399" transform="translate(9.121 357.935)"/>
    <path id="Path_531" data-name="Path 531" class="cls-7" d="M71.018,722.612a5.814,5.814,0,0,1-1.919-2.889,2.576,2.576,0,0,1,1.34-2.944c1.23-.47,2.544.38,3.539,1.24s2.139,1.844,3.444,1.665a5.244,5.244,0,0,1-1.62-4.909,2,2,0,0,1,.45-1c.68-.73,1.919-.415,2.739.16,2.594,1.83,3.324,5.359,3.334,8.538a15.746,15.746,0,0,0,.05-3.5,3.6,3.6,0,0,1,1.32-3.109,4,4,0,0,1,2-.5,4.182,4.182,0,0,1,3.269.93,3.215,3.215,0,0,1-.13,4A13.071,13.071,0,0,1,85.454,723a7.458,7.458,0,0,0-2.419,2.3,2.358,2.358,0,0,0-.18.41h-7.3a20.213,20.213,0,0,1-4.534-3.1Z" transform="translate(-50.11 -366.837)"/>
    <ellipse id="Ellipse_37" data-name="Ellipse 37" class="cls-1" cx="13.461" cy="2.274" rx="13.461" ry="2.274" transform="translate(501.308 374.686)"/>
    <path id="Path_532" data-name="Path 532" class="cls-31" d="M1042.91,748.959s7.678-.235,10-1.884,11.807-3.614,12.382-.97,11.542,13.141,2.869,13.211-20.14-1.35-22.449-2.759S1042.91,748.959,1042.91,748.959Z" transform="translate(-537.178 -382.572)"/>
    <path id="Path_533" data-name="Path 533" class="cls-32" d="M1068.308,762.547c-8.668.07-20.14-1.35-22.449-2.759-1.76-1.07-2.459-4.914-2.694-6.688h-.255s.5,6.193,2.794,7.6,13.781,2.829,22.449,2.759c2.5,0,3.369-.91,3.319-2.229C1071.127,762.048,1070.173,762.547,1068.308,762.547Z" transform="translate(-537.178 -386.717)"/>
  </g>
</svg>
