<svg xmlns="http://www.w3.org/2000/svg" xmlns:xlink="http://www.w3.org/1999/xlink" viewBox="0 0 444 332.197">
  <defs>
    <style>
      .cls-1, .cls-8 {
        fill: #f4627c;
      }

      .cls-1, .cls-21, .cls-5, .cls-6 {
        opacity: 0.1;
      }

      .cls-2 {
        fill: #ffc1c7;
      }

      .cls-3 {
        fill: #575988;
      }

      .cls-4 {
        fill: #fff;
      }

      .cls-15, .cls-21, .cls-7 {
        fill: none;
      }

      .cls-7 {
        stroke: #535461;
      }

      .cls-21, .cls-7 {
        stroke-miterlimit: 10;
        stroke-width: 2px;
      }

      .cls-9 {
        opacity: 0.25;
      }

      .cls-10 {
        fill: url(#linear-gradient);
      }

      .cls-11 {
        fill: #ffc1c8;
      }

      .cls-12 {
        opacity: 0.03;
      }

      .cls-13 {
        fill: #ff748f;
      }

      .cls-14 {
        fill: #5d618c;
      }

      .cls-16 {
        fill: #dce6f2;
      }

      .cls-17 {
        fill: #ff6584;
      }

      .cls-18 {
        opacity: 0.2;
      }

      .cls-19 {
        fill: #794f6a;
      }

      .cls-20 {
        fill: #945b79;
      }

      .cls-21 {
        stroke: #000;
      }

      .cls-22 {
        fill: #ffd037;
      }

      .cls-23 {
        fill: #a8a8a8;
      }
    </style>
    <linearGradient id="linear-gradient" x1="0.5" y1="1" x2="0.5" gradientUnits="objectBoundingBox">
      <stop offset="0" stop-color="gray" stop-opacity="0.251"/>
      <stop offset="0.54" stop-color="gray" stop-opacity="0.122"/>
      <stop offset="1" stop-color="gray" stop-opacity="0.102"/>
    </linearGradient>
  </defs>
  <g id="Image" transform="translate(-245 -1127)">
    <g id="undraw_back_to_school_inwc" transform="translate(245.01 1126.995)">
      <ellipse id="Ellipse_9" data-name="Ellipse 9" class="cls-1" cx="141.172" cy="7.641" rx="141.172" ry="7.641" transform="translate(89.789 316.92)"/>
      <path id="Path_107" data-name="Path 107" class="cls-2" d="M693.578,664.968l-1.214,1.781-7.507,11.17-6.374,1.922-4.755-4.654.231-3.072,1.186-15.949s-29.422-17.309-32.052-20.547-12.748-6.172-12.748-6.172-15.48-7.183-21.247-19.729,9.612-14.468,9.612-14.468l57.771,55.25Z" transform="translate(-382.652 -370.363)"/>
      <path id="Path_108" data-name="Path 108" class="cls-3" d="M774.311,775.472,756,792.57s-10.522,2.023-19.932.607c-6.014-.907-4.856-4.2-3.274-6.475l.028-.04a6.653,6.653,0,0,1,3.9-2.566c7.787-1.878,10.474-7.515,10.474-7.515l5.666,4.856L762.676,770l7.256,3.408Z" transform="translate(-456.303 -474.391)"/>
      <line id="Line_4" data-name="Line 4" class="cls-4" y1="15.917" x2="18.284" transform="translate(295.345 299.223)"/>
      <path id="Path_109" data-name="Path 109" class="cls-5" d="M696.281,669.4l-4.31-2.023.4-.615,1.214-1.781-17.111-14.468L618.708,595.27s-15.379,1.914-9.612,14.46,21.247,19.729,21.247,19.729,10.117,2.934,12.748,6.172,32.073,20.539,32.073,20.539l-1.186,15.949-.057.761-.376-.32s-2.687,5.637-10.474,7.515a6.653,6.653,0,0,0-3.9,2.566l-.028.04c-1.619,2.266-2.74,5.565,3.274,6.475,9.409,1.416,19.932-.607,19.932-.607l18.313-17.1Z" transform="translate(-382.652 -370.375)"/>
      <path id="Path_110" data-name="Path 110" class="cls-1" d="M63.3,469.55c7.026,30.029,21.9,55.986,45.4,68.577,48.851,26.152,159.015,12.663,241.23-2.833a188.251,188.251,0,0,0,107.06-61.2Z" transform="translate(-58.51 -295.534)"/>
      <path id="Path_111" data-name="Path 111" class="cls-1" d="M511.152,72.24H466.04a3.9,3.9,0,0,1,0-7.8h7.8a3.9,3.9,0,1,1,0-7.795H468.27a3.9,3.9,0,0,1,0-7.8h23.546a62.3,62.3,0,0,0-18.369-5.063c-64.2-8.244-87.124-2.792-95.21,2.833a89.91,89.91,0,0,1-33,14.464c-39.612,8.171-113.693,18-180.837-3.149-33.372-10.522-58.172,7.252-73.04,36.941H518.983a69.678,69.678,0,0,0-5.3-23.57,3.889,3.889,0,0,1-2.533.935Z" transform="translate(-75.214 -39.57)"/>
      <path id="Path_112" data-name="Path 112" class="cls-1" d="M52.411,314.67a198.776,198.776,0,0,0,1.748,52.393l396.073,14.484a185.984,185.984,0,0,0,27.52-41.967Zm156.652,37.366h-7.8a3.9,3.9,0,1,1,0,7.8H156.153a3.9,3.9,0,0,1,0-7.8h7.8a3.9,3.9,0,0,1,0-7.795h-5.569a3.9,3.9,0,0,1,0-7.8h45.112a3.9,3.9,0,0,1,0,7.8h5.569a3.9,3.9,0,0,1,0,7.795Z" transform="translate(-51.45 -203.334)"/>
      <path id="Path_113" data-name="Path 113" class="cls-1" d="M496.763,176.86,64.348,187.382A172.449,172.449,0,0,0,54,232.033H489.187a184.978,184.978,0,0,0,6.285-28.463A134.856,134.856,0,0,0,496.763,176.86ZM141.788,211.316h-7.8a3.9,3.9,0,1,1,0,7.8H88.877a3.9,3.9,0,0,1,0-7.8h7.8a3.9,3.9,0,1,1,0-7.795H91.107a3.9,3.9,0,0,1,0-7.8h45.112a3.9,3.9,0,0,1,0,7.8h5.569a3.9,3.9,0,0,1,0,7.795Z" transform="translate(-52.974 -121.296)"/>
      <g id="Group_10" data-name="Group 10" class="cls-6" transform="translate(319.938 110.356)">
        <path id="Path_114" data-name="Path 114" class="cls-7" d="M848.76,427.328s11.413-28.127,32.724-38.56a45.97,45.97,0,0,0,20.87-20.267,77.366,77.366,0,0,0,5.233-13.141" transform="translate(-846.031 -337.913)"/>
        <path id="Path_115" data-name="Path 115" class="cls-8" d="M1007.029,323.043c-2.222,2.792-13.719,6.88-13.719,6.88s1.384-12.121,3.606-14.913a6.475,6.475,0,1,1,10.117,8.045Z" transform="translate(-932.082 -312.249)"/>
        <path id="Path_116" data-name="Path 116" class="cls-8" d="M995.029,374.839c-3.383,1.137-15.249-1.692-15.249-1.692s7.75-9.421,11.133-10.559a6.475,6.475,0,1,1,4.116,12.25Z" transform="translate(-924.028 -341.928)"/>
        <path id="Path_117" data-name="Path 117" class="cls-8" d="M946.491,439.442c-3.493-.728-12.311-9.158-12.311-9.158s11.449-4.221,14.942-3.5a6.475,6.475,0,0,1-2.63,12.655Z" transform="translate(-896.882 -380.383)"/>
        <path id="Path_118" data-name="Path 118" class="cls-8" d="M893.473,479.049c-3.565-.121-13.683-6.945-13.683-6.945s10.571-6.095,14.136-5.969a6.475,6.475,0,1,1-.453,12.914Z" transform="translate(-864.503 -403.855)"/>
        <path id="Path_119" data-name="Path 119" class="cls-8" d="M952.461,359.746c.453,3.541,8.183,12.979,8.183,12.979s5.091-11.089,4.634-14.626a6.475,6.475,0,0,0-12.817,1.647Z" transform="translate(-907.757 -336.43)"/>
        <path id="Path_120" data-name="Path 120" class="cls-8" d="M892.79,404.321c1.493,3.238,11.7,9.935,11.7,9.935s1.534-12.1.04-15.342a6.475,6.475,0,0,0-11.736,5.407Z" transform="translate(-871.987 -361.827)"/>
        <path id="Path_121" data-name="Path 121" class="cls-8" d="M842.148,459.768c.927,3.448,9.846,11.769,9.846,11.769s3.561-11.668,2.639-15.116a6.475,6.475,0,0,0-12.485,3.347Z" transform="translate(-842.018 -395.445)"/>
        <path id="Path_122" data-name="Path 122" class="cls-9" d="M1007.029,323.043c-2.222,2.792-13.719,6.88-13.719,6.88s1.384-12.121,3.606-14.913a6.475,6.475,0,1,1,10.117,8.045Z" transform="translate(-932.082 -312.249)"/>
        <path id="Path_123" data-name="Path 123" class="cls-9" d="M995.029,374.839c-3.383,1.137-15.249-1.692-15.249-1.692s7.75-9.421,11.133-10.559a6.475,6.475,0,1,1,4.116,12.25Z" transform="translate(-924.028 -341.928)"/>
        <path id="Path_124" data-name="Path 124" class="cls-9" d="M946.491,439.442c-3.493-.728-12.311-9.158-12.311-9.158s11.449-4.221,14.942-3.5a6.475,6.475,0,0,1-2.63,12.655Z" transform="translate(-896.882 -380.383)"/>
        <path id="Path_125" data-name="Path 125" class="cls-9" d="M893.473,479.049c-3.565-.121-13.683-6.945-13.683-6.945s10.571-6.095,14.136-5.969a6.475,6.475,0,1,1-.453,12.914Z" transform="translate(-864.503 -403.855)"/>
        <path id="Path_126" data-name="Path 126" class="cls-9" d="M952.461,359.746c.453,3.541,8.183,12.979,8.183,12.979s5.091-11.089,4.634-14.626a6.475,6.475,0,0,0-12.817,1.647Z" transform="translate(-907.757 -336.43)"/>
        <path id="Path_127" data-name="Path 127" class="cls-9" d="M892.79,404.321c1.493,3.238,11.7,9.935,11.7,9.935s1.534-12.1.04-15.342a6.475,6.475,0,0,0-11.736,5.407Z" transform="translate(-871.987 -361.827)"/>
        <path id="Path_128" data-name="Path 128" class="cls-9" d="M842.148,459.768c.927,3.448,9.846,11.769,9.846,11.769s3.561-11.668,2.639-15.116a6.475,6.475,0,0,0-12.485,3.347Z" transform="translate(-842.018 -395.445)"/>
      </g>
      <g id="Group_11" data-name="Group 11" class="cls-6" transform="translate(292.843 48.439)">
        <path id="Path_129" data-name="Path 129" class="cls-7" d="M803.86,293.415s1.441-30.32,18.086-47.233a45.989,45.989,0,0,0,12.971-26.038A77.407,77.407,0,0,0,835.483,206" transform="translate(-792.208 -187.081)"/>
        <path id="Path_130" data-name="Path 130" class="cls-8" d="M889.4,167.447c-1.17,3.375-10.664,11.032-10.664,11.032s-2.711-11.894-1.546-15.265a6.475,6.475,0,0,1,12.21,4.233Z" transform="translate(-835.689 -159.253)"/>
        <path id="Path_131" data-name="Path 131" class="cls-8" d="M894.73,217.657c-2.833,2.193-14.95,3.464-14.95,3.464s4.189-11.461,7-13.655a6.475,6.475,0,0,1,7.948,10.19Z" transform="translate(-837.403 -187.285)"/>
        <path id="Path_132" data-name="Path 132" class="cls-8" d="M866.724,293.916c-3.537.474-14.654-4.557-14.654-4.557s9.4-7.778,12.95-8.252a6.475,6.475,0,0,1,1.716,12.809Z" transform="translate(-820.907 -231.784)"/>
        <path id="Path_133" data-name="Path 133" class="cls-8" d="M831.009,348.506c-3.4,1.068-15.209-2.023-15.209-2.023s7.948-9.251,11.356-10.316a6.475,6.475,0,1,1,3.853,12.331Z" transform="translate(-799.316 -264.305)"/>
        <path id="Path_134" data-name="Path 134" class="cls-8" d="M846.8,220.243c1.619,3.189,12.028,9.531,12.028,9.531s1.121-12.141-.482-15.334a6.475,6.475,0,0,0-11.546,5.8Z" transform="translate(-817.462 -190.204)"/>
        <path id="Path_135" data-name="Path 135" class="cls-8" d="M805.267,282.068c2.485,2.562,14.326,5.5,14.326,5.5s-2.562-11.931-5.047-14.492a6.475,6.475,0,0,0-9.28,9Z" transform="translate(-792.121 -226.006)"/>
        <path id="Path_136" data-name="Path 136" class="cls-8" d="M775.951,351.257c2.024,2.946,13.193,7.839,13.193,7.839s-.514-12.19-2.525-15.136a6.475,6.475,0,0,0-10.668,7.285Z" transform="translate(-775.068 -267.748)"/>
      </g>
      <path id="Path_137" data-name="Path 137" class="cls-1" d="M469.82,125.052s-9.644-.579-8.5,6.18a1.647,1.647,0,0,0,.858,1.736s0-.5.988-.332a4.309,4.309,0,0,0,1.048.053,2.189,2.189,0,0,0,1.283-.53h0s2.711-1.121,3.764-5.552c0,0,.781-.967.749-1.214l-1.619.7a2.921,2.921,0,0,1,.117,2.149s-.053-2.109-.364-2.06c-.065,0-.846.4-.846.4s.959,2.048.235,3.533c0,0,.275-2.521-.534-3.383l-1.145.668a5.066,5.066,0,0,1,.36,3.837s.194-2.643-.6-3.675l-1.04.809s1.052,2.084.4,3.513c0,0-.081-3.08-.635-3.31A6.337,6.337,0,0,0,463.3,129.7s.716,1.514.271,2.311c0,0-.271-2.052-.5-2.06a6.8,6.8,0,0,0-1,2.291,4.945,4.945,0,0,1,.781-2.428,2.74,2.74,0,0,0-1.388.716s.142-.959,1.619-1.044a6.3,6.3,0,0,1,.947-1.093,5.86,5.86,0,0,0-2.343.271,2.632,2.632,0,0,1,2.61-.5l1.028-.834a8.543,8.543,0,0,0-2.74.024s.939-.809,3.015-.214l1.117-.668a10.017,10.017,0,0,0-2.618-.227,4.033,4.033,0,0,1,2.946.045l.809-.356s-1.214-.235-1.554-.275-.368-.134-.368-.134a4.16,4.16,0,0,1,2.254.251A9.435,9.435,0,0,0,469.82,125.052Z" transform="translate(-295.395 -90.447)"/>
      <path id="Path_138" data-name="Path 138" class="cls-1" d="M418.707,206.227s-3.294,9.086,3.509,9.915a1.651,1.651,0,0,0,1.91-.332s-.477-.158-.036-1.04a4.329,4.329,0,0,0,.332-.992,2.19,2.19,0,0,0-.142-1.38h0s-.3-2.918-4.253-5.184c0,0-.708-1.024-.955-1.064l.206,1.756a2.928,2.928,0,0,1,2.1.5s-2.023-.546-2.08-.235c0,.065.15.927.15.927s2.234-.336,3.456.777c0,0-2.339-.975-3.4-.449l.316,1.291a5.049,5.049,0,0,1,3.78.745s-2.481-.939-3.695-.469l.482,1.214s2.295-.4,3.484.6c0,0-2.975-.809-3.355-.328a6.247,6.247,0,0,0,.789,1.323s1.651-.259,2.291.4c0,0-2.044-.32-2.117-.105a6.936,6.936,0,0,0,1.91,1.619,4.925,4.925,0,0,1-2.1-1.433,2.728,2.728,0,0,0,.3,1.514s-.878-.4-.542-1.837a6.515,6.515,0,0,1-.781-1.214,5.967,5.967,0,0,0-.4,2.327,2.636,2.636,0,0,1,.267-2.647l-.51-1.214a8.191,8.191,0,0,0-.753,2.631s-.5-1.125.648-2.95l-.324-1.259a10.187,10.187,0,0,0-.959,2.428,4.014,4.014,0,0,1,.882-2.809l-.117-.87s-.567,1.085-.7,1.412-.235.316-.235.316a4.189,4.189,0,0,1,.882-2.092A9.8,9.8,0,0,0,418.707,206.227Z" transform="translate(-269.609 -138.732)"/>
      <path id="Path_139" data-name="Path 139" class="cls-1" d="M576.745,187.311s-3.3,9.081,3.509,9.911a1.647,1.647,0,0,0,1.906-.328s-.474-.158-.036-1.044a4.359,4.359,0,0,0,.348-.992,2.149,2.149,0,0,0-.146-1.376h0s-.3-2.918-4.253-5.188c0,0-.7-1.024-.951-1.064l.2,1.76a2.915,2.915,0,0,1,2.1.494s-2.024-.546-2.076-.231c0,.061.15.927.15.927s2.234-.34,3.452.777c0,0-2.335-.979-3.4-.449l.316,1.287a5.06,5.06,0,0,1,3.784.745s-2.481-.939-3.695-.465l.482,1.214s2.295-.4,3.484.6c0,0-2.974-.809-3.355-.332a6.37,6.37,0,0,0,.785,1.323s1.655-.259,2.295.4c0,0-2.048-.32-2.117-.109a6.936,6.936,0,0,0,1.91,1.619,4.953,4.953,0,0,1-2.1-1.437,2.719,2.719,0,0,0,.3,1.534s-.882-.4-.546-1.841a6.388,6.388,0,0,1-.777-1.214,5.87,5.87,0,0,0-.4,2.327,2.634,2.634,0,0,1,.271-2.647l-.514-1.214a8.11,8.11,0,0,0-.749,2.635s-.5-1.129.647-2.954l-.324-1.259a10.09,10.09,0,0,0-.959,2.428,4,4,0,0,1,.878-2.809l-.117-.866s-.567,1.085-.7,1.408-.235.32-.235.32a4.144,4.144,0,0,1,.882-2.092A10.231,10.231,0,0,0,576.745,187.311Z" transform="translate(-363.688 -127.469)"/>
      <path id="Path_140" data-name="Path 140" class="cls-1" d="M318.515,159.2s-3.3,9.086,3.509,9.911a1.639,1.639,0,0,0,1.906-.328s-.474-.158-.036-1.04a4.557,4.557,0,0,0,.348-.992,2.19,2.19,0,0,0-.146-1.38h0s-.3-2.918-4.253-5.188c0,0-.7-1.02-.951-1.06l.2,1.756a2.929,2.929,0,0,1,2.1.5s-2.024-.55-2.076-.235c0,.065.15.927.15.927s2.234-.336,3.452.777c0,0-2.339-.979-3.4-.449l.316,1.291a5.049,5.049,0,0,1,3.78.745s-2.477-.939-3.691-.469l.482,1.214s2.295-.4,3.484.6c0,0-2.979-.809-3.355-.332a6.379,6.379,0,0,0,.785,1.327s1.655-.263,2.291.4c0,0-2.044-.32-2.117-.105a7.05,7.05,0,0,0,1.914,1.619,4.913,4.913,0,0,1-2.1-1.437,2.72,2.72,0,0,0,.3,1.534s-.882-.4-.546-1.837a6.321,6.321,0,0,1-.777-1.214,5.888,5.888,0,0,0-.4,2.327,2.636,2.636,0,0,1,.267-2.647l-.51-1.214a8.226,8.226,0,0,0-.753,2.635s-.5-1.125.648-2.95l-.32-1.263a10.089,10.089,0,0,0-.959,2.428,4,4,0,0,1,.878-2.809l-.117-.866s-.567,1.085-.7,1.412-.235.316-.235.316a4.16,4.16,0,0,1,.878-2.092A9.062,9.062,0,0,0,318.515,159.2Z" transform="translate(-209.964 -110.735)"/>
      <path id="Path_141" data-name="Path 141" class="cls-1" d="M570.05,311.141s2.546,9.308,8.584,6.071A1.647,1.647,0,0,0,580,315.844s-.478.142-.631-.834a4.368,4.368,0,0,0-.287-1.008,2.2,2.2,0,0,0-.911-1.044h0s-1.93-2.206-6.475-1.785c0,0-1.166-.429-1.392-.32l1.182,1.319a2.941,2.941,0,0,1,2-.809s-1.979.724-1.829,1c.028.057.656.672.656.672s1.619-1.562,3.27-1.356c0,0-2.473.55-3.035,1.59l1,.874a5.055,5.055,0,0,1,3.517-1.574s-2.566.664-3.286,1.748l1.1.724s1.619-1.663,3.193-1.518c0,0-2.886,1.068-2.93,1.663a6.384,6.384,0,0,0,1.408.631s1.214-1.166,2.1-1c0,0-1.854.915-1.789,1.133a7.189,7.189,0,0,0,2.489.21,4.918,4.918,0,0,1-2.542.036,2.728,2.728,0,0,0,1.121,1.085s-.955.174-1.505-1.19a6.306,6.306,0,0,1-1.34-.546,5.9,5.9,0,0,0,1.012,2.133,2.628,2.628,0,0,1-1.307-2.315l-1.113-.692a8.417,8.417,0,0,0,.9,2.586s-1.06-.631-1.174-2.784l-.992-.842a10.22,10.22,0,0,0,.627,2.55,4.039,4.039,0,0,1-.9-2.8l-.6-.639s.162,1.214.243,1.558,0,.4,0,.4a4.165,4.165,0,0,1-.49-2.218A9.99,9.99,0,0,0,570.05,311.141Z" transform="translate(-360.178 -201.051)"/>
      <path id="Path_142" data-name="Path 142" class="cls-10" d="M475.35,283.931a22.152,22.152,0,0,0,2.91,2.8l7.884,6.718a13.856,13.856,0,0,0,4.614,2.991,7.22,7.22,0,0,0,6.3-.967l-.134-.045.134-.089a11.89,11.89,0,0,1-3.792-1.736,4.262,4.262,0,0,1-1.667-2.833h0V290.6a2.963,2.963,0,0,1,.044-.457,10.032,10.032,0,0,0,4.747-1.671l-.138-.049.138-.085c-4.2-1.348-7.111-5.289-8.43-9.462s-1.323-8.616-1.465-12.983-.465-8.855-2.351-12.8a21.022,21.022,0,0,1-1.963-4.492,6.989,6.989,0,0,1-.134-1.445,19.293,19.293,0,0,1,.9-4.646,96.808,96.808,0,0,0,2.218-10.324,24.222,24.222,0,0,0,.36-3.743,9.62,9.62,0,0,0-.579-3.6c-1.854-4.816-8.3-7.086-9.28-12.141a10.629,10.629,0,0,1-.146-2.06V209.51c0-.376,0-.809-.032-1.182-.279-3.557-2.481-6.645-4.605-9.531-2.558-3.472-5.261-7.082-9.191-8.932a21.859,21.859,0,0,0-10.769-1.6,28.015,28.015,0,0,0-5.334-3.622c-2.78-1.546-5.666-3.068-8.746-3.408-3.905-.429-7.766,1.068-11.684,1.319-5.326.344-10.555-1.619-15.88-2.023s-11.457,1.388-13.837,6.75a12.874,12.874,0,0,0-1,4.1h0c-.024.271-.04.538-.053.809v.028a25.466,25.466,0,0,0,.093,3.282v.125a5.989,5.989,0,0,0,.065.656.611.611,0,0,0,.02.19,5.159,5.159,0,0,0,.069.607l.024.19c.032.255.069.51.1.765a8.14,8.14,0,0,0,.336,1.546,2.905,2.905,0,0,0,.429.809,3.423,3.423,0,0,0,2.347,1.093l.708.1c-.073.146-.15.291-.219.441a25.16,25.16,0,0,0-2.428,10.834,25.608,25.608,0,0,0,21.741,25.2l.741.923c4.541,5.69,10.239,13.286,12.95,18.754-3.132,3.889-6.8,10.785-7.843,22.352l-1.55,3.618c-3.25,4.674-4.087,11.417-3.25,17.689-.915,3.391-1.959,7.653-2.683,11.178-5.387-1.194-23.772-4.148-28.119-7.018l-12.748-6.006s-16.593-11.591-25.52-7.722a71.618,71.618,0,0,0-10.777-10.243c-3.8-2.853-13.266-14-13.266-14l-14.824-19.677c-.04-2.279-.283-4.225-.907-5.063-1.748-2.339-11-7.531-12.853-6.41s-3.4-2.428-3.4-2.428l-.142-.077c-.348-.2-1.336-.761-2.707-1.5a35.975,35.975,0,0,1,.121-4.925c.028-.275.065-.55.105-.809A22.562,22.562,0,0,0,312.11,209.49c.065-.255.109-.518.162-.777a3.978,3.978,0,0,0,3.735-1.085c1.3-1.392,1.352-3.533.939-5.378a50.308,50.308,0,0,1-1.416-5.5c-.255-2.57.652-5.261-.182-7.689a8.547,8.547,0,0,0-4.512-4.561c-1.967-.983-4.12-1.558-6.131-2.452-1.918-.85-3.7-1.991-5.694-2.663a23.515,23.515,0,0,0-8.094-.838,20.442,20.442,0,0,0-5.3-1.558,7.55,7.55,0,0,0-5.791,1.51c-1.214,1.077-2.2,2.8-3.849,2.861a4.972,4.972,0,0,1-2.258-.716c-2.044-.979-4.63-1.534-6.475-.235-1.481,1.036-2.023,2.942-2.278,4.719s-.3,3.642-1.157,5.233a22.714,22.714,0,0,1-2,2.667,11.461,11.461,0,0,0-2.238,7.875v.081c-.1-.4-.19-.781-.259-1.178a6.617,6.617,0,0,0,.04.894,23.04,23.04,0,0,0,.9,4.092l1.676,5.868a34.478,34.478,0,0,0,3.339,8.653,14.249,14.249,0,0,0,2.27,2.853,10.486,10.486,0,0,0,5.087,2.95,6.519,6.519,0,0,0,2.08.125,1.342,1.342,0,0,1-.036.251c-.15-.028-.3-.061-.445-.081a4.322,4.322,0,0,0-1.987.053c-3.2,1.137-4.168,4.6-4.452,5.957-.065.348-.085.558-.085.558s.053.2.113.546l-.028.117c-.065.344-.085.558-.085.558s.053.2.113.554l-.834.02L253.031,235.6a31.908,31.908,0,0,0-7.839.117,3.236,3.236,0,0,0-.4.117c-2.024.7-11.3,7.1-19.616,12.987a3.041,3.041,0,0,0-.024-.473l-2.367,1.684v.49c-.591.4-1.178.834-1.744,1.242-2.546,1.821-4.856,3.464-6.576,4.723-2.1,1.505-3.4,2.457-3.4,2.457a2.456,2.456,0,0,0-1.279,1.437c-.656,1.518-.882,4.569,1.485,10.575a82.834,82.834,0,0,1,5.14,17.916,12.877,12.877,0,0,0-3.339.809,6.043,6.043,0,0,0-3.622,3.238,5.573,5.573,0,0,0-.028,3.6c1.951,6.92,34.242,46.217,34.242,46.217l.4.036a28.369,28.369,0,0,0,4.978,0c1.51-.158,2.922-.518,3.569-1.279,0,0,7.159,9.191,17.673,2.93-.073,8.337-.283,14.452,1.04,17.532,2.06,4.784,2.06,15.674,2.06,15.674l1.959.069c-.105.4-.223.809-.348,1.214-.9,2.983-2.234,6.589-3.642,7.451-2.372,1.457-1.246,26.5-1.149,28.661h0v.129l-.138,10.118v.809a9.8,9.8,0,0,1-.789-1.246s-3.812,3.642-3.881,11.332.069,7.948.069,7.948,15.379-.595,18.264.465,27.018-.923,27.018-.923a3.548,3.548,0,0,0-1.68-4.108c4.1-.3,8.58-1.081,11.2-2.983,5.767-4.164-11.635-7.41-12.849-8.07s-7.228-5.965-9.713-7.952a5.051,5.051,0,0,0-2.566-.955l.312-9.069c3.7-4.172,7.714-27.18,7.714-27.18,1.311-1.093,1.882-3.752,2.117-5.374a2.465,2.465,0,0,0,1.688-2.262h0c4.237.142,9.567.109,10.591-.907,1.748-1.732,1.542-7.637,1.542-7.637l-2.469-62.5-.162-.239a31.164,31.164,0,0,0,.024-8.628c5.544,1.582,9.858,2.659,9.858,2.659s8.345,1.538,14.2,2.833a9.571,9.571,0,0,0-2.121,3.561c-5.261,14.974,24.577,14.355,24.577,14.355l14.088,6.516,33.161,10.838c-10.656-3.145-22.829-6.844-31.113-9.381a21.763,21.763,0,0,0-2.485-.6,21.13,21.13,0,0,0-20.336,7.5c-.057.077-.109.146-.17.219a8.9,8.9,0,0,0-.21,10.567c1.267,1.793,2.962,4.176,4.949,6.949-4.2,1.271-11.162,4.812-6.933,13.918,5.86,12.623,21.591,19.83,21.591,19.83s10.283,2.954,12.95,6.212c.749.915,3.642,2.942,7.426,5.387,2.428,2.57,4.33,4.249,5.459,4.622,4.508,1.485,13.286,8.612,19.462,13.958L419.93,428.5l-.061.769-.38-.324s-2.732,5.666-10.648,7.564a6.779,6.779,0,0,0-3.962,2.582l-.028.036-.235.34-.178-.134c-1.619,2.278-2.372,5.6,3.739,6.512,9.563,1.425,20.235-.611,20.235-.611l9.535-8.814a9.364,9.364,0,0,0,3.642,1.89c7.127,1.619,27.143,9.365,27.143,9.365,0-2.173,17.689-30.13,17.689-30.13,23.877-45.2-2.088-78.973-4.958-82.49l-.255-.308-.223-3.756-.049-.862s12.886-5.7,7.948-8.41-7.689-15.747-12.339-21.174c-3.642-4.233-3.432-14.059-3.816-22.433a13.481,13.481,0,0,0,2.618,5.666c.028.036.061.065.089.1l-.344-.3A4.153,4.153,0,0,0,475.35,283.931Zm-158.776-3.472a57.011,57.011,0,0,0,6.475,5.516c-2.3-1.121-4.088-2.068-5.468-2.833C317.257,282.243,316.917,281.345,316.573,280.459Zm-49.086-42.352a6.69,6.69,0,0,1-2.084,3.039l-.809-3.493C265.654,237.823,266.641,237.981,267.487,238.107Zm161.751,95.959c.32-.688.652-1.364.987-2.024a7.588,7.588,0,0,0,3.6-2.5,51.365,51.365,0,0,1,1.562,7.471v.182a11.4,11.4,0,0,1-.457,3.007c-.372,1.182-1.052,2.295-2.287,2.428a45.151,45.151,0,0,1-6.827-1.59c-1.1-.3-2.3-.635-3.59-1C424.244,339.905,427.053,338.768,429.238,334.065Zm31.668-85.392c-.757-1.214-2.335-1.991-4.266-2.448-.352-.235-.9-.607-1.594-1.113-3.4-2.489-10.186-8.094-13.3-15.253a17.137,17.137,0,0,0,2.533-.927,18.319,18.319,0,0,0,3.578-2.165c.372-.291.737-.595,1.085-.911a18.891,18.891,0,0,0,2.428-2.651c.287-.4.567-.789.809-1.214a18.659,18.659,0,0,0,1.077-1.934,24.115,24.115,0,0,0,1.7-4.856c.158-.672.3-1.356.4-2.044s.214-1.38.291-2.076a58.617,58.617,0,0,0,.287-7.394c0-.117,0-.239,0-.356v-.13h0a36.176,36.176,0,0,0-.809-7.442c.182.069.364.138.538.219a5.449,5.449,0,0,1,.834.506c-.065-.093-.138-.186-.206-.279a10.513,10.513,0,0,1,2.833,3.128,44.667,44.667,0,0,1,4.792,38.2,22.826,22.826,0,0,0-1.457,5.289c-.571,6.52,5.666,11.493,7.985,17.621,1.161,3.072,1.344,6.475,1.5,9.842-1.748-8.527-8.139-16.921-11.024-21.595Z" transform="translate(-145.326 -121.335)"/>
      <path id="Path_143" data-name="Path 143" class="cls-11" d="M411.347,666.073s-.3,5.059-2.226,6.678c0,0-3.946,22.866-7.588,27.014l-.607,2.327-15.176-1.72,3.035-20.235,2.833-18.616Z" transform="translate(-250.464 -409.813)"/>
      <path id="Path_144" data-name="Path 144" class="cls-12" d="M411.347,666.073s-.3,5.059-2.226,6.678c0,0-3.946,22.866-7.588,27.014l-.607,2.327-15.176-1.72,3.035-20.235,2.833-18.616Z" transform="translate(-250.464 -409.813)"/>
      <path id="Path_145" data-name="Path 145" class="cls-13" d="M345.621,713.662l6.54-.287-.348,10.3-5.006,3.355-9.017-1.975,3.29-13.76Z" transform="translate(-201.092 -423.427)"/>
      <path id="Path_146" data-name="Path 146" class="cls-12" d="M345.621,713.662l6.54-.287-.348,10.3-5.006,3.355-9.017-1.975,3.29-13.76Z" transform="translate(-201.092 -423.427)"/>
      <path id="Path_147" data-name="Path 147" class="cls-14" d="M402.113,778.685s5.136-1.514,7.572.461,8.361,7.24,9.547,7.9,18.284,3.885,12.639,8.029-20.142,2.962-20.142,2.962-9.482-2.768-9.745-2.9-6.071-2.962-6.253-3.161,1.643-13.355,1.643-13.355Z" transform="translate(-256.398 -479.231)"/>
      <path id="Path_148" data-name="Path 148" class="cls-12" d="M402.113,778.685s5.136-1.514,7.572.461,8.361,7.24,9.547,7.9,18.284,3.885,12.639,8.029-20.142,2.962-20.142,2.962-9.482-2.768-9.745-2.9-6.071-2.962-6.253-3.161,1.643-13.355,1.643-13.355Z" transform="translate(-256.398 -479.231)"/>
      <path id="Path_149" data-name="Path 149" class="cls-8" d="M279.538,372.754l-.3,18.811-.688,40.126-.4.352c-12.04,10.421-20.539-.607-20.539-.607-.639.757-2.023,1.117-3.513,1.271a27.458,27.458,0,0,1-4.9,0l-.4-.036s-31.777-39.082-33.7-45.962a5.609,5.609,0,0,1,.028-3.578,5.991,5.991,0,0,1,3.565-3.2,12.579,12.579,0,0,1,3.286-.809,83.153,83.153,0,0,0-5.059-17.807c-2.331-5.969-2.1-9-1.461-10.522a2.435,2.435,0,0,1,1.259-1.429s1.279-.943,3.339-2.428c1.712-1.251,3.966-2.886,6.475-4.695l2.327-1.667c8.584-6.16,18.928-13.412,21.044-14.165a3.083,3.083,0,0,1,.4-.117c4.342-1.048,18.916,1.129,18.916,1.129Z" transform="translate(-148.704 -210.082)"/>
      <path id="Path_150" data-name="Path 150" class="cls-15" d="M329.9,372.766l-.3,18.811c-14.4-4.245-27.779-32.376-29.543-34.594-1.51-1.926.04-23.38.611-30.672,4.342-1.048,18.916,1.129,18.916,1.129Z" transform="translate(-199.068 -210.094)"/>
      <path id="Path_151" data-name="Path 151" class="cls-5" d="M329.9,372.766l-.3,18.811c-14.4-4.245-27.779-32.376-29.543-34.594-1.51-1.926.04-23.38.611-30.672,4.342-1.048,18.916,1.129,18.916,1.129Z" transform="translate(-199.068 -210.094)"/>
      <path id="Path_152" data-name="Path 152" class="cls-2" d="M640.572,349.65s-11.23,5.767-12.647,28.43c0,0-1.821,11.534-2.833,13.557s-5.868,21.146-5.261,23.473c0,0-1.012,2.327-4.755,1.315s-23.979-4.148-28.531-7.183L574,403.273s-24.484-17.3-29.644-2.428,24.181,14.274,24.181,14.274l13.861,6.475,41.988,13.853s5.565,2.529,9.308-5.565a94.977,94.977,0,0,1,8.5-14.569s8.5-23.877,8.4-27.924,9.106-13.659,9.106-13.659,1.821-25.5-13.153-24.99Z" transform="translate(-344.519 -223.611)"/>
      <path id="Path_153" data-name="Path 153" class="cls-12" d="M640.572,349.65s-11.23,5.767-12.647,28.43c0,0-1.821,11.534-2.833,13.557s-5.868,21.146-5.261,23.473c0,0-1.012,2.327-4.755,1.315s-23.979-4.148-28.531-7.183L574,403.273s-24.484-17.3-29.644-2.428,24.181,14.274,24.181,14.274l13.861,6.475,41.988,13.853s5.565,2.529,9.308-5.565a94.977,94.977,0,0,1,8.5-14.569s8.5-23.877,8.4-27.924,9.106-13.659,9.106-13.659,1.821-25.5-13.153-24.99Z" transform="translate(-344.519 -223.611)"/>
      <path id="Path_154" data-name="Path 154" class="cls-11" d="M474.915,399.64a19.541,19.541,0,0,0,3.44,2.169s9.308,11.077,13.052,13.91,15.986,13.659,13.509,17.758-5.261,3.185-5.261,3.185l-21.906-15.176s-7.689-5.512-9.255-8.143A60.843,60.843,0,0,1,465,405.2Z" transform="translate(-297.642 -253.916)"/>
      <path id="Path_155" data-name="Path 155" class="cls-12" d="M474.915,399.64a19.541,19.541,0,0,0,3.44,2.169s9.308,11.077,13.052,13.91,15.986,13.659,13.509,17.758-5.261,3.185-5.261,3.185l-21.906-15.176s-7.689-5.512-9.255-8.143A60.843,60.843,0,0,1,465,405.2Z" transform="translate(-297.642 -253.916)"/>
      <path id="Path_156" data-name="Path 156" class="cls-16" d="M401.352,313.32l15.731,21.093-14.165,5.516-5.868-17.657Z" transform="translate(-236.369 -186.516)"/>
      <path id="Path_157" data-name="Path 157" class="cls-12" d="M401.352,313.32l15.731,21.093-14.165,5.516-5.868-17.657Z" transform="translate(-236.369 -186.516)"/>
      <path id="Path_158" data-name="Path 158" class="cls-3" d="M451.54,485.77l2.833,4.148L456.8,552.04s.2,5.868-1.518,7.588-15.783.607-15.783.607.506-63.336.708-64.55S451.54,485.77,451.54,485.77Z" transform="translate(-282.461 -305.19)"/>
      <path id="Path_159" data-name="Path 159" class="cls-5" d="M451.54,485.77l2.833,4.148L456.8,552.04s.2,5.868-1.518,7.588-15.783.607-15.783.607.506-63.336.708-64.55S451.54,485.77,451.54,485.77Z" transform="translate(-282.461 -305.19)"/>
      <path id="Path_160" data-name="Path 160" class="cls-11" d="M386.754,672.357a51.337,51.337,0,0,1-3.238,6.572s-2.631,15.01-3.752,16.395c-.809,1.012-1.182,8.563-1.315,12.5-.049,1.425-.069,2.376-.069,2.376l-15.468,7.374-.069-9.745v-.13h0c-.1-2.149-1.214-27.038,1.129-28.487,1.376-.854,2.687-4.452,3.574-7.4.676-2.279,1.1-4.185,1.1-4.185s17.184-1.117,18.616.724C387.79,669.006,387.426,670.6,386.754,672.357Z" transform="translate(-236.62 -413.249)"/>
      <path id="Path_161" data-name="Path 161" class="cls-5" d="M394.151,672.328c-6.969-.146-15.7-.441-19.231-.567.676-2.278,1.1-4.185,1.1-4.185s17.184-1.117,18.616.724C395.187,668.977,394.823,670.571,394.151,672.328Z" transform="translate(-244.017 -413.219)"/>
      <path id="Path_162" data-name="Path 162" class="cls-3" d="M366.424,451.569s-4.755,25.294-3.845,41.583-.708,28.321,1.315,33.084,2.023,15.581,2.023,15.581,27.52,1.012,30.353.607S399,539.895,399,539.895s-1.922-16.8-.1-22.064,1.518-21.348,1.518-21.348l7.689-25.9s2.327-11.635-2.529-16.39S366.424,451.569,366.424,451.569Z" transform="translate(-236.602 -284.546)"/>
      <path id="Path_163" data-name="Path 163" class="cls-2" d="M649.578,679.968l-1.214,1.781-7.507,11.17-6.374,1.922-4.755-4.654.231-3.072,1.186-15.949s-29.422-17.309-32.052-20.547-12.748-6.172-12.748-6.172-15.48-7.183-21.247-19.729,9.612-14.468,9.612-14.468l57.771,55.25Z" transform="translate(-356.459 -379.292)"/>
      <path id="Path_164" data-name="Path 164" class="cls-5" d="M693.937,745.018l-7.507,11.17-6.374,1.922-4.755-4.654.231-3.072,5.233,4.488,9.814-11.433Z" transform="translate(-402.011 -442.566)"/>
      <path id="Path_165" data-name="Path 165" class="cls-3" d="M730.311,790.472,712,807.57s-10.522,2.023-19.932.607c-6.014-.907-4.856-4.2-3.274-6.475l.028-.04a6.653,6.653,0,0,1,3.9-2.566c7.786-1.878,10.474-7.515,10.474-7.515l5.666,4.856L718.676,785l7.256,3.408Z" transform="translate(-430.11 -483.321)"/>
      <path id="Path_166" data-name="Path 166" class="cls-4" d="M729.934,795.982l-18.313,17.107s-10.522,2.024-19.931.607c-6.014-.906-5.261-4.2-3.679-6.475a12.546,12.546,0,0,0,6.309,2.627,100.747,100.747,0,0,0,12.95,0l18.284-15.917Z" transform="translate(-429.733 -488.637)"/>
      <path id="Path_167" data-name="Path 167" class="cls-11" d="M389.667,285.284c-1.489.745-2.173,3.043-2.448,5.666a48.415,48.415,0,0,0,.287,9.867s-20.235-5.532-18.074-6.613c1.242-.619,1.9-5.128,2.238-8.839.251-2.744.324-5.055.324-5.055S393.714,283.26,389.667,285.284Z" transform="translate(-240.654 -182.879)"/>
      <path id="Path_168" data-name="Path 168" class="cls-2" d="M752.175,307.789s-24.553,23.2-23.744,16.459a8.2,8.2,0,0,0-.85-3.772c-2.27-5.472-8.547-13.966-13.456-20.178-3.6-4.557-6.475-7.888-6.475-7.888s30.494-25.63,28.066-11.06a17.48,17.48,0,0,0,1.331,9.786c3.039,7.155,9.774,12.784,13.137,15.269C751.4,307.3,752.175,307.789,752.175,307.789Z" transform="translate(-442.091 -180.832)"/>
      <path id="Path_169" data-name="Path 169" class="cls-5" d="M732.357,285.8c-.441.546-2.076,2.465-2.562,2.97-4.614,4.8-5.229,11.736-12.412,11.736a25.235,25.235,0,0,1-3.238-.206c-3.6-4.557-6.475-7.888-6.475-7.888s30.486-25.63,28.058-11.06C735.153,284.806,731.074,282.771,732.357,285.8Z" transform="translate(-442.103 -180.832)"/>
      <path id="Path_170" data-name="Path 170" class="cls-2" d="M719.715,233.3a25.261,25.261,0,1,1-7.4-17.96,25.363,25.363,0,0,1,7.4,17.96Z" transform="translate(-419.077 -139.797)"/>
      <path id="Path_171" data-name="Path 171" class="cls-5" d="M781.494,350.871s-24.553,23.2-23.744,16.459a8.2,8.2,0,0,0-.85-3.772l3.549-8.369a24.011,24.011,0,0,1,15.706-5.949,22.849,22.849,0,0,1,3.145.214l.2.032C780.717,350.381,781.494,350.871,781.494,350.871Z" transform="translate(-471.409 -223.913)"/>
      <path id="Path_172" data-name="Path 172" class="cls-17" d="M697.814,522.036s-17.4,27.787-17.4,29.948c0,0-19.7-7.689-26.71-9.308s-13.626-16.322-13.626-16.322-18.616-17.54-25.9-19.968c-6.18-2.06-35.877-43.951-44.724-56.589a8.9,8.9,0,0,1,.21-10.5l.166-.215a20.676,20.676,0,0,1,20.008-7.455,20.9,20.9,0,0,1,2.428.6c12.74,3.938,34.8,10.7,45.934,13.76a46.742,46.742,0,0,0,6.718,1.582c1.214-.125,1.882-1.214,2.25-2.408a11.449,11.449,0,0,0,.449-2.987v-.182a51.348,51.348,0,0,0-1.6-7.608c-1.3-4.452-3.549-9.676-7.285-12.173-3.1-2.068-5.565-6.629-6.856-11.931-1.736-7.159-1.336-15.678,2.537-21.255l3.743-8.831,6.261-14.772,3.489-8.232a24.011,24.011,0,0,1,15.706-5.949,22.853,22.853,0,0,1,3.145.215c2.683.372,5,1.178,5.969,2.764,2.967,4.856,9.713,13.76,11.06,22.663s-.267,23.473,4.318,28.871,7.285,18.345,12.141,21.044-7.823,8.361-7.823,8.361l.049.854.219,3.735s.089.1.251.3C695.763,443.548,721.287,477.118,697.814,522.036Z" transform="translate(-358.863 -225.104)"/>
      <path id="Path_173" data-name="Path 173" class="cls-3" d="M809.7,564.767c-5.318,1.113-16.949,3.537-22.137,4.6l-.911.186c-.3.061-.643.117-1.012.17-5.213.716-16.52.364-21.7.154a11.444,11.444,0,0,0,.449-2.987v-.182a170.955,170.955,0,0,0,21.267-2.643c.651-.133,1.3-.275,1.922-.4.906-.21,1.789-.433,2.631-.668a70.786,70.786,0,0,1,19.021-2.25l.219,3.735S809.513,564.565,809.7,564.767Z" transform="translate(-475.6 -349.82)"/>
      <path id="Path_174" data-name="Path 174" class="cls-17" d="M819.422,567.92v5.722l-.911.186c-.3.061-.643.117-1.012.17v-5.641C818.152,568.207,818.8,568.066,819.422,567.92Z" transform="translate(-507.485 -354.093)"/>
      <path id="Path_175" data-name="Path 175" class="cls-5" d="M775.119,595s-10.826,24.788-17.4,27.216-22.967,11.028-22.967,11.028,9.409,8.3,19.223-.809S777.952,599.047,775.119,595Z" transform="translate(-458.224 -370.214)"/>
      <path id="Path_176" data-name="Path 176" class="cls-5" d="M862.361,586.77s1.012,9.409-.4,11.129S862.361,586.77,862.361,586.77Z" transform="translate(-533.628 -365.315)"/>
      <path id="Path_177" data-name="Path 177" class="cls-5" d="M846.4,602s5.464,57.265-21.651,57.569C824.75,659.577,850.145,634.376,846.4,602Z" transform="translate(-511.8 -374.381)"/>
      <path id="Path_178" data-name="Path 178" class="cls-5" d="M891.678,636s7.791,30.049-2.428,33.489A76.221,76.221,0,0,0,891.678,636Z" transform="translate(-550.197 -394.621)"/>
      <path id="Path_179" data-name="Path 179" class="cls-5" d="M750.164,617c-.506,0-21.044,3.541-16.593,6.374S750.164,617,750.164,617Z" transform="translate(-457.146 -383.311)"/>
      <path id="Path_180" data-name="Path 180" class="cls-5" d="M810.5,516.77s16.8,14.873,13.557,16.492" transform="translate(-503.317 -323.644)"/>
      <path id="Path_181" data-name="Path 181" class="cls-5" d="M807,528.52s9.713,11.939,8.6,12.647" transform="translate(-501.234 -330.639)"/>
      <path id="Path_182" data-name="Path 182" class="cls-5" d="M858.25,524s4.452,5.565,3.744,6.779" transform="translate(-531.743 -327.948)"/>
      <path id="Path_183" data-name="Path 183" class="cls-5" d="M869.25,516.77s6.374,4.949,4.958,6.88" transform="translate(-538.291 -323.644)"/>
      <path id="Path_184" data-name="Path 184" class="cls-2" d="M757.194,367.77s20.741,1.619,19.83,18.313-16.39,20.943-16.39,20.943L740.5,401.259S749.5,368.883,757.194,367.77Z" transform="translate(-461.647 -234.944)"/>
      <path id="Path_185" data-name="Path 185" class="cls-5" d="M624.634,550.469c12.74,3.938,34.8,10.7,45.933,13.76a5.884,5.884,0,0,1-4.747.263l-41.988-13.853-1.643-.769A20.9,20.9,0,0,1,624.634,550.469Z" transform="translate(-391.217 -343.348)"/>
      <path id="Path_186" data-name="Path 186" class="cls-5" d="M757.533,403.172c-1.971,2.631-3.707,5.463-3.642,7.236.032,1.275-.809,4.525-1.935,8.373a139.97,139.97,0,0,1-11.736,27.811c-1.3-4.452-3.549-9.676-7.285-12.173-3.1-2.068-5.565-6.629-6.856-11.931a70.183,70.183,0,0,1,2.3-7.831c1.012-2.023,2.833-13.557,2.833-13.557a60.613,60.613,0,0,1,1.145-8.7,36.65,36.65,0,0,1,6.261-14.772,17.479,17.479,0,0,1,5.261-4.962l5.969-.911c6.88-.231,10.2,5,11.8,10.737A23.991,23.991,0,0,1,757.533,403.172Z" transform="translate(-453.062 -237.315)"/>
      <path id="Path_187" data-name="Path 187" class="cls-2" d="M624.572,368.685s-11.23,5.767-12.647,28.43c0,0-1.821,11.534-2.833,13.557s-5.868,21.146-5.261,23.473c0,0-1.012,2.327-4.755,1.315s-23.979-4.148-28.531-7.183L558,422.308s-24.484-17.3-29.644-2.428,24.181,14.274,24.181,14.274l13.861,6.475,41.988,13.853s5.565,2.529,9.308-5.565c.935-2.023,1.934-3.946,2.91-5.694a140.683,140.683,0,0,0,12.064-28.4c1.145-3.849,1.967-7.1,1.935-8.373-.045-1.773,1.7-4.609,3.642-7.236a23.854,23.854,0,0,0,4.087-20.68c-1.6-5.735-4.933-10.967-11.8-10.733Z" transform="translate(-334.994 -234.957)"/>
      <path id="Path_188" data-name="Path 188" class="cls-5" d="M393.2,285.26c-1.489.745-2.173,3.043-2.448,5.666h-.789a22.137,22.137,0,0,1-14.759-5.6c.251-2.744.324-5.055.324-5.055S397.244,283.236,393.2,285.26Z" transform="translate(-244.184 -182.856)"/>
      <path id="Path_189" data-name="Path 189" class="cls-11" d="M401.187,216.859A22.259,22.259,0,1,1,378.929,194.6a22.259,22.259,0,0,1,22.259,22.259Z" transform="translate(-233.153 -131.856)"/>
      <path id="Path_190" data-name="Path 190" class="cls-5" d="M399.371,369.255s-11.635,4.654-15.277,6.273-24.484-2.125-24.484-2.125-10.826-5.463-9.915-10.927-8.7-23.363-8.7-23.363-.3-15.884,3.946-18.92,2.631-9.409,2.631-9.409.02-.21.085-.554c.263-1.352,1.214-4.792,4.367-5.921a4.184,4.184,0,0,1,1.955-.053c3.023.457,7.989,2.707,12.1,4.784,3.4,1.72,6.212,3.319,6.856,3.691l.138.077s1.518,3.541,3.339,2.428,10.927,4.047,12.647,6.374.506,13.254.2,15.986,1.72,10.826,3.946,15.472S399.371,369.255,399.371,369.255Z" transform="translate(-223.818 -197.08)"/>
      <path id="Path_191" data-name="Path 191" class="cls-16" d="M399.371,366.255s-11.635,4.654-15.277,6.273-24.484-2.125-24.484-2.125-10.826-5.463-9.915-10.927-8.7-23.363-8.7-23.363-.3-15.884,3.946-18.92,2.631-9.409,2.631-9.409.02-.21.085-.554c.263-1.352,1.214-4.792,4.367-5.921a4.184,4.184,0,0,1,1.955-.053c3.023.457,7.989,2.707,12.1,4.784,3.4,1.72,6.212,3.319,6.856,3.691l.138.077s1.518,3.541,3.339,2.428,10.927,4.047,12.647,6.374.506,13.254.2,15.986,1.72,10.826,3.946,15.472S399.371,366.255,399.371,366.255Z" transform="translate(-223.818 -195.295)"/>
      <path id="Path_192" data-name="Path 192" class="cls-3" d="M375.1,423.3s-9.984,16.188-11.6,17.066l.607,5.666s14.233-2.97,15.112-6.949.4-15.986.4-15.986Z" transform="translate(-237.219 -267.882)"/>
      <path id="Path_193" data-name="Path 193" class="cls-18" d="M375.1,423.3s-9.984,16.188-11.6,17.066l.607,5.666s14.233-2.97,15.112-6.949.4-15.986.4-15.986Z" transform="translate(-237.219 -267.882)"/>
      <path id="Path_194" data-name="Path 194" class="cls-5" d="M426.88,372.64s1.769,6.831,4.553,9.158S426.88,372.64,426.88,372.64Z" transform="translate(-274.949 -237.843)"/>
      <path id="Path_195" data-name="Path 195" class="cls-11" d="M384,410.739c.255.457,8.8,12.092,17.807,16.39s29.09,9.361,29.09,9.361,16.289,3.035,19.069,4.2,6.326-4.047-11.129-11.481-20.842-10.725-20.842-10.725-15.176-7.394-17.6-11.036S384,410.739,384,410.739Z" transform="translate(-249.422 -257.933)"/>
      <path id="Path_196" data-name="Path 196" class="cls-5" d="M399.75,548.932c.3-.2,7.588-7.993,8.5-4.654S399.75,548.932,399.75,548.932Z" transform="translate(-258.798 -339.525)"/>
      <path id="Path_197" data-name="Path 197" class="cls-5" d="M404.3,519c-.1.3-1.113,8.9-4.047,9.915" transform="translate(-259.096 -324.971)"/>
      <path id="Path_198" data-name="Path 198" class="cls-5" d="M408.969,524.77s-2.631,9.207-5.969,9.806" transform="translate(-260.733 -328.406)"/>
      <path id="Path_199" data-name="Path 199" class="cls-5" d="M384.75,588.982s4.452.1,5.059-2.732" transform="translate(-249.869 -365.005)"/>
      <path id="Path_200" data-name="Path 200" class="cls-5" d="M399.75,638.52c.607.1,10.118,6.172,7.689,7.386S399.75,638.52,399.75,638.52Z" transform="translate(-258.798 -396.122)"/>
      <path id="Path_201" data-name="Path 201" class="cls-5" d="M378.925,765.14v.935c-.049,1.424-.069,2.376-.069,2.376l-15.468,7.374-.069-9.745v-.13h0v-.66l6.192.2Z" transform="translate(-237.112 -471.498)"/>
      <path id="Path_202" data-name="Path 202" class="cls-13" d="M330.083,740.923l-12.9,4.937-5.791-3.424.061-4.686.134-10.061,6.192.2,9.413-.328v7.046Z" transform="translate(-185.376 -433.113)"/>
      <path id="Path_203" data-name="Path 203" class="cls-5" d="M381.5,789.806l-12.9,4.937-5.791-3.424.061-4.686a9.377,9.377,0,0,0,7.115,3.683s4.541-5.666,7.3-7.309a1.688,1.688,0,0,1,1.319-.178v.66Z" transform="translate(-236.808 -481.992)"/>
      <path id="Path_204" data-name="Path 204" class="cls-14" d="M363.3,792.3a9.3,9.3,0,0,1-7.9-4.937s-3.752,3.622-3.82,11.259.069,7.9.069,7.9,15.14-.591,17.973.461,26.6-.923,26.6-.923,1.578-4.148-5.6-5.6-13.1-9.086-13.3-9.413-3.95-7.689-6.714-6.071S363.3,792.3,363.3,792.3Z" transform="translate(-230.112 -483.17)"/>
      <path id="Path_205" data-name="Path 205" class="cls-5" d="M412.83,188.5l-1.51-.206.943-.024Z" transform="translate(-265.686 -128.088)"/>
      <path id="Path_206" data-name="Path 206" class="cls-5" d="M401.171,216.892a22.305,22.305,0,0,1-.595,5.128,3.563,3.563,0,0,1-.959-.4c-.433-.279-.866-.664-1.376-.619a1.639,1.639,0,0,0-.809.372c-2.4,1.752-4.176,4.634-7.09,5.192a4.678,4.678,0,0,0,.113-2.647,5.476,5.476,0,0,1-4.8,1.538,2.311,2.311,0,0,0,.069-1.59,46.445,46.445,0,0,1-6.39,2.966c-.077-.4-.15-.777-.227-1.166-3.1,1.514-2.857,6.649-5.957,8.163-1.845.9-4.452.255-5.727,1.882-.049.065-.093.13-.138.2a22.259,22.259,0,1,1,33.873-18.993Z" transform="translate(-233.137 -131.89)"/>
      <path id="Path_207" data-name="Path 207" class="cls-19" d="M368.771,184.119a21.874,21.874,0,0,0-5.779-1.781,7.347,7.347,0,0,0-5.7,1.5c-1.214,1.068-2.165,2.784-3.784,2.833a4.87,4.87,0,0,1-2.226-.712c-2.024-.971-4.553-1.522-6.378-.235-1.457,1.032-2,2.926-2.242,4.695s-.3,3.642-1.137,5.2a23.062,23.062,0,0,1-1.971,2.651,11.453,11.453,0,0,0-2.2,7.827,22.723,22.723,0,0,0,.882,4.067L339.887,216a34.444,34.444,0,0,0,3.286,8.6,11.654,11.654,0,0,0,7.042,5.581c1.8.4,3.99.073,5-1.477.259-.4.425-.838.708-1.214,1.255-1.619,3.881-.975,5.726-1.878,3.1-1.514,2.857-6.649,5.957-8.163l.231,1.161a47.093,47.093,0,0,0,6.386-2.962,2.335,2.335,0,0,1-.065,1.59,5.492,5.492,0,0,0,4.792-1.538,4.678,4.678,0,0,1-.113,2.647c2.914-.563,4.695-3.444,7.09-5.2a1.671,1.671,0,0,1,.809-.368c.514-.045.943.34,1.376.615a3.877,3.877,0,0,0,4.792-.611c1.275-1.384,1.331-3.513.923-5.35s-1.214-3.59-1.388-5.463c-.255-2.554.635-5.221-.182-7.649a8.452,8.452,0,0,0-4.452-4.533c-1.947-.979-4.047-1.55-6.034-2.428-1.886-.846-3.642-1.979-5.6-2.647-2.833-.967-5.913-.89-8.9-.809" transform="translate(-221.627 -124.52)"/>
      <path id="Path_208" data-name="Path 208" class="cls-8" d="M359.447,342.582s3.238-21.785-24.484-20.709L321,323.731s13.319,2.4,16.524,2.748l.34.049C340.83,327.07,351.085,326.394,359.447,342.582Z" transform="translate(-211.919 -207.599)"/>
      <path id="Path_209" data-name="Path 209" class="cls-5" d="M372.25,581.069v-.251C383.618,570.988,372.25,581.069,372.25,581.069Z" transform="translate(-242.428 -359.209)"/>
      <path id="Path_210" data-name="Path 210" class="cls-3" d="M254.522,512.039a27.452,27.452,0,0,1-4.9,0L215.57,462.471a5.991,5.991,0,0,1,3.565-3.2Z" transform="translate(-149.156 -289.414)"/>
      <path id="Path_211" data-name="Path 211" class="cls-3" d="M232.926,410.432l-1.619,1.922s-12.279-20.4-14.917-30.757a2.435,2.435,0,0,1,1.259-1.429s1.279-.943,3.339-2.428C221.752,382.613,224.363,394.527,232.926,410.432Z" transform="translate(-149.644 -240.879)"/>
      <path id="Path_212" data-name="Path 212" class="cls-3" d="M260.74,392.251l-3.238,1.821c-8.839-10.344-9.591-27.722-9.51-34.646l2.331-1.675C250.639,366.844,260.74,392.251,260.74,392.251Z" transform="translate(-168.454 -228.979)"/>
      <path id="Path_213" data-name="Path 213" class="cls-5" d="M298.522,438.52c-.1,1.315-3.845,14.67,1.619,16.9S298.522,438.52,298.522,438.52Z" transform="translate(-197.737 -277.062)"/>
      <path id="Path_214" data-name="Path 214" class="cls-5" d="M329.5,486.192c.2.708,2.023,23.776,5.969,21.955s1.821-28.127,1.821-28.127Z" transform="translate(-216.979 -301.767)"/>
      <path id="Path_215" data-name="Path 215" class="cls-5" d="M723.245,233.247a25.262,25.262,0,0,1-7.074,17.564,14.779,14.779,0,0,1-5.625.1,5.6,5.6,0,0,1-2.631-1.056,6.842,6.842,0,0,1-1.7-2.465c-1.477-3.177-2.234-6.848-4.306-9.567s-6.277-3.913-8.276-1.125c-1.089,1.514-1.271,3.841-2.724,4.889-1.744,1.263-4.047-.223-5.4-2.023-4.007-5.261-2.635-15.605-10.275-17.058l-.308-.053a25.363,25.363,0,0,1,48.325,10.8Z" transform="translate(-422.607 -139.746)"/>
      <path id="Path_216" data-name="Path 216" class="cls-20" d="M669.835,212.14c-1.238-.239-2.675-.206-3.5-1.275a4.9,4.9,0,0,1-.749-2.335c-.5-3.586-.769-7.434.66-10.684,2.343-5.33,8.373-7.111,13.614-6.714s10.385,2.351,15.625,2.024c3.853-.251,7.653-1.74,11.494-1.315,3.039.34,5.872,1.849,8.6,3.391,2.558,1.441,5.172,2.991,6.985,5.492,2.663,3.663,3.165,8.721,3.238,13.468.089,5.573-.3,11.36-2.643,16.265-3.391,7.119-10.955,11.356-18.005,10.081a5.6,5.6,0,0,1-2.631-1.056,6.881,6.881,0,0,1-1.7-2.465c-1.481-3.181-2.238-6.848-4.31-9.571s-6.277-3.909-8.276-1.121c-1.089,1.51-1.271,3.841-2.724,4.889-1.744,1.259-4.047-.227-5.4-2.024C676.1,223.925,677.476,213.589,669.835,212.14Z" transform="translate(-416.809 -129.76)"/>
      <path id="Path_217" data-name="Path 217" class="cls-20" d="M809.013,211.558c3.857,1.841,6.532,5.427,9.045,8.879,2.092,2.869,4.257,5.937,4.533,9.474a37.861,37.861,0,0,0,.17,4.346c.967,5.03,7.285,7.285,9.13,12.076.858,2.258.587,4.771.21,7.159a96.622,96.622,0,0,1-2.181,10.251c-.546,2.023-1.166,4.128-.749,6.184a18.979,18.979,0,0,0,1.926,4.452c1.858,3.93,2.177,8.385,2.319,12.728s.138,8.762,1.437,12.906,4.164,8.062,8.3,9.4a9.75,9.75,0,0,1-4.67,1.659,3.9,3.9,0,0,0,1.619,3.594,11.8,11.8,0,0,0,3.731,1.728,7.042,7.042,0,0,1-6.2.955,13.9,13.9,0,0,1-4.537-2.97l-7.758-6.674a21.9,21.9,0,0,1-2.861-2.784c-5.018-6.236-2.024-15.686-4.824-23.177-2.283-6.091-8.418-11.036-7.855-17.515a22.856,22.856,0,0,1,1.433-5.261A44.788,44.788,0,0,0,806.512,221a8.986,8.986,0,0,0-3.391-3.468c-2.246-1.072-5.455-.611-6.73-2.752a10.678,10.678,0,0,1-.87-4.383C799.64,209.454,805.16,209.717,809.013,211.558Z" transform="translate(-494.4 -140.943)"/>
      <path id="Path_218" data-name="Path 218" class="cls-5" d="M341.352,364.908a14.731,14.731,0,0,1,25.715-7.43,32.319,32.319,0,0,1,5.7,8.806c4.047,10.219,4.351,11.129,4.351,11.129s-24.99,4.856-24.788,8.5L341,367.8S341.085,366.669,341.352,364.908Z" transform="translate(-223.825 -225.773)"/>
      <path id="Path_219" data-name="Path 219" class="cls-16" d="M341.352,361.908a14.731,14.731,0,0,1,25.715-7.43,32.319,32.319,0,0,1,5.7,8.806c4.047,10.219,4.351,11.129,4.351,11.129s-24.99,4.856-24.788,8.5L341,364.8S341.085,363.669,341.352,361.908Z" transform="translate(-223.825 -223.987)"/>
      <path id="Path_220" data-name="Path 220" class="cls-5" d="M359.25,340.89c.3.506,12.242,15.075,18.515,17.151S359.25,340.89,359.25,340.89Z" transform="translate(-234.689 -218.943)"/>
      <path id="Path_221" data-name="Path 221" class="cls-5" d="M232.5,457.27s31.567,37.233,35.614,52.308" transform="translate(-159.235 -288.224)"/>
      <path id="Path_222" data-name="Path 222" class="cls-21" d="M235.5,372.27s6.88,35.614,20.235,50.588,27.115,40.47,27.115,40.47" transform="translate(-161.021 -237.623)"/>
      <g id="Group_12" data-name="Group 12" class="cls-6" transform="translate(115.48 70.158)">
        <path id="Path_223" data-name="Path 223" d="M454.424,244.24a4.824,4.824,0,0,1-1.149,3.238,3.877,3.877,0,0,1-4.792.611c-.433-.275-.862-.66-1.376-.615a1.672,1.672,0,0,0-.809.368c-2.278,1.667-4,4.355-6.677,5.1a4.675,4.675,0,0,1-.211,2.125c2.914-.563,4.695-3.444,7.09-5.2a1.671,1.671,0,0,1,.809-.368c.514-.045.943.34,1.376.615a3.877,3.877,0,0,0,4.792-.611C454.728,248.125,454.8,246.053,454.424,244.24Z" transform="translate(-397.888 -231.565)"/>
        <path id="Path_224" data-name="Path 224" d="M472.449,218c.032.332.089.66.154.987,0-2.024.482-4.128,0-6.071C472.611,214.571,472.279,216.319,472.449,218Z" transform="translate(-417.527 -212.92)"/>
        <path id="Path_225" data-name="Path 225" d="M378.251,246.946a5.492,5.492,0,0,1-4.792,1.538,2.335,2.335,0,0,0,.065-1.59,47.086,47.086,0,0,1-6.386,2.962l-.231-1.161c-3.1,1.514-2.857,6.649-5.957,8.163-1.845.9-4.452.251-5.727,1.878-.283.368-.449.809-.708,1.214-1.012,1.55-3.2,1.886-5,1.477a11.621,11.621,0,0,1-7.042-5.581,34.6,34.6,0,0,1-3.286-8.6l-1.651-5.832c-.271-.971-.546-1.943-.724-2.934a5.939,5.939,0,0,0,.045.89,22.717,22.717,0,0,0,.882,4.067l1.651,5.832a34.444,34.444,0,0,0,3.286,8.6,11.654,11.654,0,0,0,7.042,5.581c1.8.4,3.99.073,5-1.477.259-.4.425-.838.708-1.214,1.255-1.619,3.881-.975,5.727-1.878,3.1-1.514,2.857-6.649,5.957-8.163l.231,1.161a47.087,47.087,0,0,0,6.374-2.962,2.335,2.335,0,0,1-.065,1.59,5.492,5.492,0,0,0,4.606-1.368,4.675,4.675,0,0,0,0-2.193Z" transform="translate(-336.81 -228.136)"/>
      </g>
      <path id="Path_226" data-name="Path 226" class="cls-5" d="M382.757,312.731c-2.177,1.255-7.236,4.047-8.26,3.569-1.093-.506-13.015-4.678-17-6.071.263-1.352,1.214-4.792,4.367-5.921a4.184,4.184,0,0,1,1.955-.053l12.092,4.784C379.3,310.76,382.114,312.358,382.757,312.731Z" transform="translate(-233.647 -197.08)"/>
      <path id="Path_227" data-name="Path 227" class="cls-16" d="M382.757,309.731c-2.177,1.255-7.236,4.047-8.26,3.569-1.093-.506-13.015-4.678-17-6.071.263-1.352,1.214-4.792,4.367-5.921a4.184,4.184,0,0,1,1.955-.053l12.092,4.784C379.3,307.76,382.114,309.358,382.757,309.731Z" transform="translate(-233.647 -195.295)"/>
      <path id="Path_228" data-name="Path 228" class="cls-5" d="M725.868,229.647a32.4,32.4,0,0,1-2.635,13.108c-3.391,7.119-10.955,11.356-18.005,10.081a5.6,5.6,0,0,1-2.63-1.056,6.879,6.879,0,0,1-1.7-2.465c-1.481-3.181-2.238-6.848-4.31-9.571s-6.277-3.909-8.276-1.121c-1.089,1.51-1.271,3.841-2.724,4.889-1.744,1.259-4.047-.227-5.4-2.024-4.007-5.261-2.635-15.609-10.275-17.058-1.238-.239-2.675-.206-3.5-1.275a4.9,4.9,0,0,1-.749-2.335c-.138-.975-.255-1.971-.324-2.971a29.485,29.485,0,0,0,.324,6.613,4.9,4.9,0,0,0,.749,2.335c.83,1.068,2.266,1.036,3.5,1.275,7.641,1.449,6.269,11.785,10.275,17.058,1.352,1.777,3.642,3.262,5.4,2.024,1.453-1.048,1.619-3.379,2.724-4.889,2-2.788,6.2-1.6,8.276,1.121s2.833,6.39,4.31,9.571a6.879,6.879,0,0,0,1.7,2.465,5.6,5.6,0,0,0,2.631,1.056c7.05,1.275,14.614-2.962,18.005-10.081,2.339-4.9,2.732-10.692,2.643-16.265C725.868,229.955,725.868,229.793,725.868,229.647Z" transform="translate(-416.864 -145.697)"/>
      <g id="Group_13" data-name="Group 13" class="cls-6" transform="translate(301.634 73.217)">
        <path id="Path_229" data-name="Path 229" d="M876.189,291.351c.858,2.258.587,4.771.21,7.159a96.6,96.6,0,0,1-2.181,10.243c-.546,2.023-1.166,4.128-.749,6.184a18.979,18.979,0,0,0,1.926,4.452c1.858,3.93,2.177,8.385,2.319,12.728s.138,8.762,1.437,12.906a15.937,15.937,0,0,0,4.646,7.325,17.072,17.072,0,0,1-2.622-5.148c-1.3-4.144-1.3-8.563-1.437-12.906s-.461-8.8-2.319-12.724a19.609,19.609,0,0,1-1.926-4.452c-.4-2.056.2-4.164.749-6.188a96.522,96.522,0,0,0,2.181-10.271c.376-2.388.648-4.9-.21-7.163a13.194,13.194,0,0,0-3.468-4.626,9.454,9.454,0,0,1,1.445,2.481Z" transform="translate(-842.356 -261.193)"/>
        <path id="Path_230" data-name="Path 230" d="M903.3,453.94a10.573,10.573,0,0,1-3.011-1.57,9.785,9.785,0,0,1-3.683,1.068,3.9,3.9,0,0,0,1.619,3.594,5.61,5.61,0,0,0,.688.474,3.238,3.238,0,0,1-.271-1.906,9.834,9.834,0,0,0,4.658-1.659Z" transform="translate(-856.181 -358.524)"/>
        <path id="Path_231" data-name="Path 231" d="M801.841,221.86c-1.542-.737-3.537-.753-5.051-1.38a4.146,4.146,0,0,0,.344.809c1.275,2.137,4.484,1.675,6.73,2.752a5.524,5.524,0,0,1,.809.5,7.791,7.791,0,0,0-2.833-2.679Z" transform="translate(-796.79 -220.48)"/>
        <path id="Path_232" data-name="Path 232" d="M879.746,454.743a7.03,7.03,0,0,1-4.893.231,13.9,13.9,0,0,1-4.537-2.97l-7.758-6.674c-.368-.316-.733-.635-1.089-.959.081.109.162.223.251.332a21.647,21.647,0,0,0,2.861,2.784l7.758,6.678a13.961,13.961,0,0,0,4.537,2.97,7.042,7.042,0,0,0,6.2-.959,13.108,13.108,0,0,1-3.331-1.433Z" transform="translate(-835.294 -353.762)"/>
        <path id="Path_233" data-name="Path 233" d="M841.87,225.351c2.092,2.869,4.257,5.937,4.533,9.474a37.89,37.89,0,0,0,.17,4.346c.437,2.278,1.979,3.99,3.7,5.621a7.994,7.994,0,0,1-1.68-3.46,37.969,37.969,0,0,1-.17-4.351c-.275-3.537-2.428-6.6-4.533-9.47a43.274,43.274,0,0,0-4.974-6C839.96,222.74,840.927,224.052,841.87,225.351Z" transform="translate(-821.87 -221.093)"/>
      </g>
      <path id="Path_234" data-name="Path 234" class="cls-5" d="M801.729,210.27s-2.428,4.047,4.452,7.418l.4-1.081Z" transform="translate(-497.848 -141.185)"/>
      <path id="Path_235" data-name="Path 235" class="cls-17" d="M800.728,210.27s-2.428,4.047,4.452,7.418l.4-1.081Z" transform="translate(-497.253 -141.185)"/>
      <path id="Path_236" data-name="Path 236" class="cls-8" d="M1029.047,776.26s2.226,2.91-1.024,7.285-5.929,8.094-4.856,10.834c0,0,4.905-8.155,8.9-8.268S1033.438,781.165,1029.047,776.26Z" transform="translate(-629.775 -478.118)"/>
      <path id="Path_237" data-name="Path 237" class="cls-5" d="M1029.24,776.26a3.66,3.66,0,0,1,.457.911c3.893,4.577,5.965,8.847,2.222,8.952-3.484.1-7.665,6.334-8.669,7.908.032.121.073.239.117.36,0,0,4.9-8.155,8.9-8.268S1033.631,781.165,1029.24,776.26Z" transform="translate(-629.967 -478.118)"/>
      <path id="Path_238" data-name="Path 238" class="cls-22" d="M1047.514,784.445c0,1.024-.117,1.854-.259,1.854s-.255-.809-.255-1.854.142-.542.283-.542S1047.514,783.421,1047.514,784.445Z" transform="translate(-644.106 -482.596)"/>
      <path id="Path_239" data-name="Path 239" class="cls-22" d="M1049.192,787.4c-.9.49-1.684.785-1.748.66s.6-.623,1.5-1.113.546-.134.615,0S1050.094,786.915,1049.192,787.4Z" transform="translate(-644.367 -484.334)"/>
      <path id="Path_240" data-name="Path 240" class="cls-8" d="M1001.656,776.26s-2.226,2.91,1.024,7.285,5.929,8.094,4.856,10.834c0,0-4.9-8.155-8.9-8.268S997.282,781.165,1001.656,776.26Z" transform="translate(-614.141 -478.118)"/>
      <path id="Path_241" data-name="Path 241" class="cls-5" d="M1001.643,776.26a3.666,3.666,0,0,0-.457.911c-3.893,4.577-5.965,8.847-2.222,8.952,3.484.1,7.665,6.334,8.669,7.908a3.142,3.142,0,0,1-.121.36s-4.9-8.155-8.9-8.268S997.269,781.165,1001.643,776.26Z" transform="translate(-614.128 -478.118)"/>
      <path id="Path_242" data-name="Path 242" class="cls-22" d="M998.82,784.445c0,1.024.117,1.854.259,1.854s.255-.809.255-1.854-.142-.542-.283-.542S998.82,783.421,998.82,784.445Z" transform="translate(-615.424 -482.596)"/>
      <path id="Path_243" data-name="Path 243" class="cls-22" d="M994.514,787.4c.9.49,1.68.785,1.748.66s-.6-.623-1.5-1.113-.546-.134-.615,0S993.616,786.915,994.514,787.4Z" transform="translate(-612.535 -484.334)"/>
      <path id="Path_244" data-name="Path 244" class="cls-23" d="M1000.57,815.169s6.216-.194,8.094-1.526,9.563-2.93,10.029-.809,9.341,10.64,2.323,10.7-16.305-1.093-18.175-2.23S1000.57,815.169,1000.57,815.169Z" transform="translate(-616.466 -499.277)"/>
      <path id="Path_245" data-name="Path 245" class="cls-18" d="M1021.137,827.755c-7.018.057-16.305-1.093-18.175-2.23-1.424-.87-1.991-3.982-2.181-5.415h-.211s.4,5.014,2.266,6.156,11.158,2.287,18.175,2.23c2.023,0,2.724-.737,2.687-1.8C1023.407,827.35,1022.642,827.755,1021.137,827.755Z" transform="translate(-616.466 -504.222)"/>
      <path id="Path_246" data-name="Path 246" class="cls-8" d="M291.954,791.459a4.727,4.727,0,0,0,1.554-2.339,2.091,2.091,0,0,0-1.085-2.388c-1-.38-2.06.312-2.865,1.008s-1.732,1.493-2.788,1.344a4.237,4.237,0,0,0,1.311-3.97,1.667,1.667,0,0,0-.364-.809c-.55-.591-1.554-.336-2.218.13-2.1,1.477-2.691,4.338-2.7,6.908a12.743,12.743,0,0,1-.04-2.833,2.914,2.914,0,0,0-1.068-2.517,3.237,3.237,0,0,0-1.619-.4,3.37,3.37,0,0,0-2.647.753,2.6,2.6,0,0,0,.105,3.238,10.5,10.5,0,0,0,2.736,2.193,6.071,6.071,0,0,1,1.959,1.866,1.952,1.952,0,0,1,.146.336h5.9A16.5,16.5,0,0,0,291.954,791.459Z" transform="translate(-185.669 -482.702)"/>
      <path id="Path_247" data-name="Path 247" class="cls-7" d="M194.38,727.608s-5.666-19.3,1.064-33.517a30.519,30.519,0,0,0,2.469-19.13,51.5,51.5,0,0,0-2.712-8.98" transform="translate(-135.214 -412.468)"/>
      <path id="Path_248" data-name="Path 248" class="cls-8" d="M197.472,637.486c0,2.364-4.286,9.227-4.286,9.227s-4.286-6.88-4.286-9.227a4.286,4.286,0,1,1,8.572,0Z" transform="translate(-133.28 -392.954)"/>
      <path id="Path_249" data-name="Path 249" class="cls-8" d="M214.912,666.442c-1.287,1.987-8.612,5.419-8.612,5.419s.129-8.094,1.416-10.073a4.285,4.285,0,1,1,7.2,4.655Z" transform="translate(-143.638 -408.807)"/>
      <path id="Path_250" data-name="Path 250" class="cls-8" d="M211.85,719.586c-2.113,1.064-10.17.328-10.17.328s4.2-6.912,6.313-7.981a4.285,4.285,0,1,1,3.857,7.654Z" transform="translate(-140.888 -439.551)"/>
      <path id="Path_251" data-name="Path 251" class="cls-8" d="M202.138,761.669c-1.9,1.408-9.968,2.023-9.968,2.023s2.971-7.523,4.856-8.932a4.286,4.286,0,1,1,5.1,6.88Z" transform="translate(-135.226 -464.742)"/>
      <path id="Path_252" data-name="Path 252" class="cls-8" d="M182.028,679.752c1.7,1.651,9.6,3.359,9.6,3.359s-1.939-7.855-3.642-9.506a4.286,4.286,0,1,0-5.969,6.147Z" transform="translate(-128.363 -416.24)"/>
      <path id="Path_253" data-name="Path 253" class="cls-8" d="M169.535,727.733c2.113,1.064,10.17.332,10.17.332s-4.2-6.916-6.313-7.981a4.283,4.283,0,1,0-3.857,7.649Z" transform="translate(-120.349 -444.403)"/>
      <path id="Path_254" data-name="Path 254" class="cls-8" d="M166.456,777.512c1.9,1.4,9.968,2.023,9.968,2.023s-2.971-7.527-4.856-8.936a4.286,4.286,0,0,0-5.1,6.88Z" transform="translate(-118.994 -474.319)"/>
      <path id="Path_255" data-name="Path 255" class="cls-8" d="M197.472,637.486c0,2.364-4.286,9.227-4.286,9.227s-4.286-6.88-4.286-9.227a4.286,4.286,0,1,1,8.572,0Z" transform="translate(-133.28 -392.954)"/>
      <path id="Path_256" data-name="Path 256" class="cls-8" d="M214.912,666.442c-1.287,1.987-8.612,5.419-8.612,5.419s.129-8.094,1.416-10.073a4.285,4.285,0,1,1,7.2,4.655Z" transform="translate(-143.638 -408.807)"/>
      <path id="Path_257" data-name="Path 257" class="cls-8" d="M211.85,719.586c-2.113,1.064-10.17.328-10.17.328s4.2-6.912,6.313-7.981a4.285,4.285,0,1,1,3.857,7.654Z" transform="translate(-140.888 -439.551)"/>
      <path id="Path_258" data-name="Path 258" class="cls-8" d="M202.138,761.669c-1.9,1.408-9.968,2.023-9.968,2.023s2.971-7.523,4.856-8.932a4.286,4.286,0,1,1,5.1,6.88Z" transform="translate(-135.226 -464.742)"/>
      <path id="Path_259" data-name="Path 259" class="cls-8" d="M182.028,679.752c1.7,1.651,9.6,3.359,9.6,3.359s-1.939-7.855-3.642-9.506a4.286,4.286,0,1,0-5.969,6.147Z" transform="translate(-128.363 -416.24)"/>
      <path id="Path_260" data-name="Path 260" class="cls-8" d="M169.535,727.733c2.113,1.064,10.17.332,10.17.332s-4.2-6.916-6.313-7.981a4.283,4.283,0,1,0-3.857,7.649Z" transform="translate(-120.349 -444.403)"/>
      <path id="Path_261" data-name="Path 261" class="cls-8" d="M166.456,777.512c1.9,1.4,9.968,2.023,9.968,2.023s-2.971-7.527-4.856-8.936a4.286,4.286,0,0,0-5.1,6.88Z" transform="translate(-118.994 -474.319)"/>
      <path id="Path_262" data-name="Path 262" class="cls-23" d="M164.45,805.323s6.924-1.376,8.77-3.209,10.158-5.042,11.081-2.752,12.465,10.085,4.618,11.461-18.467,1.833-20.777.915S164.45,805.323,164.45,805.323Z" transform="translate(-118.725 -491.397)"/>
      <path id="Path_263" data-name="Path 263" class="cls-18" d="M188.918,819.835c-7.851,1.376-18.467,1.833-20.777.919-1.756-.7-2.979-4.047-3.46-5.613l-.231.049s1.384,5.5,3.691,6.414,12.926.461,20.777-.915c2.262-.4,2.91-1.332,2.667-2.509C191.383,818.948,190.6,819.535,188.918,819.835Z" transform="translate(-118.725 -501.263)"/>
    </g>
  </g>
</svg>
